<svg width="43" height="43" viewBox="0 0 43 43" fill="none" xmlns="http://www.w3.org/2000/svg">
<circle cx="21.5" cy="21.5" r="21.5" fill="#8D2D92" fill-opacity="0.1"/>
<path d="M15.227 23.6384L15.5491 23.3163C15.653 23.2123 15.7115 23.0714 15.7115 22.9244V19.8463C15.7115 16.6494 18.3031 14.0578 21.5 14.0578C24.6968 14.0578 27.2884 16.6494 27.2884 19.8463V22.9244C27.2884 23.0714 27.3468 23.2123 27.4507 23.3163L27.7728 23.6384C27.8712 23.7367 27.9211 23.7866 27.9603 23.8413C28.0346 23.9448 28.0834 24.0639 28.104 24.1896C28.115 24.2561 28.1151 24.3259 28.1151 24.4654C28.1151 24.7842 28.1151 24.9437 28.0717 25.0722C27.9892 25.3169 27.7978 25.509 27.5531 25.5915C27.425 25.6347 27.2661 25.6347 26.9498 25.6347H23.9807V26.4617C23.9807 27.8317 22.8701 28.9424 21.5 28.9424C20.1299 28.9424 19.0192 27.8317 19.0192 26.4617V25.6347H16.0502C15.7338 25.6347 15.5755 25.6347 15.4474 25.5915C15.2028 25.509 15.0105 25.3169 14.928 25.0722C14.8846 24.9436 14.8846 24.7842 14.8846 24.4654C14.8846 24.3259 14.8846 24.2561 14.8955 24.1896C14.9161 24.0639 14.9653 23.9448 15.0396 23.8413C15.0789 23.7866 15.1283 23.737 15.227 23.6384Z" fill="#F2EDF3"/>
<path d="M23.9807 25.6347V26.4617C23.9807 27.8317 22.8701 28.9424 21.5 28.9424C20.1299 28.9424 19.0192 27.8317 19.0192 26.4617V25.6347M23.9807 25.6347H19.0192M23.9807 25.6347H26.9498C27.2661 25.6347 27.425 25.6347 27.5531 25.5915C27.7978 25.509 27.9892 25.3169 28.0717 25.0722C28.1151 24.9437 28.1151 24.7842 28.1151 24.4654C28.1151 24.3259 28.115 24.2561 28.104 24.1896C28.0834 24.0639 28.0346 23.9448 27.9603 23.8413C27.9211 23.7866 27.8712 23.7367 27.7728 23.6384L27.4507 23.3163C27.3468 23.2123 27.2884 23.0714 27.2884 22.9244V19.8463C27.2884 16.6494 24.6968 14.0578 21.5 14.0578C18.3031 14.0578 15.7115 16.6494 15.7115 19.8463V22.9244C15.7115 23.0714 15.653 23.2123 15.5491 23.3163L15.227 23.6384C15.1283 23.737 15.0789 23.7866 15.0396 23.8413C14.9653 23.9448 14.9161 24.0639 14.8955 24.1896C14.8846 24.2561 14.8846 24.3259 14.8846 24.4654C14.8846 24.7842 14.8846 24.9436 14.928 25.0722C15.0105 25.3169 15.2028 25.509 15.4474 25.5915C15.5755 25.6347 15.7338 25.6347 16.0502 25.6347H19.0192M26.4768 13.2422C27.6173 14.1016 28.5158 15.2418 29.0848 16.5516M16.5235 13.2422C15.383 14.1016 14.4845 15.2418 13.9155 16.5516" stroke="#8D2D92" stroke-width="1.5" stroke-linecap="round" stroke-linejoin="round"/>
</svg>
