<svg width="24" height="24" viewBox="0 0 24 24" fill="none" xmlns="http://www.w3.org/2000/svg">
<path d="M21.6602 10.4385L20.6802 14.6185C19.8402 18.2285 18.1802 19.6885 15.0602 19.3885C14.5602 19.3485 14.0202 19.2585 13.4402 19.1185L11.7602 18.7185C7.59018 17.7285 6.30018 15.6685 7.28018 11.4885L8.26018 7.29854C8.46018 6.44854 8.70018 5.70854 9.00018 5.09854C10.1702 2.67854 12.1602 2.02854 15.5002 2.81854L17.1702 3.20854C21.3602 4.18854 22.6402 6.25854 21.6602 10.4385Z" stroke="#292D32" stroke-width="1.5" stroke-linecap="round" stroke-linejoin="round"/>
<path d="M15.0599 19.3896C14.4399 19.8096 13.6599 20.1596 12.7099 20.4696L11.1299 20.9896C7.15985 22.2696 5.06985 21.1996 3.77985 17.2296L2.49985 13.2796C1.21985 9.30961 2.27985 7.20961 6.24985 5.92961L7.82985 5.40961C8.23985 5.27961 8.62985 5.16961 8.99985 5.09961C8.69985 5.70961 8.45985 6.44961 8.25985 7.29961L7.27985 11.4896C6.29985 15.6696 7.58985 17.7296 11.7599 18.7196L13.4399 19.1196C14.0199 19.2596 14.5599 19.3496 15.0599 19.3896Z" stroke="#292D32" stroke-width="1.5" stroke-linecap="round" stroke-linejoin="round"/>
<path d="M12.6401 8.53125L17.4901 9.76125" stroke="#292D32" stroke-width="1.5" stroke-linecap="round" stroke-linejoin="round"/>
<path d="M11.6602 12.4004L14.5602 13.1404" stroke="#292D32" stroke-width="1.5" stroke-linecap="round" stroke-linejoin="round"/>
</svg>
