<svg width="29" height="29" viewBox="0 0 29 29" fill="none" xmlns="http://www.w3.org/2000/svg">
<path d="M14.4824 12.9468C14.3633 12.9349 14.2204 12.9349 14.0894 12.9468C11.2548 12.8515 9.00391 10.5291 9.00391 7.67074C9.00391 4.75285 11.362 2.38281 14.2918 2.38281C17.2097 2.38281 19.5798 4.75285 19.5798 7.67074C19.5679 10.5291 17.3169 12.8515 14.4824 12.9468Z" stroke="white" stroke-width="1.78646" stroke-linecap="round" stroke-linejoin="round"/>
<path d="M8.52783 17.3397C5.64567 19.2691 5.64567 22.4132 8.52783 24.3307C11.803 26.5221 17.1743 26.5221 20.4495 24.3307C23.3317 22.4013 23.3317 19.2572 20.4495 17.3397C17.1862 15.1602 11.8149 15.1602 8.52783 17.3397Z" stroke="white" stroke-width="1.78646" stroke-linecap="round" stroke-linejoin="round"/>
</svg>
