<svg width="21" height="21" viewBox="0 0 21 21" fill="none" xmlns="http://www.w3.org/2000/svg">
<g id="Communication / Share_Android">
<path id="Vector" d="M7.875 11.8125L13.125 14.4375M13.125 6.5625L7.875 9.1875M15.75 18.375C14.3003 18.375 13.125 17.1997 13.125 15.75C13.125 14.3003 14.3003 13.125 15.75 13.125C17.1997 13.125 18.375 14.3003 18.375 15.75C18.375 17.1997 17.1997 18.375 15.75 18.375ZM5.25 13.125C3.80025 13.125 2.625 11.9497 2.625 10.5C2.625 9.05025 3.80025 7.875 5.25 7.875C6.69975 7.875 7.875 9.05025 7.875 10.5C7.875 11.9497 6.69975 13.125 5.25 13.125ZM15.75 7.875C14.3003 7.875 13.125 6.69975 13.125 5.25C13.125 3.80025 14.3003 2.625 15.75 2.625C17.1997 2.625 18.375 3.80025 18.375 5.25C18.375 6.69975 17.1997 7.875 15.75 7.875Z" stroke="white" stroke-width="1.5" stroke-linecap="round" stroke-linejoin="round"/>
</g>
</svg>
