<svg width="26" height="27" viewBox="0 0 26 27" fill="none" xmlns="http://www.w3.org/2000/svg">
<path d="M11.7748 4.09862C12.1297 2.99806 13.6868 2.99806 14.0417 4.09862L15.5246 8.69658C15.6836 9.18946 16.1428 9.52313 16.6607 9.522L21.4918 9.51144C22.6482 9.50891 23.1294 10.9898 22.1924 11.6675L18.2777 14.4986C17.858 14.8021 17.6826 15.342 17.8437 15.8341L19.3467 20.4256C19.7064 21.5246 18.4467 22.4398 17.5127 21.7581L13.6104 18.9098C13.1921 18.6045 12.6244 18.6045 12.2061 18.9098L8.30383 21.7581C7.36979 22.4398 6.11007 21.5246 6.46981 20.4256L7.97276 15.8341C8.13387 15.342 7.95845 14.8021 7.53881 14.4986L3.62412 11.6675C2.68711 10.9898 3.16828 9.50891 4.32466 9.51144L9.15581 9.522C9.67369 9.52313 10.1329 9.18946 10.2919 8.69658L11.7748 4.09862Z" fill="#F4D053"/>
</svg>
