<svg width="53" height="52" viewBox="0 0 53 52" fill="none" xmlns="http://www.w3.org/2000/svg">
<circle cx="26.5361" cy="26" r="26" fill="white"/>
<path d="M16 34H18M18 34H28M18 34V20.2002C18 19.0801 18 18.5196 18.218 18.0918C18.4097 17.7155 18.7155 17.4097 19.0918 17.218C19.5196 17 20.0801 17 21.2002 17H24.8002C25.9203 17 26.4796 17 26.9074 17.218C27.2837 17.4097 27.5905 17.7155 27.7822 18.0918C28 18.5192 28 19.079 28 20.1969V26M28 34H34M28 34V26M34 34H36M34 34V26C34 25.0681 33.9999 24.6024 33.8477 24.2349C33.6447 23.7448 33.2557 23.3552 32.7656 23.1522C32.3981 23 31.9316 23 30.9997 23C30.0679 23 29.6019 23 29.2344 23.1522C28.7443 23.3552 28.3552 23.7448 28.1522 24.2349C28 24.6024 28 25.0681 28 26M21 24H25M21 21H25" stroke="#ED3F32" stroke-width="2" stroke-linecap="round" stroke-linejoin="round"/>
</svg>
