<svg width="25" height="24" viewBox="0 0 25 24" fill="none" xmlns="http://www.w3.org/2000/svg">
<path d="M4.99097 14.5858L5.38047 14.1963C5.50615 14.0706 5.5769 13.9002 5.5769 13.7224V10C5.5769 6.13401 8.71092 3.00001 12.5769 3C16.4429 2.99999 19.5769 6.134 19.5769 10V13.7224C19.5769 13.9001 19.6475 14.0706 19.7732 14.1963L20.1627 14.5858C20.2816 14.7048 20.342 14.7651 20.3895 14.8312C20.4793 14.9563 20.5383 15.1004 20.5632 15.2524C20.5764 15.3329 20.5766 15.4172 20.5766 15.5859C20.5766 15.9715 20.5766 16.1643 20.5242 16.3198C20.4244 16.6156 20.1929 16.848 19.897 16.9478C19.7421 17 19.5499 17 19.1674 17H15.5769V18C15.5769 19.6569 14.2338 21 12.5769 21C10.9201 21 9.5769 19.6569 9.5769 18V17H5.98646C5.60392 17 5.41246 17 5.25757 16.9478C4.9617 16.848 4.72915 16.6156 4.62936 16.3197C4.5769 16.1642 4.5769 15.9715 4.5769 15.586C4.5769 15.4172 4.5769 15.3329 4.5901 15.2524C4.61505 15.1004 4.67456 14.9564 4.7644 14.8312C4.81194 14.765 4.87167 14.7051 4.99097 14.5858Z" fill="#F2EDF3"/>
<path d="M15.5769 17V18C15.5769 19.6569 14.2338 21 12.5769 21C10.9201 21 9.5769 19.6569 9.5769 18V17M15.5769 17H9.5769M15.5769 17H19.1674C19.5499 17 19.7421 17 19.897 16.9478C20.1929 16.848 20.4244 16.6156 20.5242 16.3198C20.5766 16.1643 20.5766 15.9715 20.5766 15.5859C20.5766 15.4172 20.5764 15.3329 20.5632 15.2524C20.5383 15.1004 20.4793 14.9563 20.3895 14.8312C20.342 14.7651 20.2816 14.7048 20.1627 14.5858L19.7732 14.1963C19.6475 14.0706 19.5769 13.9001 19.5769 13.7224V10C19.5769 6.134 16.4429 2.99999 12.5769 3C8.71092 3.00001 5.5769 6.13401 5.5769 10V13.7224C5.5769 13.9002 5.50615 14.0706 5.38047 14.1963L4.99097 14.5858C4.87167 14.7051 4.81194 14.765 4.7644 14.8312C4.67456 14.9564 4.61505 15.1004 4.5901 15.2524C4.5769 15.3329 4.5769 15.4172 4.5769 15.586C4.5769 15.9715 4.5769 16.1642 4.62936 16.3197C4.72915 16.6156 4.9617 16.848 5.25757 16.9478C5.41246 17 5.60392 17 5.98646 17H9.5769M18.5955 2.01367C19.9747 3.05299 21.0612 4.43177 21.7493 6.01574M6.55887 2.01367C5.17965 3.05299 4.0931 4.43177 3.40503 6.01574" stroke="#8D2D92" stroke-width="1.5" stroke-linecap="round" stroke-linejoin="round"/>
</svg>
