<svg width="52" height="52" viewBox="0 0 52 52" fill="none" xmlns="http://www.w3.org/2000/svg">
<circle cx="26" cy="26" r="26" fill="white"/>
<path d="M16 24V28.8002C16 29.9203 16 30.4801 16.218 30.9079C16.4097 31.2842 16.7155 31.5905 17.0918 31.7822C17.5192 32 18.079 32 19.1969 32H30.8031C31.921 32 32.48 32 32.9074 31.7822C33.2837 31.5905 33.5905 31.2842 33.7822 30.9079C34 30.4805 34 29.9215 34 28.8036V24M16 24V22M16 24H34M16 22V21.2002C16 20.0801 16 19.5196 16.218 19.0918C16.4097 18.7155 16.7155 18.4097 17.0918 18.218C17.5196 18 18.0801 18 19.2002 18H30.8002C31.9203 18 32.4796 18 32.9074 18.218C33.2837 18.4097 33.5905 18.7155 33.7822 19.0918C34 19.5192 34 20.079 34 21.1969V22M16 22H34M20 28H24M34 24V22" stroke="#ED3F32" stroke-width="2" stroke-linecap="round" stroke-linejoin="round"/>
</svg>
