<svg width="42" height="42" viewBox="0 0 42 42" fill="none" xmlns="http://www.w3.org/2000/svg">
<circle cx="21" cy="21" r="21" fill="#8D2D92"/>
<path d="M25.5 21C26.88 21 27.99 19.88 27.99 18.5C27.99 17.12 26.88 16 25.5 16C24.12 16 23 17.12 23 18.5C23 19.88 24.12 21 25.5 21ZM18 20C19.66 20 20.99 18.66 20.99 17C20.99 15.34 19.66 14 18 14C16.34 14 15 15.34 15 17C15 18.66 16.34 20 18 20ZM25.5 23C23.67 23 20 23.92 20 25.75V27C20 27.55 20.45 28 21 28H30C30.55 28 31 27.55 31 27V25.75C31 23.92 27.33 23 25.5 23ZM18 22C15.67 22 11 23.17 11 25.5V27C11 27.55 11.45 28 12 28H18V25.75C18 24.9 18.33 23.41 20.37 22.28C19.5 22.1 18.66 22 18 22Z" fill="white"/>
</svg>
