<svg width="64" height="64" viewBox="0 0 64 64" fill="none" xmlns="http://www.w3.org/2000/svg">
<path d="M54 0H10C4.47715 0 0 4.47715 0 10V54C0 59.5228 4.47715 64 10 64H54C59.5228 64 64 59.5228 64 54V10C64 4.47715 59.5228 0 54 0Z" fill="#F8F8F8"/>
<path d="M35.125 47.0004C34.7087 47.0004 34.3175 46.7929 34.085 46.4442L31.9563 43.2504H29.5C28.81 43.2504 28.25 42.6904 28.25 42.0004C28.25 41.3104 28.81 40.7504 29.5 40.7504H32.625C33.0425 40.7504 33.4325 40.9592 33.665 41.3067L34.97 43.2642L40 33.5C40.205 33.0925 40.5437 32.5175 41 32.5C42.5 32.5 42.5 32.5 43 33L38.975 40.8467L36.2438 46.3104C36.0438 46.7092 35.6475 46.9717 35.2025 46.9992C35.1775 47.0004 35.1512 47.0004 35.125 47.0004Z" fill="#71207D"/>
<path d="M28.25 29.5C31.7018 29.5 34.5 26.7018 34.5 23.25C34.5 19.7982 31.7018 17 28.25 17C24.7982 17 22 19.7982 22 23.25C22 26.7018 24.7982 29.5 28.25 29.5Z" fill="#71207D"/>
<path d="M25.75 42C25.75 39.9325 27.4325 38.25 29.5 38.25H32.625C33.5 38.25 33.9513 38.695 34.5 39L37.5 33.5C36.3626 31.9438 35.3263 32 33.25 32H23.25C19.7988 32 17 34.7987 17 38.25V42.3125C17 42.83 17.42 43.25 17.9375 43.25H25.98C25.84 42.8575 25.75 42.44 25.75 42Z" fill="#FF9A0C"/>
</svg>
