<svg width="64" height="64" viewBox="0 0 64 64" fill="none" xmlns="http://www.w3.org/2000/svg">
<rect width="64" height="64" rx="10" fill="#F8F8F8"/>
<path d="M32.0003 16C28.5082 16 25.668 18.841 25.668 22.3331V25.6141C25.668 29.1064 28.5082 31.9474 32.0003 31.9474C35.4926 31.9474 38.3326 29.1064 38.3326 25.6141V22.3331C38.3327 18.841 35.4926 16 32.0003 16Z" fill="#71207d"/>
<path d="M45.965 40.1996C43.9373 36.7441 40.6962 34.1823 36.8388 32.986C36.7494 32.9583 36.6527 32.9819 36.5861 33.0477C34.7917 34.817 32.562 36.1973 32.0046 36.5307C31.4096 36.1504 28.9032 34.5167 27.4132 33.0477C27.3469 32.9819 27.2494 32.9583 27.1604 32.986C23.3026 34.1826 20.0617 36.7444 18.0348 40.1999C17.9884 40.2789 17.9884 40.3772 18.0348 40.4563C20.9132 45.3611 26.2642 48.408 31.9996 48.408C37.7354 48.408 43.0866 45.3611 45.965 40.4563C46.0117 40.3769 46.0117 40.2787 45.965 40.1996ZM40.6122 42.0886C40.6122 42.2283 40.4792 42.3352 40.3397 42.3352H38.6247C38.4849 42.3352 38.3325 42.4552 38.3325 42.5952V44.3688C38.3325 44.5083 38.2578 44.6149 38.1181 44.6149H36.5778C36.438 44.6149 36.3063 44.5083 36.3063 44.3688V42.5952C36.3058 42.4555 36.2104 42.3352 36.0706 42.3352H34.2817C34.142 42.3352 34.0263 42.2281 34.0263 42.0886V40.5615C34.0263 40.4218 34.142 40.309 34.2817 40.309H36.0706C36.2104 40.309 36.3058 40.1949 36.3058 40.0549V38.2792C36.3058 38.1395 36.4375 38.0293 36.5772 38.0293H38.1009C38.2404 38.0293 38.3322 38.1395 38.3322 38.2792V40.0601C38.3322 40.2001 38.4676 40.3087 38.6076 40.3087H40.3397C40.4792 40.3087 40.6122 40.427 40.6122 40.5667V42.0886Z" fill="#FF9A0C"/>
</svg>
