<svg width="64" height="64" viewBox="0 0 64 64" fill="none" xmlns="http://www.w3.org/2000/svg">
<rect width="64" height="64" rx="10" fill="#F8F8F8"/>
<path d="M20.9286 27.9219H17.8789C17.3935 27.9219 17 28.3154 17 28.8008V47.0005H20.9286V27.9219Z" fill="#71207d"/>
<path d="M46.121 27.9219H43.0713V47.0005H46.9999V28.8008C46.9999 28.3154 46.6064 27.9219 46.121 27.9219Z" fill="#71207d"/>
<path d="M33.5283 41.127V46.9997H30.4716V41.127H33.5283Z" fill="#71207d"/>
<path d="M40.4348 20.61H37.6678V17.8789C37.6678 17.3935 37.2743 17 36.7889 17H27.3358C26.8504 17 26.4569 17.3935 26.4569 17.8789V20.61H23.5654C23.08 20.61 22.6865 21.0035 22.6865 21.4889V47H28.7139V40.2484C28.7139 39.763 29.1075 39.3695 29.5929 39.3695H34.4074C34.8928 39.3695 35.2863 39.763 35.2863 40.2484V47H41.3137V21.4889C41.3137 21.0035 40.9202 20.61 40.4348 20.61ZM28.0203 36.3321H27.0737C26.5883 36.3321 26.1948 35.9386 26.1948 35.4532C26.1948 34.9678 26.5883 34.5743 27.0737 34.5743H28.0203C28.5056 34.5743 28.8992 34.9678 28.8992 35.4532C28.8992 35.9386 28.5056 36.3321 28.0203 36.3321ZM28.0203 32.8165H27.0737C26.5883 32.8165 26.1948 32.423 26.1948 31.9376C26.1948 31.4522 26.5883 31.0587 27.0737 31.0587H28.0203C28.5056 31.0587 28.8992 31.4522 28.8992 31.9376C28.8992 32.423 28.5056 32.8165 28.0203 32.8165ZM28.0203 29.3009H27.0737C26.5883 29.3009 26.1948 28.9074 26.1948 28.422C26.1948 27.9366 26.5883 27.5431 27.0737 27.5431H28.0203C28.5056 27.5431 28.8992 27.9366 28.8992 28.422C28.8992 28.9074 28.5056 29.3009 28.0203 29.3009ZM32.4734 36.3321H31.5269C31.0415 36.3321 30.6479 35.9386 30.6479 35.4532C30.6479 34.9678 31.0415 34.5743 31.5269 34.5743H32.4734C32.9588 34.5743 33.3523 34.9678 33.3523 35.4532C33.3523 35.9386 32.9588 36.3321 32.4734 36.3321ZM32.4734 32.8165H31.5269C31.0415 32.8165 30.6479 32.423 30.6479 31.9376C30.6479 31.4522 31.0415 31.0587 31.5269 31.0587H32.4734C32.9588 31.0587 33.3523 31.4522 33.3523 31.9376C33.3523 32.423 32.9588 32.8165 32.4734 32.8165ZM32.4734 29.3009H31.5269C31.0415 29.3009 30.6479 28.9074 30.6479 28.422C30.6479 27.9366 31.0415 27.5431 31.5269 27.5431H32.4734C32.9588 27.5431 33.3523 27.9366 33.3523 28.422C33.3523 28.9074 32.9588 29.3009 32.4734 29.3009ZM33.7715 24.0448H32.879V24.9372C32.879 25.4226 32.4855 25.8161 32.0001 25.8161C31.5147 25.8161 31.1212 25.4226 31.1212 24.9372V24.0448H30.2288C29.7434 24.0448 29.3499 23.6513 29.3499 23.1659C29.3499 22.6805 29.7434 22.287 30.2288 22.287H31.1212V21.3945C31.1212 20.9091 31.5147 20.5156 32.0001 20.5156C32.4855 20.5156 32.879 20.9091 32.879 21.3945V22.287H33.7715C34.2569 22.287 34.6504 22.6805 34.6504 23.1659C34.6504 23.6513 34.2569 24.0448 33.7715 24.0448ZM36.9265 36.3321H35.98C35.4946 36.3321 35.1011 35.9386 35.1011 35.4532C35.1011 34.9678 35.4946 34.5743 35.98 34.5743H36.9265C37.4119 34.5743 37.8054 34.9678 37.8054 35.4532C37.8054 35.9386 37.4119 36.3321 36.9265 36.3321ZM36.9265 32.8165H35.98C35.4946 32.8165 35.1011 32.423 35.1011 31.9376C35.1011 31.4522 35.4946 31.0587 35.98 31.0587H36.9265C37.4119 31.0587 37.8054 31.4522 37.8054 31.9376C37.8054 32.423 37.4119 32.8165 36.9265 32.8165ZM36.9265 29.3009H35.98C35.4946 29.3009 35.1011 28.9074 35.1011 28.422C35.1011 27.9366 35.4946 27.5431 35.98 27.5431H36.9265C37.4119 27.5431 37.8054 27.9366 37.8054 28.422C37.8054 28.9074 37.4119 29.3009 36.9265 29.3009Z" fill="#FF9A0C"/>
</svg>
