<svg width="64" height="64" viewBox="0 0 64 64" fill="none" xmlns="http://www.w3.org/2000/svg">
<rect width="64" height="64" rx="10" fill="#F8F8F8"/>
<path d="M35.125 47.0004C34.7087 47.0004 34.3175 46.7929 34.085 46.4442L31.9563 43.2504H29.5C28.81 43.2504 28.25 42.6904 28.25 42.0004C28.25 41.3104 28.81 40.7504 29.5 40.7504H32.625C33.0425 40.7504 33.4325 40.9592 33.665 41.3067L34.97 43.2642L37.7562 37.6904C37.9612 37.2829 38.37 37.0179 38.8263 37.0004C39.3113 36.9892 39.7113 37.2154 39.9463 37.6054L43.3325 43.2504H45.75C46.44 43.2504 47 43.8104 47 44.5004C47 45.1904 46.44 45.7504 45.75 45.7504H42.625C42.1862 45.7504 41.7787 45.5204 41.5537 45.1441L38.975 40.8467L36.2438 46.3104C36.0438 46.7092 35.6475 46.9717 35.2025 46.9992C35.1775 47.0004 35.1512 47.0004 35.125 47.0004Z" fill="#71207d"/>
<path d="M28.25 29.5C31.7018 29.5 34.5 26.7018 34.5 23.25C34.5 19.7982 31.7018 17 28.25 17C24.7982 17 22 19.7982 22 23.25C22 26.7018 24.7982 29.5 28.25 29.5Z" fill="#71207d"/>
<path d="M25.75 42C25.75 39.9325 27.4325 38.25 29.5 38.25H32.625C33.2738 38.25 33.8988 38.4163 34.4475 38.7213L35.5212 36.5725C36.0675 35.4837 37.1075 34.77 38.2887 34.58C37.1513 33.0238 35.3263 32 33.25 32H23.25C19.7988 32 17 34.7987 17 38.25V42.3125C17 42.83 17.42 43.25 17.9375 43.25H25.98C25.84 42.8575 25.75 42.44 25.75 42Z" fill="#FF9A0C"/>
</svg>
