<svg width="24" height="25" viewBox="0 0 24 25" fill="none" xmlns="http://www.w3.org/2000/svg">
<path d="M12 14.5C13.66 14.5 15 13.16 15 11.5V5.5C15 3.84 13.66 2.5 12 2.5C10.34 2.5 8.99999 3.84 8.99999 5.5V11.5C8.99999 13.16 10.34 14.5 12 14.5ZM17.91 11.5C17.42 11.5 17.01 11.86 16.93 12.35C16.52 14.7 14.47 16.5 12 16.5C9.52999 16.5 7.47999 14.7 7.06999 12.35C6.98999 11.86 6.57999 11.5 6.08999 11.5C5.47999 11.5 4.99999 12.04 5.08999 12.64C5.57999 15.64 7.97999 17.99 11 18.42V20.5C11 21.05 11.45 21.5 12 21.5C12.55 21.5 13 21.05 13 20.5V18.42C16.02 17.99 18.42 15.64 18.91 12.64C19.01 12.04 18.52 11.5 17.91 11.5Z" fill="#14202D"/>
</svg>
