<svg width="24" height="25" viewBox="0 0 24 25" fill="none" xmlns="http://www.w3.org/2000/svg">
<path d="M21 11.9384L12.8446 19.9644C11.8455 20.9476 10.4904 21.5 9.07749 21.5C7.66455 21.5 6.30948 20.9476 5.31039 19.9644C4.31129 18.9811 3.75 17.6476 3.75 16.2571C3.75 14.8665 4.31129 13.533 5.31039 12.5497L13.4658 4.52375C14.1319 3.86825 15.0352 3.5 15.9772 3.5C16.9192 3.5 17.8225 3.86825 18.4886 4.52375C19.1547 5.17924 19.5289 6.06829 19.5289 6.9953C19.5289 7.92231 19.1547 8.81135 18.4886 9.46685L10.3243 17.4928C9.99129 17.8206 9.5396 18.0047 9.06862 18.0047C8.59764 18.0047 8.14595 17.8206 7.81291 17.4928C7.47988 17.1651 7.29279 16.7206 7.29279 16.2571C7.29279 15.7935 7.47988 15.349 7.81291 15.0213L15.3471 7.61537" stroke="black" stroke-width="2" stroke-linecap="round" stroke-linejoin="round"/>
</svg>
