<svg width="16" height="16" viewBox="0 0 16 16" fill="none" xmlns="http://www.w3.org/2000/svg">
<path d="M4.66675 9.33301C5.77341 9.33301 6.66675 8.43967 6.66675 7.33301C6.66675 6.22634 5.77341 5.33301 4.66675 5.33301C3.56008 5.33301 2.66675 6.22634 2.66675 7.33301C2.66675 8.43967 3.56008 9.33301 4.66675 9.33301ZM4.66675 6.66634C5.03341 6.66634 5.33341 6.96634 5.33341 7.33301C5.33341 7.69967 5.03341 7.99967 4.66675 7.99967C4.30008 7.99967 4.00008 7.69967 4.00008 7.33301C4.00008 6.96634 4.30008 6.66634 4.66675 6.66634ZM12.6667 4.66634H7.33341V9.99967H2.00008V3.33301H0.666748V13.333H2.00008V11.333H14.0001V13.333H15.3334V7.33301C15.3334 5.85967 14.1401 4.66634 12.6667 4.66634ZM14.0001 9.99967H8.66675V5.99967H12.6667C13.4001 5.99967 14.0001 6.59967 14.0001 7.33301V9.99967Z" fill="#14142B"/>
</svg>
