<svg width="41" height="41" viewBox="0 0 41 41" fill="none" xmlns="http://www.w3.org/2000/svg">
<circle cx="20.5" cy="20.5" r="20.5" fill="#8D2D92"/>
<path d="M27.3948 19.5951L27.3898 19.5929L14.0423 14.0571C13.93 14.0101 13.8079 13.9917 13.6867 14.0035C13.5656 14.0152 13.4493 14.0569 13.3482 14.1246C13.2413 14.1946 13.1536 14.29 13.0928 14.4024C13.032 14.5147 13.0001 14.6403 13 14.7681V18.3085C13.0001 18.4831 13.061 18.6522 13.1724 18.7866C13.2837 18.9211 13.4385 19.0125 13.6101 19.0451L20.8898 20.391C20.9184 20.3965 20.9442 20.4117 20.9628 20.4341C20.9814 20.4565 20.9915 20.4847 20.9915 20.5139C20.9915 20.543 20.9814 20.5712 20.9628 20.5936C20.9442 20.616 20.9184 20.6313 20.8898 20.6367L13.6104 21.9827C13.4389 22.0152 13.2841 22.1064 13.1727 22.2408C13.0613 22.3751 13.0002 22.5441 13 22.7186V26.2597C12.9999 26.3816 13.0301 26.5017 13.0879 26.6091C13.1456 26.7165 13.2292 26.8078 13.331 26.875C13.4534 26.9563 13.5971 26.9998 13.7441 27C13.8463 26.9999 13.9475 26.9794 14.0417 26.9397L27.3888 21.4355L27.3948 21.4326C27.5744 21.3554 27.7275 21.2272 27.8351 21.0639C27.9427 20.9006 28 20.7094 28 20.5139C28 20.3183 27.9427 20.1271 27.8351 19.9638C27.7275 19.8005 27.5744 19.6723 27.3948 19.5951Z" fill="#FEF6FB"/>
</svg>
