<svg width="525" height="900" viewBox="0 0 525 900" fill="none" xmlns="http://www.w3.org/2000/svg">
<g clip-path="url(#clip0_305_409)">
<rect width="524.36" height="900" fill="white"/>
<circle cx="94" cy="140" r="189" fill="#F9D7EF"/>
<mask id="mask0_305_409" style="mask-type:alpha" maskUnits="userSpaceOnUse" x="0" y="-13" width="510" height="927">
<g style="mix-blend-mode:multiply">
<rect y="-13" width="510" height="927" fill="#FBD6FD"/>
</g>
</mask>
<g mask="url(#mask0_305_409)">
<circle cx="392" cy="879" r="189" fill="#F9D7EF"/>
<path d="M4.19327 0V30.6522M-11.1328 15.3261H19.5194H-11.1328Z" stroke="#C696C8" stroke-width="2.27053" stroke-linecap="square"/>
<path d="M55.2812 0V30.6522M39.9551 15.3261H70.6073H39.9551Z" stroke="#C696C8" stroke-width="2.27053" stroke-linecap="square"/>
<path d="M106.367 0V30.6522M91.041 15.3261H121.693H91.041Z" stroke="#C696C8" stroke-width="2.27053" stroke-linecap="square"/>
<path d="M157.455 0V30.6522M142.129 15.3261H172.781H142.129Z" stroke="#C696C8" stroke-width="2.27053" stroke-linecap="square"/>
<path d="M208.541 0V30.6522M193.215 15.3261H223.867H193.215Z" stroke="#C696C8" stroke-width="2.27053" stroke-linecap="square"/>
<path d="M259.629 0V30.6522M244.303 15.3261H274.955H244.303Z" stroke="#C696C8" stroke-width="2.27053" stroke-linecap="square"/>
<path d="M310.715 0V30.6522M295.389 15.3261H326.041H295.389Z" stroke="#C696C8" stroke-width="2.27053" stroke-linecap="square"/>
<path d="M361.803 0V30.6522M346.477 15.3261H377.129H346.477Z" stroke="#C696C8" stroke-width="2.27053" stroke-linecap="square"/>
<path d="M412.889 0V30.6522M397.562 15.3261H428.215H397.562Z" stroke="#C696C8" stroke-width="2.27053" stroke-linecap="square"/>
<path d="M463.976 0V30.6522M448.65 15.3261H479.303H448.65Z" stroke="#C696C8" stroke-width="2.27053" stroke-linecap="square"/>
<path d="M515.062 0V30.6522M499.736 15.3261H530.389H499.736Z" stroke="#C696C8" stroke-width="2.27053" stroke-linecap="square"/>
<path d="M4.19327 51.0869V81.7391M-11.1328 66.413H19.5194H-11.1328Z" stroke="#C696C8" stroke-width="2.27053" stroke-linecap="square"/>
<path d="M55.2812 51.0869V81.7391M39.9551 66.413H70.6073H39.9551Z" stroke="#C696C8" stroke-width="2.27053" stroke-linecap="square"/>
<path d="M106.367 51.0869V81.7391M91.041 66.413H121.693H91.041Z" stroke="#C696C8" stroke-width="2.27053" stroke-linecap="square"/>
<path d="M157.455 51.0869V81.7391M142.129 66.413H172.781H142.129Z" stroke="#C696C8" stroke-width="2.27053" stroke-linecap="square"/>
<path d="M208.541 51.0869V81.7391M193.215 66.413H223.867H193.215Z" stroke="#C696C8" stroke-width="2.27053" stroke-linecap="square"/>
<path d="M259.629 51.0869V81.7391M244.303 66.413H274.955H244.303Z" stroke="#C696C8" stroke-width="2.27053" stroke-linecap="square"/>
<path d="M310.715 51.0869V81.7391M295.389 66.413H326.041H295.389Z" stroke="#C696C8" stroke-width="2.27053" stroke-linecap="square"/>
<path d="M361.803 51.0869V81.7391M346.477 66.413H377.129H346.477Z" stroke="#C696C8" stroke-width="2.27053" stroke-linecap="square"/>
<path d="M412.889 51.0869V81.7391M397.562 66.413H428.215H397.562Z" stroke="#C696C8" stroke-width="2.27053" stroke-linecap="square"/>
<path d="M463.976 51.0869V81.7391M448.65 66.413H479.303H448.65Z" stroke="#C696C8" stroke-width="2.27053" stroke-linecap="square"/>
<path d="M515.062 51.0869V81.7391M499.736 66.413H530.389H499.736Z" stroke="#C696C8" stroke-width="2.27053" stroke-linecap="square"/>
<path d="M4.19327 102.174V132.826M-11.1328 117.5H19.5194H-11.1328Z" stroke="#C696C8" stroke-width="2.27053" stroke-linecap="square"/>
<path d="M55.2812 102.174V132.826M39.9551 117.5H70.6073H39.9551Z" stroke="#C696C8" stroke-width="2.27053" stroke-linecap="square"/>
<path d="M106.367 102.174V132.826M91.041 117.5H121.693H91.041Z" stroke="#C696C8" stroke-width="2.27053" stroke-linecap="square"/>
<path d="M157.455 102.174V132.826M142.129 117.5H172.781H142.129Z" stroke="#C696C8" stroke-width="2.27053" stroke-linecap="square"/>
<path d="M208.541 102.174V132.826M193.215 117.5H223.867H193.215Z" stroke="#C696C8" stroke-width="2.27053" stroke-linecap="square"/>
<path d="M259.629 102.174V132.826M244.303 117.5H274.955H244.303Z" stroke="#C696C8" stroke-width="2.27053" stroke-linecap="square"/>
<path d="M310.715 102.174V132.826M295.389 117.5H326.041H295.389Z" stroke="#C696C8" stroke-width="2.27053" stroke-linecap="square"/>
<path d="M361.803 102.174V132.826M346.477 117.5H377.129H346.477Z" stroke="#C696C8" stroke-width="2.27053" stroke-linecap="square"/>
<path d="M412.889 102.174V132.826M397.562 117.5H428.215H397.562Z" stroke="#C696C8" stroke-width="2.27053" stroke-linecap="square"/>
<path d="M463.976 102.174V132.826M448.65 117.5H479.303H448.65Z" stroke="#C696C8" stroke-width="2.27053" stroke-linecap="square"/>
<path d="M515.062 102.174V132.826M499.736 117.5H530.389H499.736Z" stroke="#C696C8" stroke-width="2.27053" stroke-linecap="square"/>
<path d="M4.19327 153.261V183.913M-11.1328 168.587H19.5194H-11.1328Z" stroke="#C696C8" stroke-width="2.27053" stroke-linecap="square"/>
<path d="M55.2812 153.261V183.913M39.9551 168.587H70.6073H39.9551Z" stroke="#C696C8" stroke-width="2.27053" stroke-linecap="square"/>
<path d="M106.367 153.261V183.913M91.041 168.587H121.693H91.041Z" stroke="#C696C8" stroke-width="2.27053" stroke-linecap="square"/>
<path d="M157.455 153.261V183.913M142.129 168.587H172.781H142.129Z" stroke="#C696C8" stroke-width="2.27053" stroke-linecap="square"/>
<path d="M208.541 153.261V183.913M193.215 168.587H223.867H193.215Z" stroke="#C696C8" stroke-width="2.27053" stroke-linecap="square"/>
<path d="M259.629 153.261V183.913M244.303 168.587H274.955H244.303Z" stroke="#C696C8" stroke-width="2.27053" stroke-linecap="square"/>
<path d="M310.715 153.261V183.913M295.389 168.587H326.041H295.389Z" stroke="#C696C8" stroke-width="2.27053" stroke-linecap="square"/>
<path d="M361.803 153.261V183.913M346.477 168.587H377.129H346.477Z" stroke="#C696C8" stroke-width="2.27053" stroke-linecap="square"/>
<path d="M412.889 153.261V183.913M397.562 168.587H428.215H397.562Z" stroke="#C696C8" stroke-width="2.27053" stroke-linecap="square"/>
<path d="M463.976 153.261V183.913M448.65 168.587H479.303H448.65Z" stroke="#C696C8" stroke-width="2.27053" stroke-linecap="square"/>
<path d="M515.062 153.261V183.913M499.736 168.587H530.389H499.736Z" stroke="#C696C8" stroke-width="2.27053" stroke-linecap="square"/>
<path d="M4.19327 204.348V235M-11.1328 219.674H19.5194H-11.1328Z" stroke="#C696C8" stroke-width="2.27053" stroke-linecap="square"/>
<path d="M55.2812 204.348V235M39.9551 219.674H70.6073H39.9551Z" stroke="#C696C8" stroke-width="2.27053" stroke-linecap="square"/>
<path d="M106.367 204.348V235M91.041 219.674H121.693H91.041Z" stroke="#C696C8" stroke-width="2.27053" stroke-linecap="square"/>
<path d="M157.455 204.348V235M142.129 219.674H172.781H142.129Z" stroke="#C696C8" stroke-width="2.27053" stroke-linecap="square"/>
<path d="M208.541 204.348V235M193.215 219.674H223.867H193.215Z" stroke="#C696C8" stroke-width="2.27053" stroke-linecap="square"/>
<path d="M259.629 204.348V235M244.303 219.674H274.955H244.303Z" stroke="#C696C8" stroke-width="2.27053" stroke-linecap="square"/>
<path d="M310.715 204.348V235M295.389 219.674H326.041H295.389Z" stroke="#C696C8" stroke-width="2.27053" stroke-linecap="square"/>
<path d="M361.803 204.348V235M346.477 219.674H377.129H346.477Z" stroke="#C696C8" stroke-width="2.27053" stroke-linecap="square"/>
<path d="M412.889 204.348V235M397.562 219.674H428.215H397.562Z" stroke="#C696C8" stroke-width="2.27053" stroke-linecap="square"/>
<path d="M463.976 204.348V235M448.65 219.674H479.303H448.65Z" stroke="#C696C8" stroke-width="2.27053" stroke-linecap="square"/>
<path d="M515.062 204.348V235M499.736 219.674H530.389H499.736Z" stroke="#C696C8" stroke-width="2.27053" stroke-linecap="square"/>
<path d="M4.19327 255.435V286.087M-11.1328 270.761H19.5194H-11.1328Z" stroke="#C696C8" stroke-width="2.27053" stroke-linecap="square"/>
<path d="M55.2812 255.435V286.087M39.9551 270.761H70.6073H39.9551Z" stroke="#C696C8" stroke-width="2.27053" stroke-linecap="square"/>
<path d="M106.367 255.435V286.087M91.041 270.761H121.693H91.041Z" stroke="#C696C8" stroke-width="2.27053" stroke-linecap="square"/>
<path d="M157.455 255.435V286.087M142.129 270.761H172.781H142.129Z" stroke="#C696C8" stroke-width="2.27053" stroke-linecap="square"/>
<path d="M208.541 255.435V286.087M193.215 270.761H223.867H193.215Z" stroke="#C696C8" stroke-width="2.27053" stroke-linecap="square"/>
<path d="M259.629 255.435V286.087M244.303 270.761H274.955H244.303Z" stroke="#C696C8" stroke-width="2.27053" stroke-linecap="square"/>
<path d="M310.715 255.435V286.087M295.389 270.761H326.041H295.389Z" stroke="#C696C8" stroke-width="2.27053" stroke-linecap="square"/>
<path d="M361.803 255.435V286.087M346.477 270.761H377.129H346.477Z" stroke="#C696C8" stroke-width="2.27053" stroke-linecap="square"/>
<path d="M412.889 255.435V286.087M397.562 270.761H428.215H397.562Z" stroke="#C696C8" stroke-width="2.27053" stroke-linecap="square"/>
<path d="M463.976 255.435V286.087M448.65 270.761H479.303H448.65Z" stroke="#C696C8" stroke-width="2.27053" stroke-linecap="square"/>
<path d="M515.062 255.435V286.087M499.736 270.761H530.389H499.736Z" stroke="#C696C8" stroke-width="2.27053" stroke-linecap="square"/>
<path d="M4.19327 306.522V337.174M-11.1328 321.848H19.5194H-11.1328Z" stroke="#C696C8" stroke-width="2.27053" stroke-linecap="square"/>
<path d="M55.2812 306.522V337.174M39.9551 321.848H70.6073H39.9551Z" stroke="#C696C8" stroke-width="2.27053" stroke-linecap="square"/>
<path d="M106.367 306.522V337.174M91.041 321.848H121.693H91.041Z" stroke="#C696C8" stroke-width="2.27053" stroke-linecap="square"/>
<path d="M157.455 306.522V337.174M142.129 321.848H172.781H142.129Z" stroke="#C696C8" stroke-width="2.27053" stroke-linecap="square"/>
<path d="M208.541 306.522V337.174M193.215 321.848H223.867H193.215Z" stroke="#C696C8" stroke-width="2.27053" stroke-linecap="square"/>
<path d="M259.629 306.522V337.174M244.303 321.848H274.955H244.303Z" stroke="#C696C8" stroke-width="2.27053" stroke-linecap="square"/>
<path d="M310.715 306.522V337.174M295.389 321.848H326.041H295.389Z" stroke="#C696C8" stroke-width="2.27053" stroke-linecap="square"/>
<path d="M361.803 306.522V337.174M346.477 321.848H377.129H346.477Z" stroke="#C696C8" stroke-width="2.27053" stroke-linecap="square"/>
<path d="M412.889 306.522V337.174M397.562 321.848H428.215H397.562Z" stroke="#C696C8" stroke-width="2.27053" stroke-linecap="square"/>
<path d="M463.976 306.522V337.174M448.65 321.848H479.303H448.65Z" stroke="#C696C8" stroke-width="2.27053" stroke-linecap="square"/>
<path d="M515.062 306.522V337.174M499.736 321.848H530.389H499.736Z" stroke="#C696C8" stroke-width="2.27053" stroke-linecap="square"/>
<path d="M4.19327 357.609V388.261M-11.1328 372.935H19.5194H-11.1328Z" stroke="#C696C8" stroke-width="2.27053" stroke-linecap="square"/>
<path d="M55.2812 357.609V388.261M39.9551 372.935H70.6073H39.9551Z" stroke="#C696C8" stroke-width="2.27053" stroke-linecap="square"/>
<path d="M106.367 357.609V388.261M91.041 372.935H121.693H91.041Z" stroke="#C696C8" stroke-width="2.27053" stroke-linecap="square"/>
<path d="M157.455 357.609V388.261M142.129 372.935H172.781H142.129Z" stroke="#C696C8" stroke-width="2.27053" stroke-linecap="square"/>
<path d="M208.541 357.609V388.261M193.215 372.935H223.867H193.215Z" stroke="#C696C8" stroke-width="2.27053" stroke-linecap="square"/>
<path d="M259.629 357.609V388.261M244.303 372.935H274.955H244.303Z" stroke="#C696C8" stroke-width="2.27053" stroke-linecap="square"/>
<path d="M310.715 357.609V388.261M295.389 372.935H326.041H295.389Z" stroke="#C696C8" stroke-width="2.27053" stroke-linecap="square"/>
<path d="M361.803 357.609V388.261M346.477 372.935H377.129H346.477Z" stroke="#C696C8" stroke-width="2.27053" stroke-linecap="square"/>
<path d="M412.889 357.609V388.261M397.562 372.935H428.215H397.562Z" stroke="#C696C8" stroke-width="2.27053" stroke-linecap="square"/>
<path d="M463.976 357.609V388.261M448.65 372.935H479.303H448.65Z" stroke="#C696C8" stroke-width="2.27053" stroke-linecap="square"/>
<path d="M515.062 357.609V388.261M499.736 372.935H530.389H499.736Z" stroke="#C696C8" stroke-width="2.27053" stroke-linecap="square"/>
<path d="M4.19327 408.696V439.348M-11.1328 424.022H19.5194H-11.1328Z" stroke="#C696C8" stroke-width="2.27053" stroke-linecap="square"/>
<path d="M55.2812 408.696V439.348M39.9551 424.022H70.6073H39.9551Z" stroke="#C696C8" stroke-width="2.27053" stroke-linecap="square"/>
<path d="M106.367 408.696V439.348M91.041 424.022H121.693H91.041Z" stroke="#C696C8" stroke-width="2.27053" stroke-linecap="square"/>
<path d="M157.455 408.696V439.348M142.129 424.022H172.781H142.129Z" stroke="#C696C8" stroke-width="2.27053" stroke-linecap="square"/>
<path d="M208.541 408.696V439.348M193.215 424.022H223.867H193.215Z" stroke="#C696C8" stroke-width="2.27053" stroke-linecap="square"/>
<path d="M259.629 408.696V439.348M244.303 424.022H274.955H244.303Z" stroke="#C696C8" stroke-width="2.27053" stroke-linecap="square"/>
<path d="M310.715 408.696V439.348M295.389 424.022H326.041H295.389Z" stroke="#C696C8" stroke-width="2.27053" stroke-linecap="square"/>
<path d="M361.803 408.696V439.348M346.477 424.022H377.129H346.477Z" stroke="#C696C8" stroke-width="2.27053" stroke-linecap="square"/>
<path d="M412.889 408.696V439.348M397.562 424.022H428.215H397.562Z" stroke="#C696C8" stroke-width="2.27053" stroke-linecap="square"/>
<path d="M463.976 408.696V439.348M448.65 424.022H479.303H448.65Z" stroke="#C696C8" stroke-width="2.27053" stroke-linecap="square"/>
<path d="M515.062 408.696V439.348M499.736 424.022H530.389H499.736Z" stroke="#C696C8" stroke-width="2.27053" stroke-linecap="square"/>
<path d="M4.19327 459.782V490.435M-11.1328 475.109H19.5194H-11.1328Z" stroke="#C696C8" stroke-width="2.27053" stroke-linecap="square"/>
<path d="M55.2812 459.782V490.435M39.9551 475.109H70.6073H39.9551Z" stroke="#C696C8" stroke-width="2.27053" stroke-linecap="square"/>
<path d="M106.367 459.782V490.435M91.041 475.109H121.693H91.041Z" stroke="#C696C8" stroke-width="2.27053" stroke-linecap="square"/>
<path d="M157.455 459.782V490.435M142.129 475.109H172.781H142.129Z" stroke="#C696C8" stroke-width="2.27053" stroke-linecap="square"/>
<path d="M208.541 459.782V490.435M193.215 475.109H223.867H193.215Z" stroke="#C696C8" stroke-width="2.27053" stroke-linecap="square"/>
<path d="M259.629 459.782V490.435M244.303 475.109H274.955H244.303Z" stroke="#C696C8" stroke-width="2.27053" stroke-linecap="square"/>
<path d="M310.715 459.782V490.435M295.389 475.109H326.041H295.389Z" stroke="#C696C8" stroke-width="2.27053" stroke-linecap="square"/>
<path d="M361.803 459.782V490.435M346.477 475.109H377.129H346.477Z" stroke="#C696C8" stroke-width="2.27053" stroke-linecap="square"/>
<path d="M412.889 459.782V490.435M397.562 475.109H428.215H397.562Z" stroke="#C696C8" stroke-width="2.27053" stroke-linecap="square"/>
<path d="M463.976 459.782V490.435M448.65 475.109H479.303H448.65Z" stroke="#C696C8" stroke-width="2.27053" stroke-linecap="square"/>
<path d="M515.062 459.782V490.435M499.736 475.109H530.389H499.736Z" stroke="#C696C8" stroke-width="2.27053" stroke-linecap="square"/>
<path d="M4.19327 510.87V541.522M-11.1328 526.196H19.5194H-11.1328Z" stroke="#C696C8" stroke-width="2.27053" stroke-linecap="square"/>
<path d="M55.2812 510.87V541.522M39.9551 526.196H70.6073H39.9551Z" stroke="#C696C8" stroke-width="2.27053" stroke-linecap="square"/>
<path d="M106.367 510.87V541.522M91.041 526.196H121.693H91.041Z" stroke="#C696C8" stroke-width="2.27053" stroke-linecap="square"/>
<path d="M157.455 510.87V541.522M142.129 526.196H172.781H142.129Z" stroke="#C696C8" stroke-width="2.27053" stroke-linecap="square"/>
<path d="M208.541 510.87V541.522M193.215 526.196H223.867H193.215Z" stroke="#C696C8" stroke-width="2.27053" stroke-linecap="square"/>
<path d="M259.629 510.87V541.522M244.303 526.196H274.955H244.303Z" stroke="#C696C8" stroke-width="2.27053" stroke-linecap="square"/>
<path d="M310.715 510.87V541.522M295.389 526.196H326.041H295.389Z" stroke="#C696C8" stroke-width="2.27053" stroke-linecap="square"/>
<path d="M361.803 510.87V541.522M346.477 526.196H377.129H346.477Z" stroke="#C696C8" stroke-width="2.27053" stroke-linecap="square"/>
<path d="M412.889 510.87V541.522M397.562 526.196H428.215H397.562Z" stroke="#C696C8" stroke-width="2.27053" stroke-linecap="square"/>
<path d="M463.976 510.87V541.522M448.65 526.196H479.303H448.65Z" stroke="#C696C8" stroke-width="2.27053" stroke-linecap="square"/>
<path d="M515.062 510.87V541.522M499.736 526.196H530.389H499.736Z" stroke="#C696C8" stroke-width="2.27053" stroke-linecap="square"/>
<path d="M4.19327 561.957V592.609M-11.1328 577.283H19.5194H-11.1328Z" stroke="#C696C8" stroke-width="2.27053" stroke-linecap="square"/>
<path d="M55.2812 561.957V592.609M39.9551 577.283H70.6073H39.9551Z" stroke="#C696C8" stroke-width="2.27053" stroke-linecap="square"/>
<path d="M106.367 561.957V592.609M91.041 577.283H121.693H91.041Z" stroke="#C696C8" stroke-width="2.27053" stroke-linecap="square"/>
<path d="M157.455 561.957V592.609M142.129 577.283H172.781H142.129Z" stroke="#C696C8" stroke-width="2.27053" stroke-linecap="square"/>
<path d="M208.541 561.957V592.609M193.215 577.283H223.867H193.215Z" stroke="#C696C8" stroke-width="2.27053" stroke-linecap="square"/>
<path d="M259.629 561.957V592.609M244.303 577.283H274.955H244.303Z" stroke="#C696C8" stroke-width="2.27053" stroke-linecap="square"/>
<path d="M310.715 561.957V592.609M295.389 577.283H326.041H295.389Z" stroke="#C696C8" stroke-width="2.27053" stroke-linecap="square"/>
<path d="M361.803 561.957V592.609M346.477 577.283H377.129H346.477Z" stroke="#C696C8" stroke-width="2.27053" stroke-linecap="square"/>
<path d="M412.889 561.957V592.609M397.562 577.283H428.215H397.562Z" stroke="#C696C8" stroke-width="2.27053" stroke-linecap="square"/>
<path d="M463.976 561.957V592.609M448.65 577.283H479.303H448.65Z" stroke="#C696C8" stroke-width="2.27053" stroke-linecap="square"/>
<path d="M515.062 561.957V592.609M499.736 577.283H530.389H499.736Z" stroke="#C696C8" stroke-width="2.27053" stroke-linecap="square"/>
<path d="M4.19327 613.043V643.696M-11.1328 628.37H19.5194H-11.1328Z" stroke="#C696C8" stroke-width="2.27053" stroke-linecap="square"/>
<path d="M55.2812 613.043V643.696M39.9551 628.37H70.6073H39.9551Z" stroke="#C696C8" stroke-width="2.27053" stroke-linecap="square"/>
<path d="M106.367 613.043V643.696M91.041 628.37H121.693H91.041Z" stroke="#C696C8" stroke-width="2.27053" stroke-linecap="square"/>
<path d="M157.455 613.043V643.696M142.129 628.37H172.781H142.129Z" stroke="#C696C8" stroke-width="2.27053" stroke-linecap="square"/>
<path d="M208.541 613.043V643.696M193.215 628.37H223.867H193.215Z" stroke="#C696C8" stroke-width="2.27053" stroke-linecap="square"/>
<path d="M259.629 613.043V643.696M244.303 628.37H274.955H244.303Z" stroke="#C696C8" stroke-width="2.27053" stroke-linecap="square"/>
<path d="M310.715 613.043V643.696M295.389 628.37H326.041H295.389Z" stroke="#C696C8" stroke-width="2.27053" stroke-linecap="square"/>
<path d="M361.803 613.043V643.696M346.477 628.37H377.129H346.477Z" stroke="#C696C8" stroke-width="2.27053" stroke-linecap="square"/>
<path d="M412.889 613.043V643.696M397.562 628.37H428.215H397.562Z" stroke="#C696C8" stroke-width="2.27053" stroke-linecap="square"/>
<path d="M463.976 613.043V643.696M448.65 628.37H479.303H448.65Z" stroke="#C696C8" stroke-width="2.27053" stroke-linecap="square"/>
<path d="M515.062 613.043V643.696M499.736 628.37H530.389H499.736Z" stroke="#C696C8" stroke-width="2.27053" stroke-linecap="square"/>
<path d="M4.19327 664.13V694.783M-11.1328 679.456H19.5194H-11.1328Z" stroke="#C696C8" stroke-width="2.27053" stroke-linecap="square"/>
<path d="M55.2812 664.13V694.783M39.9551 679.456H70.6073H39.9551Z" stroke="#C696C8" stroke-width="2.27053" stroke-linecap="square"/>
<path d="M106.367 664.13V694.783M91.041 679.456H121.693H91.041Z" stroke="#C696C8" stroke-width="2.27053" stroke-linecap="square"/>
<path d="M157.455 664.13V694.783M142.129 679.456H172.781H142.129Z" stroke="#C696C8" stroke-width="2.27053" stroke-linecap="square"/>
<path d="M208.541 664.13V694.783M193.215 679.456H223.867H193.215Z" stroke="#C696C8" stroke-width="2.27053" stroke-linecap="square"/>
<path d="M259.629 664.13V694.783M244.303 679.456H274.955H244.303Z" stroke="#C696C8" stroke-width="2.27053" stroke-linecap="square"/>
<path d="M310.715 664.13V694.783M295.389 679.456H326.041H295.389Z" stroke="#C696C8" stroke-width="2.27053" stroke-linecap="square"/>
<path d="M361.803 664.13V694.783M346.477 679.456H377.129H346.477Z" stroke="#C696C8" stroke-width="2.27053" stroke-linecap="square"/>
<path d="M412.889 664.13V694.783M397.562 679.456H428.215H397.562Z" stroke="#C696C8" stroke-width="2.27053" stroke-linecap="square"/>
<path d="M463.976 664.13V694.783M448.65 679.456H479.303H448.65Z" stroke="#C696C8" stroke-width="2.27053" stroke-linecap="square"/>
<path d="M515.062 664.13V694.783M499.736 679.456H530.389H499.736Z" stroke="#C696C8" stroke-width="2.27053" stroke-linecap="square"/>
<path d="M4.19327 715.217V745.869M-11.1328 730.543H19.5194H-11.1328Z" stroke="#C696C8" stroke-width="2.27053" stroke-linecap="square"/>
<path d="M55.2812 715.217V745.869M39.9551 730.543H70.6073H39.9551Z" stroke="#C696C8" stroke-width="2.27053" stroke-linecap="square"/>
<path d="M106.367 715.217V745.869M91.041 730.543H121.693H91.041Z" stroke="#C696C8" stroke-width="2.27053" stroke-linecap="square"/>
<path d="M157.455 715.217V745.869M142.129 730.543H172.781H142.129Z" stroke="#C696C8" stroke-width="2.27053" stroke-linecap="square"/>
<path d="M208.541 715.217V745.869M193.215 730.543H223.867H193.215Z" stroke="#C696C8" stroke-width="2.27053" stroke-linecap="square"/>
<path d="M259.629 715.217V745.869M244.303 730.543H274.955H244.303Z" stroke="#C696C8" stroke-width="2.27053" stroke-linecap="square"/>
<path d="M310.715 715.217V745.869M295.389 730.543H326.041H295.389Z" stroke="#C696C8" stroke-width="2.27053" stroke-linecap="square"/>
<path d="M361.803 715.217V745.869M346.477 730.543H377.129H346.477Z" stroke="#C696C8" stroke-width="2.27053" stroke-linecap="square"/>
<path d="M412.889 715.217V745.869M397.562 730.543H428.215H397.562Z" stroke="#C696C8" stroke-width="2.27053" stroke-linecap="square"/>
<path d="M463.976 715.217V745.869M448.65 730.543H479.303H448.65Z" stroke="#C696C8" stroke-width="2.27053" stroke-linecap="square"/>
<path d="M515.062 715.217V745.869M499.736 730.543H530.389H499.736Z" stroke="#C696C8" stroke-width="2.27053" stroke-linecap="square"/>
<path d="M4.19327 766.304V796.957M-11.1328 781.631H19.5194H-11.1328Z" stroke="#C696C8" stroke-width="2.27053" stroke-linecap="square"/>
<path d="M55.2812 766.304V796.957M39.9551 781.631H70.6073H39.9551Z" stroke="#C696C8" stroke-width="2.27053" stroke-linecap="square"/>
<path d="M106.367 766.304V796.957M91.041 781.631H121.693H91.041Z" stroke="#C696C8" stroke-width="2.27053" stroke-linecap="square"/>
<path d="M157.455 766.304V796.957M142.129 781.631H172.781H142.129Z" stroke="#C696C8" stroke-width="2.27053" stroke-linecap="square"/>
<path d="M208.541 766.304V796.957M193.215 781.631H223.867H193.215Z" stroke="#C696C8" stroke-width="2.27053" stroke-linecap="square"/>
<path d="M259.629 766.304V796.957M244.303 781.631H274.955H244.303Z" stroke="#C696C8" stroke-width="2.27053" stroke-linecap="square"/>
<path d="M310.715 766.304V796.957M295.389 781.631H326.041H295.389Z" stroke="#C696C8" stroke-width="2.27053" stroke-linecap="square"/>
<path d="M361.803 766.304V796.957M346.477 781.631H377.129H346.477Z" stroke="#C696C8" stroke-width="2.27053" stroke-linecap="square"/>
<path d="M412.889 766.304V796.957M397.562 781.631H428.215H397.562Z" stroke="#C696C8" stroke-width="2.27053" stroke-linecap="square"/>
<path d="M463.976 766.304V796.957M448.65 781.631H479.303H448.65Z" stroke="#C696C8" stroke-width="2.27053" stroke-linecap="square"/>
<path d="M515.062 766.304V796.957M499.736 781.631H530.389H499.736Z" stroke="#C696C8" stroke-width="2.27053" stroke-linecap="square"/>
<path d="M4.19327 817.391V848.044M-11.1328 832.717H19.5194H-11.1328Z" stroke="#C696C8" stroke-width="2.27053" stroke-linecap="square"/>
<path d="M55.2812 817.391V848.044M39.9551 832.717H70.6073H39.9551Z" stroke="#C696C8" stroke-width="2.27053" stroke-linecap="square"/>
<path d="M106.367 817.391V848.044M91.041 832.717H121.693H91.041Z" stroke="#C696C8" stroke-width="2.27053" stroke-linecap="square"/>
<path d="M157.455 817.391V848.044M142.129 832.717H172.781H142.129Z" stroke="#C696C8" stroke-width="2.27053" stroke-linecap="square"/>
<path d="M208.541 817.391V848.044M193.215 832.717H223.867H193.215Z" stroke="#C696C8" stroke-width="2.27053" stroke-linecap="square"/>
<path d="M259.629 817.391V848.044M244.303 832.717H274.955H244.303Z" stroke="#C696C8" stroke-width="2.27053" stroke-linecap="square"/>
<path d="M310.715 817.391V848.044M295.389 832.717H326.041H295.389Z" stroke="#C696C8" stroke-width="2.27053" stroke-linecap="square"/>
<path d="M361.803 817.391V848.044M346.477 832.717H377.129H346.477Z" stroke="#C696C8" stroke-width="2.27053" stroke-linecap="square"/>
<path d="M412.889 817.391V848.044M397.562 832.717H428.215H397.562Z" stroke="#C696C8" stroke-width="2.27053" stroke-linecap="square"/>
<path d="M463.976 817.391V848.044M448.65 832.717H479.303H448.65Z" stroke="#C696C8" stroke-width="2.27053" stroke-linecap="square"/>
<path d="M515.062 817.391V848.044M499.736 832.717H530.389H499.736Z" stroke="#C696C8" stroke-width="2.27053" stroke-linecap="square"/>
<path d="M4.19327 868.478V899.13M-11.1328 883.804H19.5194H-11.1328Z" stroke="#C696C8" stroke-width="2.27053" stroke-linecap="square"/>
<path d="M55.2812 868.478V899.13M39.9551 883.804H70.6073H39.9551Z" stroke="#C696C8" stroke-width="2.27053" stroke-linecap="square"/>
<path d="M106.367 868.478V899.13M91.041 883.804H121.693H91.041Z" stroke="#C696C8" stroke-width="2.27053" stroke-linecap="square"/>
<path d="M157.455 868.478V899.13M142.129 883.804H172.781H142.129Z" stroke="#C696C8" stroke-width="2.27053" stroke-linecap="square"/>
<path d="M208.541 868.478V899.13M193.215 883.804H223.867H193.215Z" stroke="#C696C8" stroke-width="2.27053" stroke-linecap="square"/>
<path d="M259.629 868.478V899.13M244.303 883.804H274.955H244.303Z" stroke="#C696C8" stroke-width="2.27053" stroke-linecap="square"/>
<path d="M310.715 868.478V899.13M295.389 883.804H326.041H295.389Z" stroke="#C696C8" stroke-width="2.27053" stroke-linecap="square"/>
<path d="M361.803 868.478V899.13M346.477 883.804H377.129H346.477Z" stroke="#C696C8" stroke-width="2.27053" stroke-linecap="square"/>
<path d="M412.889 868.478V899.13M397.562 883.804H428.215H397.562Z" stroke="#C696C8" stroke-width="2.27053" stroke-linecap="square"/>
<path d="M463.976 868.478V899.13M448.65 883.804H479.303H448.65Z" stroke="#C696C8" stroke-width="2.27053" stroke-linecap="square"/>
<path d="M515.062 868.478V899.13M499.736 883.804H530.389H499.736Z" stroke="#C696C8" stroke-width="2.27053" stroke-linecap="square"/>
</g>
<mask id="mask1_305_409" style="mask-type:alpha" maskUnits="userSpaceOnUse" x="-1" y="0" width="525" height="986">
<rect x="-0.5" width="524.356" height="985.423" fill="#71207D"/>
</mask>
<g mask="url(#mask1_305_409)">
<rect x="-0.5" width="524.356" height="985.423" fill="#71207D"/>
<circle cx="93.5" cy="140" r="189" fill="#8D2D91"/>
<circle cx="120.309" cy="827" r="189" fill="#FEC4B3"/>
<circle cx="440.309" cy="899" r="189" fill="#FE7971"/>
<circle cx="336.309" cy="-21" r="189" fill="#BC5BBA"/>
</g>
</g>
<defs>
<clipPath id="clip0_305_409">
<rect width="524.36" height="900" fill="white"/>
</clipPath>
</defs>
</svg>
