<svg width="24" height="25" viewBox="0 0 24 25" fill="none" xmlns="http://www.w3.org/2000/svg">
<path d="M12.01 2.5C6.49002 2.5 2.02002 6.98 2.02002 12.5C2.02002 18.02 6.49002 22.5 12.01 22.5C17.54 22.5 22.02 18.02 22.02 12.5C22.02 6.98 17.54 2.5 12.01 2.5ZM12.02 20.5C7.60002 20.5 4.02002 16.92 4.02002 12.5C4.02002 8.08 7.60002 4.5 12.02 4.5C16.44 4.5 20.02 8.08 20.02 12.5C20.02 16.92 16.44 20.5 12.02 20.5ZM15.52 11.5C16.35 11.5 17.02 10.83 17.02 10C17.02 9.17 16.35 8.5 15.52 8.5C14.69 8.5 14.02 9.17 14.02 10C14.02 10.83 14.69 11.5 15.52 11.5ZM8.52002 11.5C9.35002 11.5 10.02 10.83 10.02 10C10.02 9.17 9.35002 8.5 8.52002 8.5C7.69002 8.5 7.02002 9.17 7.02002 10C7.02002 10.83 7.69002 11.5 8.52002 11.5ZM12.02 18C14.05 18 15.82 16.89 16.77 15.25C16.96 14.92 16.72 14.5 16.33 14.5H7.71002C7.33002 14.5 7.08002 14.92 7.27002 15.25C8.22002 16.89 9.99002 18 12.02 18Z" fill="#14202D"/>
</svg>
