<svg width="244" height="231" viewBox="0 0 244 231" fill="none" xmlns="http://www.w3.org/2000/svg">
<path d="M228.963 174.27L24.2353 148.879C23.6854 148.561 23.4111 148.146 23.4118 147.73C23.4024 151.011 23.3937 154.29 23.3843 157.57C23.3829 157.985 23.6565 158.401 24.2071 158.719L146.853 229.529C147.941 230.157 149.699 230.157 150.779 229.529L228.936 184.11C229.473 183.798 229.741 183.389 229.742 182.98C229.752 179.7 229.76 176.421 229.77 173.14C229.769 173.549 229.5 173.958 228.963 174.27Z" fill="#8D2D92" fill-opacity="0.19" stroke="#8D2D92" stroke-miterlimit="10" stroke-linejoin="round"/>
<path d="M228.951 171.996C230.038 172.623 230.044 173.642 228.963 174.27L150.807 219.69C149.727 220.317 147.969 220.318 146.881 219.69L24.2354 148.879C23.1436 148.25 23.1376 147.23 24.2179 146.603L102.374 101.183C103.455 100.556 105.213 100.556 106.305 101.186L228.951 171.996Z" fill="white" stroke="#8D2D92" stroke-miterlimit="10" stroke-linejoin="round"/>
<path d="M80.7134 162.418C79.7826 161.88 78.6354 161.882 77.7061 162.422L72.6941 165.335C70.7007 166.493 70.7047 169.374 72.7014 170.526L80.6702 175.128C81.6011 175.665 82.7484 175.663 83.6777 175.123L88.6901 172.21C90.6836 171.052 90.6794 168.171 88.6827 167.018L80.7134 162.418Z" fill="#8D2D92"/>
<path d="M118.312 191.673C116.319 192.832 116.323 195.712 118.32 196.865L126.288 201.466C127.219 202.003 128.366 202.001 129.296 201.461L134.308 198.549C136.302 197.39 136.298 194.51 134.301 193.357L126.333 188.756C125.402 188.218 124.255 188.22 123.326 188.76L118.312 191.673Z" fill="#8D2D92"/>
<path d="M95.9072 171.191C94.9764 170.654 93.8293 170.655 92.9 171.195L87.8882 174.108C85.8947 175.266 85.8988 178.147 87.8956 179.3L95.8923 183.917C96.8231 184.454 97.9703 184.452 98.8996 183.912L103.912 181C105.905 179.841 105.901 176.961 103.904 175.808L95.9072 171.191Z" fill="#8D2D92"/>
<path d="M111.132 179.979C110.201 179.442 109.054 179.443 108.124 179.984L103.112 182.897C101.118 184.055 101.122 186.936 103.119 188.089L111.094 192.693C112.025 193.23 113.172 193.228 114.101 192.688L119.114 189.776C121.107 188.617 121.103 185.737 119.106 184.584L111.132 179.979Z" fill="#8D2D92"/>
<path d="M140.695 159.624C142.689 158.466 142.685 155.585 140.688 154.433L132.691 149.815C131.76 149.278 130.613 149.279 129.684 149.819L124.672 152.732C122.678 153.89 122.682 156.771 124.679 157.924L132.676 162.541C133.607 163.079 134.754 163.077 135.684 162.537L140.695 159.624Z" fill="#8D2D92"/>
<path d="M155.896 168.4C157.89 167.241 157.886 164.361 155.889 163.208L147.914 158.603C146.983 158.066 145.836 158.068 144.907 158.608L139.894 161.521C137.901 162.68 137.905 165.56 139.902 166.713L147.877 171.317C148.808 171.854 149.955 171.852 150.884 171.312L155.896 168.4Z" fill="#8D2D92"/>
<path d="M65.5122 153.641C64.5814 153.104 63.4342 153.106 62.5049 153.646L57.4929 156.558C55.4995 157.717 55.5035 160.597 57.5002 161.75L65.469 166.351C66.3999 166.889 67.5472 166.887 68.4765 166.347L73.489 163.434C75.4824 162.275 75.4783 159.395 73.4815 158.242L65.5122 153.641Z" fill="#8D2D92"/>
<path d="M94.2761 135.182C92.2826 136.341 92.2867 139.221 94.2835 140.374L102.252 144.975C103.183 145.512 104.331 145.51 105.26 144.97L110.272 142.058C112.265 140.899 112.261 138.019 110.264 136.866L102.296 132.265C101.365 131.728 100.218 131.73 99.2883 132.27L94.2761 135.182Z" fill="#8D2D92"/>
<path d="M109.477 143.959C107.483 145.117 107.487 147.998 109.484 149.151L117.453 153.752C118.384 154.289 119.531 154.287 120.461 153.747L125.473 150.834C127.466 149.676 127.462 146.795 125.465 145.642L117.496 141.042C116.565 140.504 115.418 140.506 114.489 141.046L109.477 143.959Z" fill="#8D2D92"/>
<path d="M114.507 137.854C115.438 138.392 116.585 138.39 117.515 137.85L122.527 134.937C124.521 133.778 124.516 130.898 122.52 129.745L114.551 125.144C113.62 124.607 112.473 124.608 111.544 125.148L106.531 128.061C104.538 129.22 104.542 132.1 106.538 133.253L114.507 137.854Z" fill="#8D2D92"/>
<path d="M144.93 155.419C145.861 155.956 147.008 155.954 147.938 155.414L152.95 152.502C154.943 151.343 154.939 148.463 152.942 147.31L144.945 142.693C144.015 142.156 142.867 142.157 141.938 142.697L136.926 145.61C134.933 146.768 134.937 149.649 136.934 150.802L144.93 155.419Z" fill="#8D2D92"/>
<path d="M129.707 146.63C130.638 147.167 131.785 147.166 132.715 146.626L137.727 143.713C139.721 142.554 139.716 139.673 137.719 138.521L129.75 133.92C128.82 133.383 127.673 133.385 126.743 133.925L121.732 136.837C119.738 137.995 119.742 140.876 121.739 142.029L129.707 146.63Z" fill="#8D2D92"/>
<path d="M107.331 126.163C109.325 125.004 109.321 122.124 107.324 120.971L99.3551 116.371C98.4243 115.833 97.2772 115.835 96.3479 116.375L91.3357 119.288C89.3422 120.446 89.3462 123.327 91.3431 124.48L99.312 129.08C100.243 129.618 101.39 129.616 102.319 129.076L107.331 126.163Z" fill="#8D2D92"/>
<path d="M160.131 164.195C161.062 164.732 162.209 164.73 163.138 164.19L168.151 161.278C170.144 160.119 170.14 157.239 168.143 156.086L160.169 151.481C159.238 150.944 158.091 150.945 157.161 151.486L152.149 154.399C150.155 155.557 150.159 158.438 152.156 159.59L160.131 164.195Z" fill="#8D2D92"/>
<path d="M175.37 160.257C174.439 159.72 173.292 159.722 172.363 160.262L167.351 163.174C165.357 164.333 165.361 167.213 167.358 168.366L175.327 172.967C176.257 173.504 177.405 173.503 178.334 172.963L183.346 170.05C185.34 168.892 185.336 166.011 183.339 164.858L175.37 160.257Z" fill="#8D2D92"/>
<path d="M155.095 170.297C153.102 171.456 153.106 174.336 155.102 175.489L163.071 180.09C164.002 180.627 165.149 180.625 166.078 180.085L171.091 177.173C173.084 176.014 173.08 173.134 171.084 171.981L163.115 167.38C162.184 166.842 161.037 166.844 160.108 167.384L155.095 170.297Z" fill="#8D2D92"/>
<path d="M95.0763 133.286C97.0698 132.128 97.0658 129.247 95.0691 128.094L87.1003 123.493C86.1695 122.955 85.0223 122.957 84.0929 123.497L79.0805 126.41C77.0871 127.568 77.0911 130.449 79.0877 131.602L87.0565 136.203C87.9873 136.74 89.1346 136.739 90.0639 136.199L95.0763 133.286Z" fill="#8D2D92"/>
<path d="M69.7486 149.435C67.7551 150.594 67.7591 153.474 69.7559 154.627L77.725 159.228C78.6559 159.766 79.8032 159.764 80.7326 159.224L85.7446 156.311C87.738 155.152 87.7338 152.272 85.7372 151.119L77.7682 146.518C76.8374 145.981 75.6903 145.982 74.761 146.522L69.7486 149.435Z" fill="#8D2D92"/>
<path d="M82.8213 140.407C84.8148 139.249 84.8107 136.368 82.814 135.215L74.8446 130.614C73.9138 130.077 72.7666 130.078 71.8373 130.618L66.808 133.541C64.8146 134.699 64.8186 137.58 66.8153 138.733L74.7847 143.334C75.7155 143.871 76.8628 143.87 77.7921 143.33L82.8213 140.407Z" fill="#8D2D92"/>
<path d="M50.3174 144.869C49.3866 144.331 48.2394 144.333 47.3101 144.873L42.2981 147.786C40.3047 148.944 40.3087 151.825 42.3054 152.978L50.2743 157.579C51.2051 158.116 52.3523 158.115 53.2817 157.575L58.294 154.662C60.2875 153.504 60.2834 150.623 58.2867 149.47L50.3174 144.869Z" fill="#8D2D92"/>
<path d="M70.5495 147.539C72.5429 146.381 72.5388 143.5 70.542 142.348L62.5728 137.747C61.642 137.209 60.4948 137.211 59.5655 137.751L54.5535 140.664C52.56 141.822 52.5641 144.703 54.5607 145.856L62.5296 150.457C63.4604 150.994 64.6077 150.993 65.5371 150.452L70.5495 147.539Z" fill="#8D2D92"/>
<path d="M82.0032 142.314C80.0098 143.473 80.0138 146.353 82.0105 147.506L89.9793 152.107C90.9102 152.645 92.0574 152.643 92.9868 152.103L98.0161 149.181C100.01 148.022 100.005 145.142 98.0088 143.989L90.04 139.387C89.1091 138.85 87.9619 138.852 87.0325 139.392L82.0032 142.314Z" fill="#8D2D92"/>
<path d="M100.944 165.087C102.938 163.929 102.934 161.048 100.937 159.895L92.9684 155.295C92.0376 154.757 90.8905 154.759 89.9612 155.299L84.949 158.211C82.9554 159.37 82.9595 162.251 84.9563 163.403L92.9254 168.004C93.8562 168.541 95.0034 168.54 95.9326 168L100.944 165.087Z" fill="#8D2D92"/>
<path d="M116.169 173.877C118.162 172.719 118.158 169.838 116.161 168.685L108.164 164.068C107.233 163.531 106.086 163.532 105.157 164.072L100.145 166.985C98.1511 168.143 98.1552 171.024 100.152 172.177L108.149 176.794C109.08 177.332 110.227 177.33 111.157 176.79L116.169 173.877Z" fill="#8D2D92"/>
<path d="M131.368 182.654C133.362 181.495 133.358 178.615 131.361 177.462L123.386 172.857C122.455 172.32 121.308 172.321 120.379 172.861L115.366 175.775C113.373 176.933 113.377 179.814 115.374 180.966L123.349 185.571C124.28 186.108 125.427 186.106 126.356 185.566L131.368 182.654Z" fill="#8D2D92"/>
<path d="M130.568 184.55C128.575 185.709 128.579 188.59 130.575 189.742L138.544 194.343C139.475 194.881 140.623 194.879 141.552 194.339L146.564 191.427C148.557 190.268 148.553 187.388 146.557 186.235L138.588 181.634C137.657 181.096 136.51 181.098 135.581 181.638L130.568 184.55Z" fill="#8D2D92"/>
<path d="M142.824 177.428C140.83 178.586 140.834 181.467 142.831 182.619L150.799 187.22C151.73 187.757 152.877 187.756 153.806 187.216L158.836 184.293C160.829 183.135 160.825 180.254 158.828 179.101L150.86 174.501C149.929 173.963 148.782 173.965 147.853 174.505L142.824 177.428Z" fill="#8D2D92"/>
<path d="M97.2042 151.091C95.2108 152.249 95.2149 155.13 97.2115 156.283L105.18 160.884C106.111 161.421 107.259 161.42 108.188 160.879L113.217 157.956C115.211 156.798 115.207 153.917 113.21 152.765L105.24 148.164C104.31 147.626 103.162 147.628 102.233 148.168L97.2042 151.091Z" fill="#8D2D92"/>
<path d="M143.641 175.521C145.635 174.362 145.631 171.482 143.634 170.329L135.659 165.724C134.728 165.187 133.581 165.189 132.652 165.729L127.622 168.651C125.629 169.81 125.633 172.69 127.63 173.843L135.604 178.448C136.535 178.985 137.683 178.984 138.612 178.443L143.641 175.521Z" fill="#8D2D92"/>
<path d="M128.44 166.745C130.433 165.586 130.429 162.706 128.433 161.553L120.436 156.936C119.505 156.399 118.358 156.4 117.429 156.94L112.399 159.863C110.406 161.022 110.41 163.902 112.407 165.055L120.404 169.672C121.334 170.209 122.482 170.208 123.411 169.667L128.44 166.745Z" fill="#8D2D92"/>
<path d="M133.508 200.446C131.514 201.605 131.518 204.486 133.515 205.638L141.489 210.242C142.42 210.779 143.567 210.778 144.496 210.238L149.509 207.325C151.502 206.166 151.498 203.286 149.502 202.133L141.528 197.529C140.597 196.992 139.45 196.993 138.52 197.533L133.508 200.446Z" fill="#FB8395"/>
<path d="M190.566 169.031C189.635 168.494 188.488 168.495 187.558 169.035L182.546 171.948C180.552 173.106 180.556 175.987 182.553 177.14L190.527 181.744C191.458 182.282 192.605 182.28 193.535 181.74L198.547 178.827C200.541 177.669 200.537 174.788 198.54 173.635L190.566 169.031Z" fill="#FB8395"/>
<path d="M158.018 186.203C156.024 187.362 156.028 190.242 158.025 191.395L165.999 195.999C166.93 196.537 168.077 196.535 169.007 195.995L174.036 193.072C176.03 191.914 176.026 189.034 174.029 187.881L166.055 183.276C165.124 182.739 163.977 182.74 163.047 183.28L158.018 186.203Z" fill="#FB8395"/>
<path d="M170.291 179.07C168.297 180.228 168.301 183.109 170.298 184.261L178.272 188.865C179.203 189.403 180.35 189.401 181.28 188.861L186.292 185.948C188.286 184.79 188.282 181.909 186.285 180.757L178.31 176.152C177.379 175.615 176.232 175.616 175.303 176.156L170.291 179.07Z" fill="#FB8395"/>
<path d="M145.764 193.324C143.77 194.483 143.774 197.363 145.771 198.516L153.745 203.12C154.676 203.658 155.823 203.656 156.753 203.116L161.765 200.203C163.758 199.045 163.754 196.164 161.758 195.012L153.783 190.407C152.852 189.87 151.705 189.871 150.776 190.411L145.764 193.324Z" fill="#FB8395"/>
<path d="M107.927 123.242C108.075 123.156 108.149 123.061 108.145 122.96C108.147 122.856 108.07 122.758 107.914 122.669C107.758 122.578 107.59 122.534 107.41 122.535C107.235 122.534 107.072 122.577 106.923 122.663L106.355 122.993C106.201 123.083 106.126 123.178 106.13 123.279C106.127 123.383 106.205 123.481 106.361 123.571C106.516 123.661 106.684 123.705 106.865 123.703C107.039 123.705 107.204 123.661 107.357 123.573L107.927 123.242ZM106.836 123.469C106.757 123.47 106.684 123.455 106.624 123.419C106.562 123.383 106.535 123.341 106.536 123.296C106.531 123.253 106.571 123.21 106.633 123.174L107.225 122.83C107.292 122.79 107.361 122.771 107.439 122.77C107.518 122.769 107.591 122.785 107.652 122.82C107.713 122.856 107.74 122.897 107.74 122.944C107.739 122.988 107.705 123.029 107.637 123.068L107.045 123.412C106.983 123.449 106.909 123.472 106.836 123.469Z" fill="#8D2D92"/>
<path d="M109.083 123.375L109.071 123.361L108.816 123.214L108.782 123.201L108.456 123.133L108.412 123.139L108.23 123.251L108.224 123.274L108.234 123.28L108.497 123.366L108.509 123.373L108.497 123.38L107.32 124.064L107.314 124.08L107.325 124.093L107.57 124.235L107.593 124.241L107.621 124.237L109.076 123.391L109.083 123.375Z" fill="#8D2D92"/>
<path d="M122.893 131.882C123.041 131.796 123.115 131.701 123.111 131.6C123.113 131.496 123.037 131.398 122.881 131.309C122.725 131.218 122.557 131.175 122.376 131.176C122.202 131.174 122.039 131.218 121.89 131.303L121.322 131.633C121.168 131.723 121.092 131.818 121.096 131.919C121.094 132.023 121.171 132.121 121.328 132.211C121.483 132.301 121.651 132.345 121.831 132.343C122.006 132.345 122.171 132.302 122.324 132.213L122.893 131.882ZM121.803 132.109C121.724 132.11 121.651 132.095 121.591 132.059C121.529 132.023 121.501 131.982 121.502 131.936C121.503 131.897 121.538 131.851 121.6 131.814L122.191 131.47C122.26 131.431 122.334 131.414 122.406 131.41C122.484 131.409 122.558 131.425 122.619 131.46C122.68 131.496 122.707 131.537 122.706 131.584C122.706 131.629 122.671 131.669 122.603 131.708L122.012 132.052C121.95 132.089 121.876 132.113 121.803 132.109Z" fill="#8D2D92"/>
<path d="M124.255 132.176C124.222 132.111 124.156 132.047 124.061 131.992C123.966 131.937 123.872 131.902 123.765 131.88C123.665 131.855 123.557 131.846 123.456 131.86C123.355 131.868 123.264 131.894 123.179 131.937L123.077 131.996L123.065 132.01L123.077 132.023L123.327 132.168L123.349 132.175L123.378 132.171L123.435 132.138L123.61 132.094C123.677 132.093 123.744 132.112 123.8 132.144C123.856 132.177 123.883 132.212 123.883 132.251L123.813 132.356C123.744 132.396 123.57 132.419 123.299 132.428L123.046 132.44C123.001 132.44 122.905 132.445 122.752 132.449C122.606 132.457 122.46 132.458 122.325 132.459L122.274 132.47L122.075 132.586L122.069 132.602L122.08 132.615L123.026 133.161L123.049 133.168L123.077 133.164L123.287 133.042L123.293 133.026L123.282 133.012L122.714 132.684L122.708 132.674L122.72 132.668L122.781 132.67C122.985 132.669 123.142 132.668 123.249 132.664L123.553 132.648C123.687 132.64 123.8 132.627 123.891 132.606C123.981 132.586 124.061 132.559 124.123 132.523C124.197 132.48 124.249 132.424 124.273 132.365C124.303 132.302 124.298 132.241 124.255 132.176Z" fill="#8D2D92"/>
<path d="M138.111 140.668C138.258 140.582 138.333 140.487 138.329 140.386C138.331 140.283 138.255 140.185 138.099 140.095C137.942 140.004 137.774 139.961 137.594 139.962C137.419 139.96 137.256 140.004 137.108 140.089L136.539 140.42C136.385 140.509 136.31 140.604 136.314 140.706C136.312 140.81 136.389 140.907 136.545 140.997C136.701 141.087 136.869 141.131 137.049 141.13C137.223 141.131 137.388 141.088 137.541 140.999L138.111 140.668ZM137.02 140.895C136.942 140.896 136.869 140.88 136.808 140.845C136.747 140.81 136.719 140.768 136.72 140.722C136.714 140.68 136.755 140.637 136.818 140.6L137.41 140.256C137.478 140.217 137.545 140.197 137.624 140.196C137.703 140.195 137.776 140.211 137.837 140.246C137.898 140.282 137.926 140.323 137.925 140.37C137.924 140.415 137.889 140.455 137.822 140.494L137.229 140.838C137.166 140.875 137.093 140.899 137.02 140.895Z" fill="#8D2D92"/>
<path d="M138.8 140.527L138.777 140.521L138.755 140.528L138.544 140.651L138.533 140.663L138.544 140.676L139.039 140.962L139.044 140.972L139.028 140.976L138.399 140.955L138.364 140.962L138.352 140.976L138.305 141.152L138.31 141.168L138.332 141.175L138.433 141.187L138.494 141.209C138.567 141.251 138.588 141.303 138.553 141.363C138.537 141.398 138.484 141.435 138.417 141.474C138.36 141.508 138.303 141.534 138.24 141.544C138.14 141.571 138.049 141.558 137.971 141.513L137.905 141.436L137.929 141.351L138.01 141.272V141.246L137.76 141.101H137.715C137.646 141.141 137.601 141.18 137.566 141.227C137.502 141.302 137.485 141.378 137.517 141.456C137.538 141.534 137.604 141.605 137.71 141.667C137.821 141.731 137.945 141.768 138.073 141.784C138.202 141.799 138.332 141.789 138.456 141.755C138.552 141.732 138.632 141.698 138.711 141.652C138.797 141.602 138.86 141.554 138.9 141.498C138.969 141.393 138.96 141.302 138.859 141.218L138.854 141.208H138.866L139.4 141.213L139.445 141.207L139.683 141.068L139.695 141.054L139.679 141.038L138.8 140.527Z" fill="#8D2D92"/>
<path d="M153.458 149.122C153.454 149.014 153.377 148.917 153.226 148.829C153.071 148.74 152.903 148.696 152.723 148.697C152.548 148.695 152.384 148.739 152.236 148.824L151.667 149.155C151.514 149.245 151.439 149.339 151.442 149.44C151.44 149.545 151.518 149.642 151.674 149.732C151.825 149.819 151.992 149.863 152.178 149.865C152.352 149.867 152.516 149.823 152.67 149.734L153.238 149.403C153.387 149.317 153.462 149.222 153.458 149.122ZM152.949 149.23L152.358 149.574C152.295 149.611 152.216 149.63 152.149 149.631C152.069 149.631 151.996 149.616 151.936 149.581C151.874 149.545 151.847 149.503 151.848 149.457C151.843 149.415 151.883 149.372 151.945 149.336L152.538 148.992C152.606 148.952 152.674 148.932 152.752 148.931C152.831 148.931 152.904 148.946 152.965 148.982C153.026 149.017 153.053 149.059 153.053 149.105C153.047 149.148 153.018 149.19 152.949 149.23Z" fill="#8D2D92"/>
<path d="M154.29 149.471L154.245 149.464L152.996 149.752L152.951 149.765L152.78 149.864L152.774 149.88L152.785 149.894L153.431 150.267L153.432 150.279L153.079 150.484L153.067 150.497L153.084 150.513L153.328 150.655L153.352 150.662L153.374 150.655L153.727 150.45H153.749L153.843 150.504L153.865 150.511L153.888 150.504L154.105 150.379L154.122 150.362L154.11 150.349L154.016 150.294V150.281L154.283 150.126L154.295 150.112L154.284 150.1L154.039 149.958L154.011 149.949L153.989 149.955L153.721 150.11L153.698 150.111L153.382 149.928L153.381 149.921L153.387 149.918L154.545 149.652L154.568 149.638L154.552 149.622L154.29 149.471Z" fill="#8D2D92"/>
<path d="M168.507 158.218C168.654 158.132 168.729 158.036 168.72 157.932C168.722 157.828 168.644 157.731 168.488 157.641C168.338 157.553 168.17 157.51 167.985 157.508C167.81 157.506 167.646 157.55 167.498 157.635L166.929 157.966C166.775 158.055 166.7 158.15 166.704 158.252C166.708 158.359 166.785 158.456 166.935 158.543C167.091 158.633 167.259 158.677 167.439 158.676C167.619 158.681 167.783 158.637 167.937 158.548L168.507 158.218ZM167.411 158.441C167.337 158.445 167.264 158.429 167.198 158.391C167.137 158.356 167.109 158.314 167.116 158.271C167.111 158.229 167.151 158.187 167.213 158.15L167.805 157.806C167.873 157.766 167.941 157.746 168.019 157.745C168.093 157.741 168.166 157.757 168.227 157.792C168.294 157.831 168.321 157.873 168.314 157.916C168.314 157.961 168.279 158.001 168.211 158.04L167.62 158.384C167.557 158.421 167.484 158.445 167.411 158.441Z" fill="#8D2D92"/>
<path d="M170.069 158.588L170.058 158.575L169.19 158.073L169.167 158.066L169.139 158.07L168.268 158.576L168.263 158.592L168.274 158.606L168.53 158.753L168.581 158.756L168.722 158.752L168.856 158.803L168.933 158.881L168.903 158.962L168.811 159.041L168.681 159.09L168.524 159.105L168.39 159.067L168.318 158.992L168.336 158.905L168.349 158.891L168.365 158.875L168.36 158.846L168.103 158.697L168.058 158.698L168.053 158.701L167.967 158.79C167.91 158.862 167.897 158.934 167.924 159.009C167.95 159.09 168.022 159.158 168.128 159.219C168.239 159.284 168.363 159.322 168.491 159.337C168.631 159.352 168.756 159.345 168.88 159.311C168.965 159.288 169.038 159.258 169.113 159.214C169.182 159.174 169.238 159.129 169.284 159.076C169.347 159.007 169.359 158.935 169.339 158.864C169.318 158.793 169.263 158.728 169.161 158.67C169.078 158.622 168.982 158.593 168.883 158.581L168.87 158.568L169.195 158.386H169.217L169.801 158.724L169.823 158.73L169.852 158.727L170.062 158.604L170.069 158.588Z" fill="#8D2D92"/>
<path d="M183.701 166.991C183.849 166.905 183.923 166.811 183.92 166.709C183.922 166.605 183.845 166.508 183.689 166.417C183.533 166.327 183.365 166.283 183.185 166.284C183.01 166.283 182.846 166.326 182.699 166.412L182.13 166.742C181.977 166.831 181.902 166.927 181.905 167.028C181.904 167.132 181.981 167.23 182.137 167.32C182.292 167.41 182.46 167.454 182.641 167.452C182.815 167.454 182.979 167.41 183.132 167.322L183.701 166.991ZM182.611 167.218C182.533 167.219 182.459 167.203 182.398 167.168C182.337 167.132 182.31 167.09 182.311 167.045C182.305 167.002 182.345 166.959 182.409 166.923L183.001 166.579C183.069 166.539 183.136 166.52 183.215 166.519C183.294 166.518 183.367 166.534 183.428 166.569C183.489 166.604 183.516 166.646 183.515 166.693C183.514 166.738 183.48 166.778 183.412 166.817L182.821 167.161C182.758 167.198 182.684 167.221 182.611 167.218Z" fill="#8D2D92"/>
<path d="M185.047 167.261C185.009 167.198 184.949 167.144 184.853 167.089C184.764 167.038 184.664 166.999 184.558 166.978C184.451 166.956 184.35 166.95 184.255 166.96C184.153 166.975 184.062 167.001 183.988 167.044L183.34 167.422C183.261 167.467 183.203 167.513 183.169 167.566C183.111 167.638 183.093 167.714 183.125 167.792C183.152 167.866 183.219 167.931 183.329 167.996C183.435 168.057 183.547 168.094 183.676 168.11C183.801 168.128 183.923 168.122 184.048 168.094C184.145 168.071 184.23 168.034 184.309 167.988C184.412 167.929 184.475 167.873 184.509 167.814C184.545 167.748 184.552 167.686 184.524 167.625C184.497 167.563 184.436 167.508 184.353 167.46C184.258 167.405 184.157 167.373 184.051 167.371L184.039 167.365V167.358L184.239 167.242L184.414 167.198L184.594 167.243L184.666 167.343L184.596 167.435L184.573 167.448L184.561 167.462L184.578 167.478L184.823 167.619L184.845 167.626L184.868 167.619L184.93 167.583C185.004 167.54 185.056 167.49 185.074 167.434C185.091 167.378 185.08 167.319 185.047 167.261ZM184.051 167.575C184.119 167.613 184.141 167.659 184.117 167.711C184.104 167.751 184.071 167.783 184.014 167.817L183.844 167.876C183.748 167.893 183.664 167.884 183.585 167.839C183.513 167.797 183.492 167.746 183.526 167.693L183.629 167.601C183.686 167.567 183.748 167.544 183.799 167.534C183.889 167.521 183.974 167.53 184.051 167.575Z" fill="#8D2D92"/>
<path d="M95.4993 130.225C95.6475 130.139 95.7219 130.043 95.7125 129.939C95.7145 129.835 95.6314 129.741 95.4751 129.651C95.3249 129.564 95.1627 129.517 94.9829 129.518C94.8025 129.513 94.6389 129.557 94.4914 129.643L93.9221 129.973C93.7678 130.063 93.6934 130.158 93.6974 130.265C93.7014 130.366 93.7786 130.464 93.9288 130.551C94.085 130.641 94.2527 130.685 94.427 130.687C94.6128 130.688 94.7764 130.645 94.93 130.556L95.4993 130.225ZM94.3982 130.452C94.3251 130.455 94.2574 130.437 94.191 130.398C94.13 130.363 94.0971 130.324 94.1031 130.281C94.1045 130.236 94.1393 130.197 94.2071 130.157L94.7985 129.813C94.8669 129.774 94.9347 129.753 95.0131 129.753C95.0862 129.749 95.1533 129.767 95.215 129.803C95.282 129.842 95.3142 129.88 95.3082 129.923C95.3082 129.969 95.2726 130.008 95.2049 130.048L94.6134 130.392C94.5444 130.431 94.4773 130.451 94.3982 130.452Z" fill="#8D2D92"/>
<path d="M96.6619 130.323C96.5788 130.274 96.4889 130.242 96.3943 130.221C96.2938 130.195 96.1985 130.192 96.0966 130.2C95.9725 130.208 95.8592 130.241 95.7573 130.3C95.6835 130.344 95.6372 130.39 95.6138 130.442L95.5896 130.553L95.5776 130.559L95.3469 130.571C95.251 130.595 95.1598 130.628 95.08 130.675C95.0009 130.72 94.9432 130.773 94.9083 130.832C94.8735 130.897 94.8668 130.966 94.9103 131.037C94.9486 131.106 95.0149 131.17 95.1095 131.225C95.2155 131.286 95.3268 131.324 95.4394 131.343C95.5628 131.361 95.6755 131.36 95.7881 131.34C95.884 131.323 95.9752 131.29 96.0604 131.241C96.1395 131.194 96.1965 131.142 96.2321 131.083L96.2508 130.949L96.2676 130.939L96.4426 130.934C96.5439 130.921 96.6237 130.893 96.7028 130.848C96.8 130.791 96.857 130.726 96.8758 130.65C96.8933 130.595 96.8778 130.54 96.845 130.481C96.8067 130.426 96.7504 130.374 96.6619 130.323ZM95.8907 130.958L95.7881 131.05C95.7251 131.087 95.6627 131.11 95.5957 131.117C95.5112 131.128 95.4388 131.112 95.371 131.074C95.3046 131.035 95.2771 130.986 95.3006 130.941L95.4032 130.836C95.4602 130.803 95.5165 130.783 95.5789 130.773C95.6634 130.756 95.7479 130.771 95.8197 130.813C95.8981 130.856 95.9202 130.903 95.8907 130.958ZM96.4708 130.621L96.3964 130.684L96.2555 130.734C96.1704 130.744 96.0919 130.732 96.0249 130.693C95.9578 130.654 95.9363 130.609 95.9544 130.56L96.0403 130.478L96.1536 130.437L96.283 130.433L96.395 130.471L96.4721 130.543L96.4708 130.621Z" fill="#8D2D92"/>
<path d="M110.705 139.004C110.854 138.918 110.929 138.823 110.925 138.722C110.921 138.614 110.838 138.521 110.683 138.43C110.532 138.343 110.369 138.296 110.19 138.297C110.01 138.293 109.846 138.336 109.698 138.423L109.13 138.753C108.975 138.842 108.901 138.937 108.905 139.045C108.908 139.146 108.985 139.243 109.136 139.33C109.292 139.42 109.46 139.464 109.64 139.469C109.82 139.468 109.984 139.424 110.137 139.335L110.705 139.004ZM109.61 139.234C109.531 139.235 109.464 139.216 109.397 139.177C109.335 139.141 109.303 139.103 109.309 139.06C109.31 139.015 109.345 138.975 109.413 138.936L110.004 138.592C110.072 138.552 110.14 138.532 110.219 138.531C110.292 138.527 110.359 138.547 110.42 138.582C110.488 138.62 110.52 138.659 110.52 138.705C110.513 138.748 110.484 138.79 110.416 138.83L109.824 139.174C109.757 139.213 109.683 139.231 109.61 139.234Z" fill="#8D2D92"/>
<path d="M111.829 139.094C111.724 139.032 111.612 138.994 111.483 138.979C111.354 138.964 111.23 138.965 111.111 138.995C111.014 139.018 110.93 139.055 110.844 139.105C110.748 139.161 110.685 139.217 110.65 139.276C110.615 139.342 110.608 139.403 110.635 139.465C110.662 139.527 110.718 139.585 110.801 139.633C110.896 139.688 110.997 139.712 111.109 139.718L111.115 139.722L111.109 139.732L110.909 139.848L110.734 139.891L110.566 139.847L110.489 139.75L110.559 139.651L110.582 139.638L110.593 139.625L110.582 139.611L110.337 139.47L110.309 139.46L110.286 139.467L110.224 139.504C110.15 139.546 110.104 139.599 110.086 139.655C110.063 139.714 110.073 139.772 110.111 139.828C110.15 139.889 110.21 139.944 110.305 139.999C110.394 140.05 110.494 140.089 110.601 140.111C110.702 140.136 110.803 140.142 110.904 140.127C111.001 140.116 111.086 140.087 111.165 140.04L111.813 139.663C111.893 139.617 111.956 139.568 111.99 139.522C112.048 139.45 112.055 139.374 112.029 139.3C112.002 139.226 111.935 139.154 111.829 139.094ZM111.633 139.395L111.53 139.488C111.473 139.521 111.411 139.544 111.354 139.551C111.264 139.571 111.18 139.556 111.107 139.514C111.04 139.475 111.019 139.429 111.038 139.374L111.145 139.272L111.316 139.212C111.412 139.195 111.496 139.204 111.569 139.246C111.646 139.291 111.668 139.342 111.633 139.395Z" fill="#8D2D92"/>
<path d="M126.066 147.339L126.056 147.326L125.799 147.178L125.76 147.163L125.435 147.1L125.384 147.104L125.207 147.212L125.201 147.242H125.213L125.481 147.331L125.486 147.334L125.481 147.344L124.303 148.028L124.292 148.04L124.303 148.06L124.548 148.201L124.576 148.205L124.599 148.199L126.055 147.352L126.066 147.339Z" fill="#8D2D92"/>
<path d="M126.813 147.745C126.657 147.654 126.494 147.607 126.314 147.608C126.139 147.606 125.976 147.651 125.828 147.736L125.259 148.066C125.105 148.156 125.03 148.25 125.028 148.355C125.032 148.456 125.109 148.553 125.266 148.643C125.421 148.734 125.589 148.777 125.764 148.779C125.944 148.778 126.113 148.737 126.267 148.649L126.836 148.318C126.984 148.232 127.053 148.134 127.049 148.033C127.051 147.928 126.969 147.834 126.813 147.745ZM126.541 148.141L125.95 148.485C125.881 148.525 125.814 148.545 125.735 148.545C125.656 148.546 125.588 148.527 125.527 148.492C125.466 148.456 125.433 148.418 125.433 148.372C125.44 148.329 125.469 148.286 125.537 148.247L126.129 147.903C126.196 147.863 126.27 147.846 126.343 147.842C126.422 147.842 126.489 147.861 126.551 147.896C126.612 147.932 126.645 147.97 126.644 148.016C126.644 148.062 126.61 148.101 126.541 148.141Z" fill="#8D2D92"/>
<path d="M141.484 156.24L141.473 156.227L141.217 156.08L141.178 156.063L140.847 155.997L140.802 156.004L140.625 156.113L140.614 156.139L140.631 156.143L140.894 156.228L140.904 156.235L140.899 156.245L139.722 156.928L139.71 156.943L139.715 156.958L139.966 157.103L139.994 157.106L140.016 157.099L141.473 156.253L141.484 156.24Z" fill="#8D2D92"/>
<path d="M141.975 156.518L141.94 156.505L141.61 156.439L141.565 156.445L141.389 156.555L141.376 156.581L141.393 156.584L141.656 156.669L141.667 156.676L141.656 156.683L140.479 157.368L140.473 157.384L140.478 157.4L140.723 157.541L140.751 157.544L140.78 157.541L142.235 156.694L142.241 156.678L142.231 156.665L141.975 156.518Z" fill="#8D2D92"/>
<path d="M156.467 164.893L156.457 164.88L156.201 164.732L156.167 164.719L155.836 164.653L155.786 164.657L155.609 164.766L155.603 164.795H155.614L155.882 164.884L155.888 164.887L155.882 164.897L154.705 165.582L154.693 165.594L154.704 165.614L154.949 165.755L154.978 165.758L155.006 165.755L156.461 164.909L156.467 164.893Z" fill="#8D2D92"/>
<path d="M157.416 165.658C157.434 165.595 157.435 165.53 157.397 165.469C157.364 165.404 157.292 165.343 157.193 165.285C157.103 165.234 157.003 165.195 156.901 165.17C156.795 165.148 156.694 165.142 156.592 165.149C156.485 165.161 156.395 165.187 156.315 165.227L156.213 165.286L156.207 165.302L156.213 165.318L156.458 165.46L156.491 165.466L156.514 165.459L156.565 165.43L156.746 165.383C156.819 165.386 156.875 165.404 156.93 165.436C156.986 165.469 157.019 165.501 157.024 165.543L156.949 165.644C156.881 165.685 156.712 165.712 156.436 165.723L156.177 165.732C156.143 165.733 156.047 165.737 155.896 165.742C155.743 165.746 155.591 165.75 155.456 165.752L155.416 165.762L155.217 165.878L155.206 165.891L155.211 165.908L156.163 166.457L156.191 166.46L156.213 166.454L156.419 166.334L156.435 166.318L156.424 166.305L155.851 165.974L155.851 165.967L155.857 165.964H155.925C156.128 165.962 156.279 165.957 156.387 165.953L156.691 165.938C156.826 165.93 156.938 165.917 157.029 165.896C157.126 165.878 157.199 165.849 157.256 165.815C157.335 165.769 157.392 165.716 157.416 165.658Z" fill="#8D2D92"/>
<path d="M171.685 173.678L171.675 173.664L171.418 173.516L171.379 173.501L171.054 173.438L171.003 173.442L170.827 173.55L170.821 173.58H170.832L171.101 173.669L171.106 173.672L171.101 173.682L169.923 174.366L169.912 174.38L169.922 174.398L170.167 174.54L170.196 174.543L170.218 174.537L171.674 173.69L171.685 173.678Z" fill="#8D2D92"/>
<path d="M172.831 174.339L172.821 174.326L171.94 173.818L171.918 173.812L171.89 173.815L171.679 173.938L171.673 173.954L171.679 173.97L172.174 174.256L172.18 174.259L172.168 174.266L171.533 174.249L171.504 174.252L171.493 174.266L171.439 174.439L171.445 174.461L171.467 174.468L171.573 174.477L171.629 174.496C171.707 174.54 171.728 174.593 171.688 174.649C171.671 174.685 171.625 174.724 171.557 174.764C171.5 174.797 171.438 174.821 171.381 174.833C171.274 174.858 171.19 174.848 171.112 174.803L171.035 174.726L171.064 174.638L171.144 174.565L171.145 174.532L170.9 174.391L170.844 174.392C170.787 174.431 170.735 174.474 170.701 174.514C170.643 174.592 170.625 174.668 170.651 174.742C170.678 174.823 170.745 174.895 170.851 174.956C170.956 175.017 171.079 175.054 171.214 175.074C171.343 175.088 171.467 175.081 171.597 175.044C171.687 175.024 171.773 174.987 171.852 174.941C171.938 174.892 171.995 174.84 172.035 174.784C172.105 174.685 172.09 174.591 171.995 174.504L171.99 174.5L172.002 174.494L172.536 174.506L172.581 174.492L172.819 174.353L172.831 174.339Z" fill="#8D2D92"/>
<path d="M83.4882 136.914L83.4715 136.899L83.2213 136.754L83.1818 136.738L82.8512 136.672L82.8056 136.679L82.6238 136.791L82.6178 136.813L82.6346 136.817L82.8974 136.903L82.9028 136.913V136.919L81.7199 137.607L81.7085 137.619L81.7192 137.633L81.9647 137.774L81.9928 137.784L82.0156 137.777L83.4715 136.931L83.4882 136.914Z" fill="#8D2D92"/>
<path d="M83.7005 137.65C83.6227 137.606 83.5214 137.573 83.4208 137.561L83.4155 137.551L83.734 137.366H83.7561L84.3469 137.707L84.3691 137.714L84.3972 137.703L84.6017 137.584L84.6192 137.568L84.6078 137.555L83.7333 137.05L83.7112 137.043L83.6824 137.054L82.8187 137.556L82.8066 137.569L82.812 137.585L83.0735 137.736L83.1244 137.739L83.2653 137.734L83.4048 137.782L83.4765 137.856L83.4463 137.944L83.3558 138.017L83.2197 138.07L83.0675 138.087L82.928 138.046L82.8609 137.968L82.8857 137.884L82.8971 137.87L82.9085 137.857L82.9038 137.828L82.6477 137.679L82.5967 137.677L82.5109 137.765C82.4532 137.838 82.4351 137.913 82.468 137.99C82.5001 138.068 82.5605 138.137 82.6725 138.201C82.7778 138.262 82.9012 138.3 83.0359 138.319C83.1761 138.334 83.3055 138.323 83.4302 138.29C83.5094 138.269 83.5885 138.237 83.6629 138.193C83.7253 138.157 83.783 138.111 83.8339 138.055C83.8862 137.986 83.9097 137.914 83.8889 137.843C83.8668 137.773 83.8004 137.708 83.7005 137.65Z" fill="#8D2D92"/>
<path d="M98.6834 145.688L98.6726 145.675L98.4165 145.527L98.3829 145.515L98.0523 145.448L98.002 145.452L97.819 145.564V145.59H97.8304L98.0986 145.68V145.686V145.692L96.9157 146.38L96.9043 146.393L96.9204 146.409L97.1658 146.551L97.1879 146.557L97.2161 146.554L98.6726 145.708L98.6834 145.688Z" fill="#8D2D92"/>
<path d="M99.3865 146.608L99.4147 146.597L99.4717 146.564C99.5508 146.518 99.5978 146.472 99.6212 146.413C99.6387 146.357 99.6293 146.299 99.585 146.241C99.5522 146.182 99.4858 146.124 99.3966 146.072C99.302 146.018 99.2014 145.979 99.1009 145.961C99.0003 145.935 98.899 145.93 98.7917 145.941C98.6958 145.952 98.6107 145.982 98.5309 146.027L97.8824 146.403C97.8033 146.45 97.7463 146.497 97.7054 146.545C97.6531 146.621 97.641 146.692 97.6672 146.767C97.6946 146.842 97.7604 146.913 97.8663 146.974C97.9723 147.036 98.0956 147.073 98.2184 147.093C98.3471 147.108 98.4658 147.104 98.5845 147.073C98.6804 147.05 98.7709 147.016 98.8561 146.967C98.9533 146.911 99.0211 146.851 99.0445 146.792C99.0861 146.731 99.0868 146.666 99.06 146.604C99.0331 146.542 98.9835 146.487 98.9003 146.439C98.8004 146.381 98.6992 146.356 98.5865 146.35L98.5805 146.346L98.5812 146.34L98.7857 146.221L98.9614 146.177L99.1351 146.224L99.2061 146.319L99.1364 146.417L99.1196 146.427L99.1029 146.443L99.1136 146.456L99.3651 146.601L99.3865 146.608ZM98.5885 146.555C98.661 146.597 98.6831 146.642 98.6596 146.695C98.6422 146.731 98.608 146.764 98.5503 146.796L98.3806 146.856C98.2901 146.876 98.2003 146.864 98.1285 146.822C98.05 146.778 98.034 146.729 98.0628 146.672L98.1661 146.581C98.2291 146.544 98.2854 146.524 98.3471 146.513C98.4323 146.497 98.5161 146.513 98.5885 146.555Z" fill="#8D2D92"/>
<path d="M113.923 154.486L113.912 154.473L113.655 154.325L113.617 154.309L113.291 154.246L113.241 154.249L113.059 154.362L113.058 154.388H113.07L113.338 154.477L113.339 154.484L113.338 154.49L112.155 155.178L112.144 155.19L112.16 155.207L112.404 155.349L112.427 155.355L112.45 155.349L113.905 154.502L113.923 154.486Z" fill="#8D2D92"/>
<path d="M114.826 155.284L115.042 155.158L115.059 155.141L115.043 155.125L114.124 154.596L114.1 154.589L114.073 154.599L113.726 154.793L113.714 154.807L113.726 154.826L113.915 154.936L113.943 154.938L113.971 154.936L114.068 154.879L114.09 154.878L114.48 155.103V155.117L112.818 155.554L112.806 155.579L113.073 155.734L113.118 155.741L114.786 155.3L114.826 155.284Z" fill="#8D2D92"/>
<path d="M129.074 163.235L129.056 163.218L128.806 163.073L128.767 163.058L128.437 162.991L128.392 162.999L128.209 163.111L128.203 163.133L128.22 163.137L128.483 163.223L128.488 163.232V163.239L127.306 163.926L127.293 163.939L127.306 163.952L127.55 164.094L127.578 164.103L127.601 164.097L129.056 163.251L129.074 163.235Z" fill="#8D2D92"/>
<path d="M130.011 163.941C130.024 163.889 130.019 163.834 129.981 163.779C129.948 163.72 129.887 163.665 129.804 163.617C129.72 163.569 129.624 163.534 129.53 163.512C129.429 163.493 129.333 163.484 129.238 163.495C129.108 163.506 128.995 163.539 128.892 163.598C128.823 163.638 128.766 163.684 128.743 163.736L128.73 163.848L128.713 163.858L128.488 163.866C128.387 163.887 128.295 163.919 128.216 163.966C128.137 164.012 128.079 164.064 128.045 164.123C128.004 164.192 128.008 164.261 128.047 164.329C128.079 164.401 128.151 164.461 128.251 164.52C128.352 164.577 128.468 164.619 128.581 164.638C128.699 164.66 128.817 164.655 128.924 164.632C129.015 164.617 129.111 164.588 129.196 164.538C129.282 164.488 129.339 164.436 129.368 164.38L129.387 164.24L129.399 164.233L129.584 164.228C129.675 164.214 129.765 164.188 129.839 164.145C129.942 164.085 129.999 164.019 130.011 163.941ZM128.924 164.348C128.867 164.381 128.799 164.401 128.737 164.412C128.653 164.422 128.58 164.406 128.513 164.368C128.441 164.326 128.413 164.284 128.438 164.231L128.546 164.13C128.603 164.096 128.659 164.077 128.71 164.066C128.806 164.049 128.885 164.062 128.957 164.104C129.034 164.149 129.056 164.201 129.033 164.253L128.924 164.348ZM129.608 163.911L129.539 163.978L129.397 164.027C129.312 164.038 129.234 164.025 129.161 163.984C129.094 163.945 129.072 163.9 129.095 163.854L129.176 163.776L129.283 163.733L129.424 163.728L129.536 163.766L129.613 163.838L129.608 163.911Z" fill="#8D2D92"/>
<path d="M144.28 172.014L144.269 172.001L144.013 171.853L143.974 171.837L143.643 171.771L143.598 171.778L143.416 171.891L143.41 171.913L143.427 171.916L143.689 172.003L143.695 172.012V172.018L142.512 172.706L142.5 172.719L142.512 172.732L142.762 172.877L142.784 172.883L142.807 172.876L144.263 172.03L144.28 172.014Z" fill="#8D2D92"/>
<path d="M145.17 172.593C145.138 172.515 145.078 172.446 144.972 172.385C144.866 172.324 144.743 172.286 144.62 172.267C144.49 172.253 144.367 172.259 144.248 172.289C144.157 172.31 144.066 172.343 143.981 172.393C143.884 172.449 143.816 172.508 143.793 172.567C143.747 172.633 143.746 172.698 143.773 172.76C143.806 172.818 143.855 172.873 143.938 172.921C144.033 172.976 144.134 173.008 144.24 173.01L144.257 173.014L144.252 173.023L144.052 173.139L143.877 173.183L143.703 173.135L143.626 173.038L143.7 172.943L143.717 172.933L143.729 172.919L143.718 172.9L143.473 172.759L143.446 172.755L143.423 172.763L143.366 172.796C143.287 172.842 143.235 172.892 143.216 172.947C143.199 173.003 143.209 173.061 143.247 173.123C143.286 173.178 143.352 173.236 143.441 173.287C143.536 173.342 143.636 173.38 143.731 173.403C143.839 173.425 143.94 173.43 144.041 173.416C144.137 173.405 144.228 173.378 144.307 173.333L144.955 172.955C145.035 172.909 145.092 172.863 145.133 172.814C145.184 172.739 145.197 172.667 145.17 172.593ZM144.775 172.686L144.672 172.779C144.609 172.815 144.553 172.835 144.49 172.846C144.4 172.86 144.321 172.847 144.25 172.805C144.177 172.763 144.155 172.718 144.179 172.666L144.282 172.56L144.452 172.501C144.548 172.484 144.633 172.499 144.705 172.541C144.781 172.586 144.804 172.631 144.775 172.686Z" fill="#8D2D92"/>
<path d="M157.851 181.285L157.846 181.281L157.857 181.275L157.925 181.274C158.128 181.273 158.28 181.268 158.381 181.267L158.691 181.255C158.82 181.244 158.933 181.23 159.03 181.212C159.12 181.192 159.199 181.165 159.262 181.129C159.341 181.083 159.388 181.03 159.417 180.968C159.441 180.909 159.431 180.844 159.398 180.78C159.366 180.715 159.294 180.653 159.193 180.595C159.104 180.544 159.01 180.509 158.908 180.484C158.802 180.462 158.695 180.453 158.594 180.461C158.492 180.475 158.396 180.498 158.316 180.544L158.219 180.6L158.202 180.617L158.214 180.63L158.464 180.775L158.486 180.782L158.515 180.771L158.566 180.742L158.752 180.698C158.814 180.701 158.876 180.717 158.932 180.749C158.987 180.781 159.02 180.819 159.026 180.856L158.951 180.957C158.877 181 158.714 181.025 158.437 181.036L158.177 181.045C158.144 181.045 158.049 181.049 157.89 181.057C157.738 181.061 157.597 181.066 157.456 181.064L157.412 181.078L157.213 181.194L157.202 181.207L157.218 181.222L158.164 181.769L158.187 181.776L158.21 181.768L158.419 181.645L158.431 181.633L158.425 181.617L157.851 181.285Z" fill="#8D2D92"/>
<path d="M160.636 181.582C160.626 181.478 160.55 181.38 160.399 181.293C160.243 181.203 160.076 181.159 159.901 181.157C159.72 181.159 159.557 181.196 159.404 181.285L158.835 181.615C158.686 181.701 158.618 181.799 158.615 181.904C158.614 182.008 158.696 182.102 158.853 182.193C159.004 182.279 159.166 182.327 159.351 182.328C159.531 182.327 159.695 182.283 159.842 182.197L160.411 181.867C160.565 181.778 160.634 181.686 160.636 181.582ZM160.127 181.69L159.536 182.034C159.468 182.074 159.394 182.091 159.321 182.094C159.243 182.095 159.175 182.076 159.114 182.04C159.046 182.002 159.02 181.967 159.02 181.92C159.021 181.875 159.056 181.836 159.124 181.796L159.715 181.452C159.778 181.415 159.851 181.392 159.93 181.391C160.009 181.391 160.07 181.406 160.137 181.445C160.198 181.48 160.232 181.519 160.231 181.565C160.225 181.608 160.19 181.653 160.127 181.69Z" fill="#8D2D92"/>
<path d="M70.2391 144.873L70.2271 144.86L69.6598 144.532L69.6537 144.523L69.6651 144.515L69.7275 144.518C69.936 144.513 70.0815 144.512 70.1942 144.511L70.498 144.496C70.6334 144.488 70.7407 144.472 70.8373 144.453C70.9272 144.434 71.0063 144.407 71.0693 144.37C71.1491 144.325 71.1954 144.272 71.2189 144.213C71.2477 144.151 71.2437 144.089 71.2054 144.021C71.1672 143.959 71.1008 143.894 71.0063 143.84C70.9111 143.786 70.8172 143.75 70.7099 143.728C70.6093 143.703 70.5027 143.694 70.4014 143.708C70.3002 143.715 70.2036 143.739 70.1245 143.785L70.0219 143.845L70.0098 143.858L70.0212 143.871L70.272 144.016L70.2941 144.022L70.3169 144.016L70.3739 143.983L70.555 143.942C70.6227 143.942 70.6837 143.957 70.7448 143.993C70.8004 144.025 70.8279 144.06 70.8279 144.099L70.7635 144.201C70.6898 144.244 70.5147 144.268 70.2452 144.276L69.9917 144.288C69.9468 144.288 69.8509 144.292 69.6986 144.297C69.5464 144.301 69.4049 144.306 69.2701 144.307L69.2192 144.317L69.02 144.433L69.0146 144.449L69.026 144.463L69.9722 145.009L69.9944 145.015L70.0225 145.012L70.2324 144.889L70.2391 144.873Z" fill="#8D2D92"/>
<path d="M72.3984 144.895C72.4279 144.833 72.4232 144.771 72.385 144.704C72.3467 144.642 72.2803 144.577 72.1858 144.523C72.0899 144.468 71.996 144.432 71.8894 144.411C71.7888 144.385 71.6815 144.376 71.5803 144.391C71.479 144.398 71.3831 144.421 71.3033 144.468L71.2014 144.527L71.1893 144.541L71.2007 144.553L71.4515 144.698L71.4736 144.705L71.4964 144.698L71.5534 144.665L71.7345 144.625C71.8015 144.624 71.8626 144.64 71.9243 144.675C71.9799 144.708 72.0074 144.743 72.0067 144.782L71.943 144.883C71.8693 144.926 71.6943 144.95 71.424 144.959L71.1705 144.971C71.1256 144.971 71.0297 144.975 70.8781 144.979C70.7259 144.984 70.5851 144.989 70.445 144.987L70.4 145L70.2009 145.116L70.1948 145.132L70.2062 145.144L71.1531 145.691L71.1745 145.697L71.2034 145.693L71.414 145.571L71.42 145.555L71.4086 145.542L70.8406 145.214L70.8352 145.204L70.8466 145.197L70.9083 145.2C71.1176 145.195 71.2631 145.194 71.3757 145.193L71.6795 145.178C71.815 145.17 71.9223 145.153 72.0181 145.136C72.1087 145.115 72.1878 145.089 72.2502 145.052C72.3286 145.007 72.3749 144.954 72.3984 144.895Z" fill="#8D2D92"/>
<path d="M84.8886 153.324V153.318L84.9 153.31L84.9624 153.314C85.1709 153.308 85.3165 153.307 85.4238 153.303L85.7336 153.29C85.863 153.279 85.9756 153.265 86.0662 153.245C86.1621 153.229 86.2358 153.199 86.2982 153.162C86.378 153.116 86.429 153.066 86.4524 153.008C86.4766 152.943 86.4719 152.88 86.439 152.816C86.4008 152.754 86.3344 152.69 86.2345 152.632C86.1453 152.581 86.0447 152.542 85.9381 152.52C85.8375 152.496 85.7362 152.489 85.6289 152.5C85.5277 152.508 85.4372 152.534 85.352 152.577L85.2501 152.637L85.2434 152.653L85.2554 152.666L85.5056 152.811L85.5277 152.817L85.5505 152.811L85.6075 152.777L85.7832 152.734C85.8556 152.737 85.9166 152.752 85.973 152.785C86.0286 152.817 86.0561 152.852 86.0608 152.894L85.9911 152.992C85.918 153.036 85.749 153.063 85.4781 153.072L85.2186 153.08C85.179 153.084 85.0831 153.088 84.9309 153.092C84.7786 153.096 84.6325 153.098 84.4977 153.099L84.4527 153.112L84.2536 153.228L84.2422 153.242L84.2536 153.255L85.2058 153.804L85.2279 153.811L85.2507 153.804L85.4606 153.682L85.472 153.668L85.4613 153.655L84.8886 153.324Z" fill="#8D2D92"/>
<path d="M87.8039 153.571L87.7985 153.555L86.918 153.047L86.8905 153.044L86.8624 153.047L86.6518 153.17L86.6458 153.186L86.6565 153.2L87.152 153.485V153.492L87.14 153.499L86.5049 153.475L86.4768 153.485L86.4654 153.499L86.4111 153.672L86.4164 153.688L86.4392 153.694L86.5398 153.706L86.6015 153.729C86.6786 153.774 86.6954 153.823 86.6665 153.879C86.6437 153.918 86.5968 153.957 86.5291 153.997C86.4721 154.03 86.4104 154.054 86.3534 154.067C86.2521 154.087 86.1616 154.081 86.0784 154.033L86.0121 153.955L86.0362 153.87L86.122 153.795L86.1167 153.765L85.8719 153.624L85.8209 153.621C85.7586 153.664 85.713 153.704 85.6727 153.746C85.6151 153.818 85.6023 153.897 85.6231 153.975C85.6499 154.056 85.7217 154.124 85.8276 154.185C85.9336 154.246 86.051 154.287 86.1797 154.303C86.3145 154.321 86.4446 154.311 86.5686 154.277C86.6592 154.25 86.7443 154.22 86.8241 154.175C86.9093 154.125 86.9663 154.072 87.0065 154.016C87.081 153.915 87.0662 153.82 86.9663 153.737L86.9609 153.727H86.9723L87.5128 153.735L87.5524 153.725L87.7911 153.586L87.8039 153.571Z" fill="#8D2D92"/>
<path d="M100.013 162.036L100.074 162.039C100.283 162.034 100.428 162.032 100.536 162.028L100.846 162.016C100.976 162.006 101.088 161.992 101.184 161.974C101.275 161.954 101.348 161.925 101.411 161.888C101.491 161.841 101.542 161.792 101.566 161.733C101.589 161.668 101.585 161.607 101.552 161.542C101.513 161.48 101.447 161.415 101.346 161.357C101.257 161.306 101.163 161.271 101.055 161.249C100.956 161.224 100.848 161.214 100.741 161.225C100.64 161.232 100.549 161.259 100.464 161.302L100.362 161.362L100.355 161.378L100.367 161.391L100.618 161.536L100.64 161.542L100.662 161.536L100.719 161.502L100.901 161.461C100.968 161.461 101.029 161.477 101.085 161.509C101.14 161.541 101.173 161.579 101.173 161.619L101.104 161.717C101.03 161.76 100.86 161.787 100.589 161.796L100.331 161.804C100.29 161.808 100.195 161.813 100.043 161.817C99.8907 161.821 99.7498 161.826 99.6097 161.824L99.5641 161.837L99.3656 161.953L99.3535 161.967L99.3703 161.982L100.316 162.529L100.339 162.535L100.361 162.528L100.571 162.406L100.583 162.393L100.571 162.379L99.9979 162.048V162.042L100.013 162.036Z" fill="#8D2D92"/>
<path d="M102.42 161.997L102.369 161.994L101.121 162.281L101.081 162.291L100.905 162.393L100.899 162.41L100.91 162.422L101.555 162.795V162.809L101.203 163.013L101.191 163.027L101.209 163.042L101.453 163.184L101.476 163.19L101.498 163.184L101.85 162.979H101.873L101.969 163.034L101.991 163.04L102.013 163.033L102.229 162.907L102.246 162.891L102.235 162.878L102.141 162.824V162.811L102.408 162.655L102.42 162.642L102.408 162.629L102.164 162.488L102.136 162.478L102.112 162.484L101.845 162.64L101.823 162.641L101.506 162.457L101.5 162.447L101.506 162.444L102.67 162.181L102.693 162.168L102.682 162.148L102.42 161.997Z" fill="#8D2D92"/>
<path d="M115.268 170.862L115.263 170.852L115.279 170.849L115.335 170.848C115.544 170.843 115.695 170.846 115.803 170.841L116.106 170.826C116.242 170.818 116.355 170.805 116.445 170.784C116.535 170.764 116.615 170.737 116.677 170.701C116.757 170.655 116.803 170.602 116.827 170.543C116.856 170.481 116.851 170.419 116.819 170.354C116.776 170.289 116.714 170.227 116.614 170.17C116.524 170.119 116.424 170.081 116.318 170.059C116.217 170.034 116.116 170.028 116.009 170.038C115.907 170.046 115.817 170.072 115.732 170.115L115.63 170.175L115.618 170.188L115.634 170.205L115.879 170.347L115.901 170.353L115.929 170.349L115.986 170.317L116.162 170.272C116.235 170.275 116.296 170.29 116.352 170.323C116.408 170.355 116.434 170.391 116.434 170.429L116.37 170.53C116.297 170.573 116.121 170.598 115.856 170.61L115.597 170.618C115.558 170.622 115.462 170.626 115.31 170.631C115.158 170.636 115.011 170.636 114.877 170.638L114.832 170.652L114.632 170.767L114.621 170.781L114.632 170.794L115.585 171.343L115.607 171.35L115.63 171.343L115.84 171.221L115.851 171.207L115.84 171.194L115.268 170.862Z" fill="#8D2D92"/>
<path d="M117.321 170.599L117.286 170.593L117.264 170.599L116.394 171.105L116.382 171.119L116.399 171.135L116.655 171.283L116.705 171.285L116.846 171.281L116.986 171.328L117.057 171.41L117.027 171.491L116.936 171.57L116.806 171.619L116.648 171.634L116.514 171.595L116.442 171.522L116.466 171.43L116.472 171.42L116.489 171.403L116.484 171.373L116.228 171.225L116.183 171.226L116.177 171.229L116.091 171.318C116.04 171.387 116.021 171.462 116.048 171.536C116.081 171.615 116.146 171.686 116.252 171.746C116.364 171.811 116.487 171.849 116.617 171.864C116.757 171.88 116.881 171.872 117.011 171.835C117.089 171.815 117.169 171.782 117.237 171.741C117.306 171.702 117.364 171.656 117.409 171.603C117.472 171.534 117.484 171.463 117.463 171.391C117.442 171.32 117.382 171.252 117.287 171.198C117.203 171.149 117.108 171.121 117.001 171.104L116.995 171.095L117.319 170.913L117.336 170.91L117.927 171.251L117.949 171.257L117.977 171.254L118.188 171.131L118.194 171.114L118.188 171.098L117.321 170.599Z" fill="#8D2D92"/>
<path d="M130.462 179.635V179.629L130.474 179.622L130.536 179.625C130.744 179.62 130.89 179.619 130.997 179.614L131.307 179.602C131.437 179.59 131.549 179.577 131.646 179.56C131.736 179.539 131.815 179.513 131.878 179.476C131.958 179.43 132.004 179.378 132.027 179.319C132.056 179.256 132.046 179.192 132.014 179.127C131.975 179.065 131.909 179 131.809 178.943C131.72 178.892 131.625 178.856 131.518 178.835C131.417 178.809 131.31 178.8 131.203 178.811C131.107 178.822 131.011 178.845 130.932 178.892L130.83 178.951L130.818 178.965L130.83 178.977L131.081 179.122L131.102 179.129L131.125 179.122L131.182 179.089L131.363 179.048C131.431 179.048 131.492 179.063 131.547 179.095C131.608 179.131 131.636 179.166 131.636 179.205L131.572 179.307C131.498 179.35 131.323 179.374 131.053 179.382L130.794 179.391C130.754 179.395 130.659 179.399 130.507 179.403C130.354 179.408 130.214 179.413 130.073 179.411L130.028 179.424L129.829 179.54L129.818 179.553L129.834 179.569L130.78 180.115L130.802 180.122L130.83 180.118L131.041 179.996L131.048 179.979L131.036 179.967L130.462 179.635Z" fill="#8D2D92"/>
<path d="M132.978 179.619C132.884 179.564 132.789 179.529 132.683 179.507C132.577 179.485 132.474 179.48 132.379 179.491C132.278 179.504 132.188 179.532 132.113 179.574L131.464 179.951C131.385 179.997 131.328 180.044 131.293 180.096C131.235 180.168 131.217 180.243 131.244 180.318C131.276 180.396 131.342 180.461 131.454 180.525C131.56 180.586 131.672 180.624 131.801 180.64C131.925 180.658 132.049 180.651 132.174 180.624C132.264 180.597 132.355 180.564 132.435 180.518C132.536 180.458 132.606 180.399 132.634 180.343C132.669 180.278 132.677 180.216 132.649 180.155C132.622 180.092 132.561 180.038 132.477 179.99C132.382 179.935 132.282 179.903 132.176 179.9L132.164 179.894V179.887L132.369 179.768L132.538 179.728L132.718 179.772L132.79 179.872L132.72 179.964L132.697 179.978L132.686 179.991L132.702 180.007L132.947 180.149L132.97 180.155L132.992 180.149L133.055 180.112C133.128 180.069 133.18 180.019 133.198 179.963C133.216 179.908 133.206 179.849 133.173 179.791C133.134 179.729 133.073 179.674 132.978 179.619ZM132.177 180.105C132.244 180.144 132.265 180.189 132.242 180.241C132.225 180.277 132.196 180.313 132.139 180.346L131.969 180.407C131.873 180.423 131.788 180.414 131.71 180.369C131.638 180.327 131.616 180.275 131.651 180.223L131.754 180.13C131.811 180.097 131.873 180.074 131.924 180.063C132.019 180.047 132.098 180.059 132.177 180.105Z" fill="#8D2D92"/>
<path d="M145.702 188.434L145.701 188.428L145.713 188.421L145.775 188.424C145.984 188.419 146.13 188.418 146.237 188.413L146.546 188.401C146.676 188.389 146.788 188.376 146.885 188.359C146.976 188.339 147.055 188.312 147.118 188.275C147.197 188.229 147.244 188.176 147.267 188.118C147.296 188.056 147.286 187.991 147.254 187.925C147.216 187.864 147.149 187.799 147.049 187.742C146.959 187.691 146.865 187.655 146.758 187.634C146.657 187.608 146.55 187.599 146.443 187.61C146.348 187.621 146.251 187.644 146.172 187.69L146.07 187.75L146.058 187.763L146.069 187.777L146.32 187.921L146.342 187.928L146.365 187.921L146.421 187.888L146.603 187.847C146.67 187.846 146.731 187.862 146.786 187.895C146.843 187.927 146.876 187.965 146.876 188.005L146.806 188.102C146.732 188.145 146.562 188.173 146.292 188.182L146.033 188.19C145.993 188.194 145.898 188.198 145.745 188.202C145.593 188.206 145.452 188.211 145.312 188.208L145.266 188.223L145.067 188.339L145.056 188.351L145.072 188.367L146.019 188.914L146.041 188.921L146.063 188.913L146.273 188.79L146.286 188.777L146.273 188.764L145.702 188.434Z" fill="#8D2D92"/>
<path d="M147.705 188.142L147.677 188.14L147.655 188.146L147.308 188.348L147.295 188.361L147.307 188.374L147.502 188.486L147.524 188.492L147.547 188.486L147.65 188.427H147.672L148.067 188.655L148.055 188.667L146.399 189.102L146.394 189.131L146.655 189.282L146.705 189.292L148.367 188.848L148.407 188.831L148.623 188.706L148.634 188.692L148.629 188.676L147.705 188.142Z" fill="#8D2D92"/>
<path d="M57.4663 151.651V151.644L57.4723 151.641L57.54 151.64C57.7426 151.639 57.8948 151.634 58.0021 151.63L58.3058 151.614C58.4413 151.606 58.554 151.593 58.6445 151.572C58.7397 151.555 58.8141 151.525 58.8711 151.492C58.9503 151.446 59.0079 151.394 59.0254 151.331C59.0549 151.269 59.0502 151.207 59.012 151.146C58.9791 151.081 58.9073 151.02 58.8068 150.962C58.7176 150.911 58.623 150.869 58.5157 150.847C58.4084 150.826 58.3085 150.82 58.2073 150.827C58.1 150.838 58.0094 150.865 57.9296 150.904L57.8277 150.964L57.8217 150.979L57.8264 150.996L58.0718 151.137L58.1053 151.144L58.1281 151.137L58.1791 151.107L58.3602 151.06C58.4332 151.063 58.4949 151.079 58.5506 151.11C58.6063 151.143 58.6338 151.179 58.6385 151.221L58.564 151.322C58.4956 151.362 58.326 151.389 58.0503 151.401L57.7969 151.407C57.7566 151.41 57.6621 151.414 57.5092 151.419C57.357 151.423 57.2054 151.428 57.0706 151.429L57.0311 151.439L56.8319 151.555L56.8198 151.568L56.8252 151.584L57.7774 152.134L57.8063 152.137L57.8284 152.13L58.0383 152.007L58.0497 151.995L58.039 151.981L57.4663 151.651Z" fill="#8D2D92"/>
<path d="M59.9536 151.624C59.8483 151.563 59.7363 151.525 59.6069 151.51C59.4782 151.495 59.3534 151.495 59.2354 151.525C59.1449 151.545 59.0483 151.582 58.9631 151.632C58.8659 151.688 58.8096 151.747 58.7747 151.806C58.7392 151.872 58.7325 151.933 58.7593 151.995C58.7861 152.057 58.8411 152.115 58.9249 152.163C59.0201 152.218 59.1201 152.244 59.2327 152.249L59.2381 152.252L59.2388 152.259L59.0336 152.378L58.8639 152.419L58.6902 152.378L58.6131 152.28L58.6828 152.183L58.7056 152.169L58.7177 152.156L58.7063 152.142L58.4555 151.998L58.4334 151.991L58.4106 151.998L58.3482 152.034C58.2745 152.078 58.2228 152.128 58.2101 152.186C58.1866 152.245 58.192 152.3 58.2349 152.359C58.2738 152.421 58.3341 152.476 58.4287 152.53C58.5179 152.582 58.6185 152.62 58.7251 152.642C58.8257 152.667 58.933 152.669 59.0282 152.659C59.1248 152.648 59.2146 152.615 59.2891 152.571L59.9375 152.195C60.0173 152.148 60.0797 152.099 60.1145 152.053C60.1722 151.981 60.1849 151.902 60.1528 151.831C60.1259 151.757 60.0602 151.686 59.9536 151.624ZM59.7571 151.926L59.6538 152.018C59.5975 152.051 59.5345 152.075 59.4782 152.081C59.3876 152.101 59.3038 152.086 59.232 152.044C59.165 152.005 59.1429 151.96 59.1616 151.904L59.2703 151.803L59.4399 151.743C59.5358 151.726 59.621 151.735 59.6927 151.777C59.7705 151.821 59.792 151.873 59.7571 151.926Z" fill="#8D2D92"/>
<path d="M73.6129 160.439C73.6766 160.338 73.6673 160.246 73.5734 160.159L73.562 160.153L73.5781 160.149L74.1078 160.158L74.1581 160.148L74.3975 160.009L74.4089 159.995L74.3928 159.98L73.5184 159.475L73.4909 159.465L73.4681 159.472L73.2575 159.594L73.2455 159.608L73.2562 159.627L73.7517 159.913L73.7578 159.917L73.741 159.92L73.1107 159.899L73.0825 159.909L73.0657 159.92L73.0181 160.097L73.0168 160.116L73.045 160.119L73.1462 160.131L73.2079 160.154C73.2797 160.196 73.3018 160.247 73.2669 160.306C73.2495 160.343 73.2039 160.382 73.1355 160.422C73.0785 160.455 73.0161 160.478 72.9544 160.489C72.8525 160.515 72.7626 160.504 72.6848 160.458L72.6185 160.38L72.6426 160.296L72.7224 160.223L72.7231 160.191L72.4723 160.046L72.422 160.05C72.3589 160.086 72.308 160.129 72.2791 160.172C72.2154 160.247 72.2034 160.326 72.2302 160.4C72.257 160.481 72.3174 160.55 72.4287 160.614C72.5346 160.675 72.658 160.713 72.7868 160.728C72.9155 160.743 73.051 160.736 73.175 160.702C73.2602 160.679 73.3454 160.642 73.4245 160.596C73.5097 160.544 73.572 160.495 73.6129 160.439Z" fill="#8D2D92"/>
<path d="M75.1438 160.393C74.9882 160.303 74.8253 160.256 74.6449 160.257C74.4705 160.256 74.3069 160.299 74.1587 160.385L73.5901 160.715C73.4365 160.804 73.3614 160.899 73.3594 161.004C73.3634 161.104 73.4405 161.202 73.5968 161.292C73.7523 161.382 73.92 161.426 74.0943 161.428C74.2801 161.43 74.4437 161.386 74.5979 161.298L75.1666 160.967C75.3148 160.881 75.3892 160.786 75.3798 160.681C75.3819 160.577 75.2994 160.484 75.1438 160.393ZM74.8709 160.79L74.2794 161.134C74.217 161.17 74.1433 161.194 74.0648 161.194C73.9924 161.198 73.9247 161.179 73.8576 161.141C73.7959 161.105 73.7624 161.067 73.7691 161.024C73.7704 160.978 73.81 160.935 73.8724 160.899L74.4645 160.555C74.5329 160.515 74.5999 160.495 74.6791 160.494C74.7522 160.491 74.8253 160.506 74.8863 160.542C74.9533 160.58 74.9808 160.622 74.9741 160.665C74.9741 160.711 74.9393 160.75 74.8709 160.79Z" fill="#8D2D92"/>
<path d="M89.0363 169.343C89.1053 169.244 89.0899 169.15 88.996 169.063L88.9906 169.059L89.002 169.053L89.5365 169.065L89.5868 169.055L89.8262 168.916L89.8316 168.9L89.8208 168.886L88.9404 168.379L88.9182 168.372L88.8961 168.379L88.6855 168.501L88.6735 168.515L88.6795 168.531L89.1744 168.817L89.1804 168.82L89.1684 168.827L88.5387 168.806L88.5051 168.813L88.4937 168.827L88.4401 169L88.4448 169.023L88.473 169.026L88.5735 169.038L88.6299 169.057C88.7077 169.102 88.7291 169.155 88.6889 169.21C88.6715 169.247 88.6259 169.285 88.5581 169.326C88.5005 169.358 88.4388 169.382 88.3824 169.395C88.2805 169.422 88.19 169.41 88.1122 169.365L88.0411 169.283L88.0646 169.199L88.145 169.126L88.1457 169.094L87.9009 168.952L87.8446 168.953C87.7876 168.993 87.736 169.035 87.7018 169.075C87.6441 169.153 87.626 169.228 87.6589 169.307C87.6797 169.385 87.7454 169.456 87.8513 169.517C87.9626 169.582 88.0807 169.616 88.2148 169.635C88.3435 169.65 88.4736 169.64 88.5977 169.606C88.6882 169.586 88.7734 169.549 88.8532 169.503C88.9383 169.451 88.9953 169.399 89.0363 169.343Z" fill="#8D2D92"/>
<path d="M90.2991 169.162L90.2609 169.147L89.935 169.077L89.8847 169.088L89.7083 169.196L89.7023 169.219L89.713 169.226L89.9759 169.312L89.9873 169.319L89.9759 169.325L88.799 170.009L88.793 170.025L88.7983 170.041L89.0431 170.183L89.0773 170.189L89.0994 170.183L90.5559 169.337L90.5673 169.324L90.5499 169.307L90.2991 169.162Z" fill="#8D2D92"/>
<path d="M107.004 114.026C107.042 113.817 107.017 113.625 106.913 113.453C106.815 113.277 106.656 113.048 106.436 112.769C106.232 112.52 106.089 112.332 106.008 112.206C105.925 112.079 105.888 111.966 105.9 111.874C105.908 111.779 105.977 111.694 106.102 111.621C106.279 111.519 106.488 111.475 106.712 111.493C106.948 111.51 107.178 111.584 107.412 111.719C107.712 111.893 107.872 112.07 107.891 112.253C107.91 112.442 107.818 112.593 107.602 112.718L107.545 112.751L107.504 112.807L107.543 112.855L108.4 113.35L108.484 113.372L108.58 113.349L108.694 113.282C109.012 113.097 109.219 112.88 109.296 112.642C109.373 112.404 109.333 112.162 109.174 111.913C109.016 111.663 108.75 111.431 108.371 111.212C108.015 111.006 107.646 110.859 107.248 110.774C106.856 110.686 106.468 110.667 106.085 110.708C105.707 110.753 105.368 110.861 105.061 111.04C104.754 111.218 104.569 111.415 104.521 111.624C104.467 111.836 104.496 112.044 104.599 112.249C104.709 112.451 104.873 112.683 105.088 112.939C105.275 113.179 105.407 113.354 105.478 113.467C105.55 113.581 105.586 113.688 105.579 113.783C105.571 113.878 105.509 113.959 105.389 114.029C105.224 114.125 105.02 114.172 104.779 114.164C104.532 114.153 104.28 114.073 104.018 113.923C103.706 113.742 103.529 113.561 103.488 113.373C103.441 113.188 103.522 113.037 103.726 112.918L103.84 112.852L103.875 112.799L103.842 112.748L102.995 112.259L102.9 112.237L102.815 112.261L102.645 112.359C102.325 112.544 102.126 112.751 102.048 112.984C101.97 113.216 102.01 113.457 102.181 113.699C102.351 113.949 102.633 114.185 103.029 114.413C103.614 114.75 104.212 114.937 104.825 114.975C105.449 115.013 105.991 114.891 106.463 114.617C106.782 114.432 106.967 114.235 107.004 114.026Z" fill="#FB8395"/>
<path d="M111.209 117.026L111.17 116.977L110.336 116.456C110.274 116.42 110.218 116.421 110.167 116.451C109.899 116.606 109.606 116.68 109.285 116.68C108.959 116.682 108.667 116.607 108.406 116.455C108.139 116.301 108.006 116.132 108.01 115.943C108.007 115.758 108.14 115.591 108.407 115.434L110.233 114.374C110.5 114.219 110.794 114.137 111.114 114.138C111.441 114.135 111.733 114.211 112 114.366C112.262 114.517 112.393 114.685 112.39 114.875C112.392 115.06 112.26 115.234 111.991 115.39L111.979 115.481L111.996 115.491L112.921 115.959C112.983 115.988 113.045 115.991 113.09 115.965C113.443 115.76 113.666 115.533 113.767 115.288C113.872 115.039 113.854 114.792 113.707 114.542C113.565 114.289 113.299 114.056 112.915 113.834C112.531 113.613 112.118 113.46 111.674 113.382C111.231 113.297 110.792 113.294 110.351 113.363C109.917 113.435 109.521 113.575 109.157 113.787L107.405 114.805C107.042 115.016 106.795 115.249 106.672 115.501C106.555 115.757 106.562 116.011 106.704 116.27C106.839 116.527 107.106 116.765 107.49 116.987C107.873 117.209 108.282 117.359 108.713 117.443C109.15 117.525 109.584 117.531 110.013 117.469C110.442 117.407 110.833 117.276 111.179 117.075L111.209 117.026Z" fill="#FB8395"/>
<path d="M119.3 117.62L119.268 117.568L118.398 117.067L118.309 117.048L118.218 117.069L116.177 118.254L116.098 118.255L114.462 117.31L114.462 117.264L116.503 116.078L116.538 116.025L116.505 115.973L115.636 115.472L115.547 115.453L115.457 115.473L110.327 118.454L110.292 118.506L110.325 118.559L111.194 119.06L111.283 119.079L111.374 119.059L113.466 117.842L113.545 117.842L115.182 118.787L115.182 118.833L113.089 120.049L113.054 120.101L113.087 120.153L113.956 120.654L114.045 120.674L114.136 120.653L119.266 117.672L119.3 117.62Z" fill="#FB8395"/>
<path d="M119.375 122.749L119.337 122.694L116.903 121.29L116.898 121.247L118.126 120.534L118.206 120.533L119.804 121.456L119.893 121.474L119.984 121.454L120.717 121.028L120.758 120.972L120.72 120.923L119.121 120.001L119.122 119.955L120.3 119.271L120.373 119.273L122.806 120.678L122.901 120.7L122.985 120.677L123.725 120.247L123.766 120.198L123.727 120.143L120.297 118.163L120.208 118.144L120.117 118.164L114.988 121.145L114.953 121.197L114.986 121.249L118.416 123.229L118.511 123.251L118.596 123.228L119.335 122.799L119.375 122.749Z" fill="#FB8395"/>
<path d="M127.347 123.123C127.442 122.894 127.412 122.66 127.264 122.423C127.116 122.18 126.862 121.954 126.489 121.738L124.635 120.667L124.545 120.648L124.454 120.669L119.324 123.649L119.29 123.702L119.322 123.753L121.176 124.824C121.55 125.039 121.942 125.186 122.362 125.271C122.77 125.356 123.175 125.372 123.571 125.316C123.971 125.265 124.328 125.147 124.647 124.963L126.74 123.747C127.058 123.562 127.259 123.356 127.347 123.123ZM125.516 123.246L123.776 124.257C123.503 124.41 123.22 124.49 122.922 124.495C122.624 124.507 122.367 124.444 122.138 124.312L121.241 123.795L121.236 123.752L124.637 121.776L124.71 121.779L125.601 122.293C125.834 122.428 125.944 122.584 125.936 122.757C125.916 122.93 125.783 123.09 125.516 123.246Z" fill="#FB8395"/>
<path d="M132.851 125.516L132.886 125.464L132.853 125.413L131.985 124.911L131.895 124.892L131.804 124.912L128.336 126.929C128.068 127.084 127.768 127.161 127.447 127.167C127.122 127.169 126.83 127.094 126.568 126.942C126.301 126.789 126.169 126.62 126.178 126.434C126.181 126.245 126.314 126.071 126.582 125.915L130.05 123.9L130.091 123.851L130.052 123.796L129.183 123.294L129.094 123.275L129.004 123.296L125.546 125.305C125.182 125.516 124.953 125.746 124.835 126.001C124.718 126.25 124.731 126.508 124.873 126.76C125.008 127.017 125.269 127.253 125.653 127.475C126.031 127.693 126.439 127.843 126.883 127.921C127.319 128.002 127.764 128.008 128.198 127.943C128.633 127.871 129.029 127.737 129.393 127.526L132.851 125.516Z" fill="#FB8395"/>
<path d="M132.96 130.593L132.923 130.538L130.496 129.136V129.097L134.761 126.619L134.796 126.566L134.763 126.514L133.894 126.013L133.798 125.99L133.714 126.014L128.585 128.995L128.544 129.044L128.583 129.099L132.002 131.073L132.097 131.095L132.182 131.072L132.921 130.642L132.96 130.593Z" fill="#FB8395"/>
<path d="M141.567 130.443L138.136 128.463L138.047 128.444L137.957 128.465L132.827 131.445L132.792 131.498L132.825 131.55L136.256 133.531L136.351 133.552L136.435 133.529L137.175 133.099L137.214 133.05L137.177 132.995L134.744 131.59L134.739 131.547L135.966 130.834L136.045 130.833L137.638 131.752L137.733 131.774L137.824 131.754L138.557 131.328L138.598 131.272L138.553 131.221L136.961 130.301L136.962 130.256L138.139 129.571L138.213 129.574L140.646 130.979L140.741 131.001L140.825 130.978L141.565 130.548L141.605 130.498L141.567 130.443Z" fill="#FB8395"/>
<path d="M198.942 175.791C199.09 175.705 199.164 175.61 199.161 175.508C199.162 175.405 199.086 175.307 198.93 175.217C198.774 175.127 198.606 175.083 198.425 175.084C198.251 175.083 198.087 175.126 197.939 175.211L197.37 175.542C197.216 175.631 197.141 175.726 197.145 175.828C197.143 175.932 197.22 176.029 197.377 176.119C197.533 176.209 197.7 176.254 197.88 176.252C198.055 176.254 198.219 176.21 198.372 176.121L198.942 175.791ZM197.852 176.018C197.774 176.019 197.7 176.003 197.639 175.968C197.578 175.932 197.55 175.89 197.551 175.844C197.545 175.802 197.586 175.759 197.649 175.722L198.24 175.378C198.309 175.339 198.376 175.319 198.455 175.318C198.533 175.317 198.606 175.333 198.667 175.368C198.729 175.404 198.757 175.446 198.755 175.492C198.755 175.537 198.72 175.577 198.652 175.616L198.061 175.96C197.998 175.997 197.924 176.021 197.852 176.018Z" fill="white"/>
<path d="M200.499 176.149L199.58 175.619L199.552 175.61L199.529 175.616L199.182 175.818L199.172 175.832L199.182 175.844L199.377 175.957L199.4 175.963L199.422 175.956L199.525 175.897H199.547L199.943 176.125L199.931 176.139L198.274 176.572L198.268 176.601L198.53 176.752L198.581 176.762L200.242 176.318L200.288 176.305L200.504 176.179L200.51 176.163L200.499 176.149Z" fill="white"/>
<path d="M186.814 182.413L186.803 182.4L186.547 182.252L186.508 182.236L186.183 182.174L186.131 182.177L185.956 182.286L185.949 182.316H185.961L186.229 182.404L186.235 182.408L186.229 182.417L185.051 183.102L185.04 183.115L185.051 183.134L185.296 183.276L185.324 183.279L185.347 183.272L186.802 182.426L186.814 182.413Z" fill="white"/>
<path d="M187.432 182.763L187.382 182.754L186.132 183.041L186.094 183.058L185.923 183.157L185.911 183.17L185.922 183.189L186.568 183.562L186.568 183.575L186.22 183.777L186.21 183.79L186.215 183.806L186.466 183.951L186.493 183.954L186.516 183.947L186.863 183.745H186.885L186.974 183.797L187.002 183.799L187.031 183.797L187.248 183.671L187.253 183.655L187.248 183.638L187.158 183.587V183.574L187.42 183.422L187.437 183.406L187.426 183.392L187.175 183.247L187.153 183.241L187.126 183.251L186.863 183.404H186.841L186.518 183.217L186.513 183.213L186.524 183.207L187.682 182.94L187.71 182.931L187.694 182.914L187.432 182.763Z" fill="white"/>
<path d="M173.286 190.197L173.274 190.191L173.286 190.184L173.353 190.183C173.556 190.182 173.707 190.177 173.815 190.179L174.118 190.165C174.253 190.157 174.361 190.14 174.456 190.122C174.547 190.102 174.627 190.075 174.689 190.039C174.768 189.993 174.815 189.941 174.845 189.878C174.868 189.819 174.863 189.757 174.825 189.689C174.793 189.624 174.721 189.563 174.626 189.508C174.532 189.454 174.436 189.418 174.335 189.393C174.229 189.371 174.122 189.362 174.027 189.373C173.919 189.384 173.823 189.408 173.743 189.453L173.646 189.509L173.63 189.526L173.641 189.539L173.891 189.684L173.914 189.69L173.942 189.68L173.993 189.65L174.179 189.606C174.241 189.609 174.304 189.624 174.363 189.66C174.42 189.692 174.447 189.728 174.452 189.764L174.383 189.868C174.309 189.91 174.14 189.932 173.864 189.943L173.611 189.955C173.571 189.953 173.476 189.957 173.317 189.965C173.165 189.969 173.025 189.973 172.889 189.975L172.839 189.986L172.64 190.101L172.634 190.117L172.645 190.13L173.591 190.677L173.614 190.684L173.642 190.68L173.852 190.558L173.858 190.541L173.852 190.525L173.286 190.197Z" fill="white"/>
<path d="M175.545 190.059L175.513 190.045L175.181 189.979L175.137 189.986L174.954 190.099L174.948 190.122L174.965 190.125L175.228 190.211L175.234 190.221L175.228 190.224L174.045 190.911L174.038 190.927L174.049 190.94L174.294 191.082L174.316 191.089L174.345 191.085L175.801 190.239L175.812 190.22L175.802 190.206L175.545 190.059Z" fill="white"/>
<path d="M160.853 197.184V197.177L160.865 197.171L160.927 197.173C161.13 197.165 161.282 197.167 161.388 197.163L161.693 197.148C161.828 197.14 161.94 197.126 162.031 197.106C162.127 197.089 162.2 197.059 162.263 197.022C162.343 196.976 162.394 196.927 162.412 196.865C162.442 196.803 162.437 196.741 162.404 196.676C162.366 196.615 162.3 196.55 162.199 196.493C162.11 196.441 162.01 196.403 161.903 196.381C161.803 196.356 161.702 196.35 161.595 196.361C161.493 196.368 161.402 196.395 161.317 196.438L161.215 196.497L161.209 196.513L161.221 196.526L161.466 196.668L161.493 196.677L161.516 196.67L161.573 196.637L161.749 196.593C161.821 196.597 161.883 196.612 161.938 196.644C161.994 196.676 162.021 196.712 162.027 196.754L161.957 196.852C161.883 196.895 161.714 196.922 161.443 196.931L161.185 196.94C161.144 196.943 161.049 196.947 160.896 196.952C160.745 196.957 160.598 196.958 160.464 196.959L160.419 196.973L160.22 197.089L160.208 197.102L160.22 197.115L161.172 197.665L161.193 197.672L161.216 197.665L161.427 197.542L161.439 197.529L161.427 197.515L160.853 197.184Z" fill="white"/>
<path d="M163.386 197.162C163.303 197.115 163.213 197.083 163.112 197.064C163.012 197.039 162.916 197.036 162.814 197.044C162.69 197.052 162.577 197.085 162.475 197.144C162.401 197.186 162.355 197.233 162.332 197.285L162.313 197.393L162.296 197.403L162.071 197.412C161.97 197.439 161.878 197.471 161.805 197.514C161.719 197.564 161.662 197.616 161.633 197.672C161.592 197.741 161.591 197.806 161.63 197.881C161.668 197.949 161.74 198.01 161.834 198.064C161.94 198.125 162.046 198.167 162.164 198.182C162.282 198.204 162.395 198.203 162.507 198.183C162.603 198.166 162.694 198.133 162.78 198.083C162.865 198.034 162.922 197.981 162.951 197.925L162.976 197.789L162.987 197.782L163.168 197.774C163.264 197.763 163.349 197.733 163.423 197.69C163.519 197.634 163.576 197.568 163.595 197.494C163.613 197.438 163.603 197.379 163.564 197.324C163.53 197.266 163.474 197.214 163.386 197.162ZM162.614 197.797L162.506 197.893C162.443 197.929 162.38 197.952 162.319 197.956C162.235 197.967 162.157 197.954 162.09 197.915C162.022 197.877 161.995 197.828 162.024 197.779L162.122 197.677C162.179 197.644 162.241 197.621 162.297 197.614C162.382 197.598 162.466 197.612 162.539 197.655C162.616 197.7 162.637 197.745 162.614 197.797ZM163.189 197.464L163.12 197.523L162.972 197.577C162.888 197.587 162.816 197.571 162.749 197.533C162.681 197.494 162.654 197.452 162.672 197.403L162.758 197.321L162.871 197.281L163.001 197.276L163.118 197.312L163.19 197.386L163.189 197.464Z" fill="white"/>
<path d="M90.3025 108.175C89.312 106.649 88.681 104.852 88.6857 103.251C88.6904 101.833 89.1926 100.833 90.0034 100.361L86.0664 101.969C85.257 102.439 84.7534 103.439 84.75 104.858C84.7447 106.523 85.8189 108.406 87.2057 109.974L90.3025 108.175Z" fill="#8D2D92" fill-opacity="0.19" stroke="#8D2D92" stroke-miterlimit="10" stroke-linejoin="round"/>
<path d="M93.2184 98.0929C91.3434 97.0106 89.6428 96.9113 88.4137 97.6269L85.624 99.2477C86.8539 98.5335 97.1762 107.098 97.1628 111.377L99.9524 109.756C99.9638 105.477 96.9448 100.244 93.2184 98.0929Z" fill="white" stroke="#8D2D92" stroke-miterlimit="10" stroke-linejoin="round"/>
<path d="M90.4292 99.7123C86.7048 97.5624 83.6623 99.2959 83.6509 103.576C83.6442 105.892 84.53 108.482 85.9296 110.716L87.5135 109.795C86.523 108.27 85.8927 106.472 85.8974 104.872C85.9054 102.015 87.9359 100.858 90.4218 102.293C92.9097 103.73 94.9281 107.224 94.9194 110.08L97.1625 111.376C97.1753 107.097 94.1549 101.864 90.4292 99.7123Z" fill="white" stroke="#8D2D92" stroke-miterlimit="10" stroke-linejoin="round"/>
<path d="M72.8388 118.333C71.847 116.808 71.2166 115.01 71.2213 113.409C71.2267 111.991 71.7283 110.99 72.539 110.52L68.602 112.128C67.7926 112.598 67.2897 113.598 67.2857 115.017C67.2803 116.682 68.3546 118.565 69.7413 120.133L72.8388 118.333Z" fill="#8D2D92" fill-opacity="0.19" stroke="#8D2D92" stroke-miterlimit="10" stroke-linejoin="round"/>
<path d="M75.7537 108.249C73.8781 107.167 72.1782 107.068 70.9483 107.783L68.1587 109.404C69.3885 108.69 79.7108 117.254 79.6974 121.533L82.4871 119.913C82.4985 115.633 79.4802 110.4 75.7537 108.249Z" fill="white" stroke="#8D2D92" stroke-miterlimit="10" stroke-linejoin="round"/>
<path d="M72.9642 109.871C69.2397 107.721 66.198 109.454 66.1866 113.734C66.1792 116.05 67.0657 118.64 68.4652 120.874L70.0485 119.953C69.058 118.429 68.4283 116.63 68.4324 115.03C68.4404 112.173 70.4716 111.017 72.9568 112.452C75.4447 113.889 77.4631 117.382 77.4551 120.238L79.6975 121.534C79.7102 117.256 76.6899 112.022 72.9642 109.871Z" fill="white" stroke="#8D2D92" stroke-miterlimit="10" stroke-linejoin="round"/>
<path d="M55.3726 128.49C54.3821 126.965 53.7511 125.167 53.7558 123.566C53.7605 122.148 54.2628 121.147 55.0742 120.676L51.1372 122.284C50.3278 122.754 49.8235 123.754 49.8208 125.173C49.8148 126.838 50.8897 128.721 52.2765 130.289L55.3726 128.49Z" fill="#8D2D92" fill-opacity="0.19" stroke="#8D2D92" stroke-miterlimit="10" stroke-linejoin="round"/>
<path d="M58.2885 118.408C56.4142 117.325 54.713 117.226 53.4845 117.942L50.6948 119.562C51.9247 118.847 62.247 127.413 62.2336 131.692L65.0232 130.071C65.0353 125.791 62.0156 120.558 58.2885 118.408Z" fill="white" stroke="#8D2D92" stroke-miterlimit="10" stroke-linejoin="round"/>
<path d="M55.5002 120.027C51.7751 117.877 48.7326 119.61 48.7212 123.889C48.7145 126.206 49.6017 128.797 50.9999 131.03L52.5845 130.109C51.5927 128.585 50.963 126.786 50.9684 125.186C50.9764 122.329 53.0063 121.173 55.4921 122.608C57.98 124.045 59.9991 127.539 59.9897 130.395L62.2335 131.69C62.2462 127.412 59.2253 122.179 55.5002 120.027Z" fill="white" stroke="#8D2D92" stroke-miterlimit="10" stroke-linejoin="round"/>
<path d="M37.9084 138.646C36.9173 137.121 36.2869 135.322 36.2916 133.722C36.2963 132.303 36.7986 131.303 37.6093 130.832L33.6723 132.439C32.8629 132.91 32.3593 133.909 32.356 135.329C32.3506 136.994 33.4249 138.877 34.8117 140.445L37.9084 138.646Z" fill="#8D2D92" fill-opacity="0.19" stroke="#8D2D92" stroke-miterlimit="10" stroke-linejoin="round"/>
<path d="M40.8243 128.563C38.9494 127.48 37.2488 127.381 36.0196 128.097L33.23 129.717C34.4598 129.003 44.7821 137.568 44.7687 141.847L47.5583 140.226C47.5704 135.946 44.5514 130.714 40.8243 128.563Z" fill="white" stroke="#8D2D92" stroke-miterlimit="10" stroke-linejoin="round"/>
<path d="M38.0351 130.182C34.3107 128.032 31.2683 129.766 31.2569 134.045C31.2502 136.361 32.1367 138.952 33.5355 141.186L35.1194 140.265C34.1283 138.74 33.4986 136.942 33.5033 135.342C33.5114 132.485 35.5419 131.328 38.0278 132.763C40.5156 134.2 42.5341 137.694 42.5254 140.55L44.7685 141.846C44.7812 137.567 41.7616 132.334 38.0351 130.182Z" fill="white" stroke="#8D2D92" stroke-miterlimit="10" stroke-linejoin="round"/>
<path d="M132.545 32.8946C125.715 28.784 114.409 28.67 107.289 32.6391C102.246 35.4516 100.658 39.5596 102.591 43.1774C103.848 45.5318 105.106 47.8855 106.363 50.2399L133.005 50.1655C134.248 47.8044 135.493 45.4439 136.737 43.0821C138.566 39.6105 137.188 35.689 132.545 32.8946Z" fill="#8D2D92" fill-opacity="0.19" stroke="#8D2D92" stroke-miterlimit="10" stroke-linejoin="round"/>
<path d="M129.734 42.2159C135.062 45.4233 134.88 50.5331 129.326 53.6299C123.772 56.7266 114.95 56.6374 109.622 53.4307C104.293 50.224 104.476 45.1135 110.029 42.0167C115.583 38.9193 124.405 39.0091 129.734 42.2159Z" fill="#8D2D92" fill-opacity="0.19" stroke="#8D2D92" stroke-miterlimit="10" stroke-linejoin="round"/>
<path d="M103.081 74.4139L96.6665 41.6445C97.2177 44.4603 99.3106 45.9973 102.961 48.1948C111.807 53.5185 126.454 53.6674 135.674 48.5254C139.749 46.2534 142.082 44.5273 142.654 41.5117L136.425 74.3173C136.01 76.5034 134.318 78.6232 131.365 80.2701C124.679 83.9972 114.059 83.8913 107.645 80.0307C104.998 78.4374 103.481 76.4545 103.081 74.4139Z" fill="white" stroke="#8D2D92" stroke-miterlimit="10" stroke-linejoin="round"/>
<path d="M136.351 30.7705C145.197 36.0949 144.894 44.5791 135.673 49.7212C126.453 54.8632 111.806 54.7143 102.959 49.3906C94.1131 44.0662 94.4162 35.5813 103.637 30.4399C112.858 25.2985 127.505 25.4467 136.351 30.7705ZM132.544 32.8936C125.714 28.7829 114.408 28.6689 107.289 32.6381C100.17 36.6072 99.9364 43.1575 106.766 47.2675C113.596 51.3775 124.904 51.4922 132.022 47.523C139.14 43.5538 139.375 37.0042 132.544 32.8936Z" fill="white" stroke="#8D2D92" stroke-miterlimit="10" stroke-linejoin="round"/>
<path d="M118.936 45.8413C116.895 39.1327 111.979 31.7288 120.915 16.6762C126.543 7.19753 134.458 1 134.458 1C134.458 1 140.155 26.7826 118.936 45.8413Z" fill="#9DD692" stroke="#8D2D92" stroke-miterlimit="10" stroke-linejoin="round"/>
<path d="M118.936 45.8413C118.936 45.8413 117.797 25.821 134.459 1" stroke="#8D2D92" stroke-miterlimit="10" stroke-linejoin="round"/>
<path d="M119.354 38.9471C119.354 38.9471 125.058 34.6996 131.095 29.0801" stroke="#8D2D92" stroke-miterlimit="10" stroke-linejoin="round"/>
<path d="M121.474 28.6368C121.474 28.6368 128.827 22.5975 134.469 17.4971" stroke="#8D2D92" stroke-miterlimit="10" stroke-linejoin="round"/>
<path d="M125.727 16.792C125.727 16.792 132.218 11.0766 135.144 8.03418" stroke="#8D2D92" stroke-miterlimit="10" stroke-linejoin="round"/>
<path d="M127.104 13.8008C127.104 13.8008 126.689 11.1627 126.561 8.8291" stroke="#8D2D92" stroke-miterlimit="10" stroke-linejoin="round"/>
<path d="M122.077 26.5748C122.077 26.5748 120.648 22.7096 119.909 18.4453" stroke="#8D2D92" stroke-miterlimit="10" stroke-linejoin="round"/>
<path d="M119.529 37.6824C119.529 37.6824 117.513 34.2872 115.88 30.1953" stroke="#8D2D92" stroke-miterlimit="10" stroke-linejoin="round"/>
<path d="M120.198 48.5104C122.565 41.9098 123.039 33.0346 139.192 26.2892C149.365 22.0418 159.414 21.793 159.414 21.793C159.414 21.793 148.599 45.881 120.198 48.5104Z" fill="#9DD692" stroke="#8D2D92" stroke-miterlimit="10" stroke-linejoin="round"/>
<path d="M120.198 48.5104C120.198 48.5104 131.233 31.7666 159.414 21.793" stroke="#8D2D92" stroke-miterlimit="10" stroke-linejoin="round"/>
<path d="M124.649 43.228C124.649 43.228 131.761 43.224 139.958 42.3174" stroke="#8D2D92" stroke-miterlimit="10" stroke-linejoin="round"/>
<path d="M132.502 36.2207C132.502 36.2207 142.006 35.7627 149.578 35.0371" stroke="#8D2D92" stroke-miterlimit="10" stroke-linejoin="round"/>
<path d="M142.984 29.2533C142.984 29.2533 151.603 28.5404 155.766 27.8457" stroke="#8D2D92" stroke-miterlimit="10" stroke-linejoin="round"/>
<path d="M145.874 27.6752C145.874 27.6752 147.115 25.31 148.403 23.3613" stroke="#8D2D92" stroke-miterlimit="10" stroke-linejoin="round"/>
<path d="M134.217 34.9254C134.217 34.9254 135.377 30.9716 137.329 27.1084" stroke="#8D2D92" stroke-miterlimit="10" stroke-linejoin="round"/>
<path d="M125.544 42.3186C125.544 42.3186 125.952 38.3917 127.084 34.1328" stroke="#8D2D92" stroke-miterlimit="10" stroke-linejoin="round"/>
<path d="M118.03 46.2733C116.356 39.4642 116.798 30.5877 101.425 22.2154C91.7434 16.9433 81.7725 15.6611 81.7725 15.6611C81.7725 15.6611 90.0508 40.7343 118.03 46.2733Z" fill="#9DD692" stroke="#8D2D92" stroke-miterlimit="10" stroke-linejoin="round"/>
<path d="M118.031 46.2733C118.031 46.2733 108.778 28.4827 81.7734 15.6611" stroke="#8D2D92" stroke-miterlimit="10" stroke-linejoin="round"/>
<path d="M114.147 40.5609C114.147 40.5609 107.074 39.8246 99.0132 38.0791" stroke="#8D2D92" stroke-miterlimit="10" stroke-linejoin="round"/>
<path d="M107.057 32.7828C107.057 32.7828 97.6515 31.3484 90.1953 29.8477" stroke="#8D2D92" stroke-miterlimit="10" stroke-linejoin="round"/>
<path d="M97.3484 24.7725C97.3484 24.7725 88.8474 23.1765 84.7783 22.0566" stroke="#8D2D92" stroke-miterlimit="10" stroke-linejoin="round"/>
<path d="M94.636 22.9064C94.636 22.9064 93.6442 20.4259 92.5625 18.3545" stroke="#8D2D92" stroke-miterlimit="10" stroke-linejoin="round"/>
<path d="M105.484 31.3196C105.484 31.3196 104.737 27.2673 103.193 23.2236" stroke="#8D2D92" stroke-miterlimit="10" stroke-linejoin="round"/>
<path d="M113.35 39.5632C113.35 39.5632 113.349 35.6148 112.662 31.2627" stroke="#8D2D92" stroke-miterlimit="10" stroke-linejoin="round"/>
<path d="M118.358 47.0992C118.358 47.0992 123.502 41.7205 130.997 42.6801C137.104 45.2404 141.221 51.2475 140.85 63.2073C133.926 61.04 123.084 55.1087 118.329 52.417C116.852 51.5801 116.389 49.9546 117.193 48.6785C117.52 48.1601 117.909 47.6129 118.358 47.0992Z" fill="#9DD692" stroke="#8D2D92" stroke-miterlimit="10" stroke-linejoin="round"/>
<path d="M118.847 46.6406C124.653 44.836 132.396 48.1004 140.851 63.2067" stroke="#8D2D92" stroke-miterlimit="10" stroke-linejoin="round"/>
<path d="M121.986 46.1956C121.986 46.1956 126.118 43.3074 130.996 42.6797" stroke="#8D2D92" stroke-miterlimit="10" stroke-linejoin="round"/>
<path d="M128.771 48.5273C128.771 48.5273 134.027 48.6641 138.519 49.7438" stroke="#8D2D92" stroke-miterlimit="10" stroke-linejoin="round"/>
<path d="M134.951 54.3418C134.951 54.3418 138.44 55.4342 140.504 56.3757" stroke="#8D2D92" stroke-miterlimit="10" stroke-linejoin="round"/>
<path d="M133.932 53.1445C133.932 53.1445 133.502 57.1727 133.302 60.1897" stroke="#8D2D92" stroke-miterlimit="10" stroke-linejoin="round"/>
<path d="M128.103 48.1084C128.103 48.1084 128.139 53.8332 127.819 57.5261" stroke="#8D2D92" stroke-miterlimit="10" stroke-linejoin="round"/>
<path d="M120.456 46.2627C120.456 46.2627 118.919 48.5836 119.299 52.9632" stroke="#8D2D92" stroke-miterlimit="10" stroke-linejoin="round"/>
<path d="M119.385 46.3592C119.385 46.3592 113.051 39.7365 103.823 40.9174C96.3032 44.0705 91.2349 51.4657 91.6916 66.1917C100.217 63.5228 113.566 56.2201 119.42 52.9061C121.238 51.8761 121.809 49.8744 120.819 48.3032C120.417 47.6641 119.937 46.9909 119.385 46.3592Z" fill="#9DD692" stroke="#8D2D92" stroke-miterlimit="10" stroke-linejoin="round"/>
<path d="M118.783 45.7952C111.634 43.5735 102.101 47.5923 91.6919 66.1923" stroke="#8D2D92" stroke-miterlimit="10" stroke-linejoin="round"/>
<path d="M114.917 45.2456C114.917 45.2456 109.829 41.6895 103.823 40.917" stroke="#8D2D92" stroke-miterlimit="10" stroke-linejoin="round"/>
<path d="M106.564 48.1182C106.564 48.1182 100.094 48.2865 94.563 49.6156" stroke="#8D2D92" stroke-miterlimit="10" stroke-linejoin="round"/>
<path d="M98.9549 55.2764C98.9549 55.2764 94.6578 56.6209 92.1177 57.7803" stroke="#8D2D92" stroke-miterlimit="10" stroke-linejoin="round"/>
<path d="M100.209 53.7998C100.209 53.7998 100.738 58.7594 100.984 62.4745" stroke="#8D2D92" stroke-miterlimit="10" stroke-linejoin="round"/>
<path d="M107.386 47.6016C107.386 47.6016 107.342 54.6501 107.736 59.1966" stroke="#8D2D92" stroke-miterlimit="10" stroke-linejoin="round"/>
<path d="M116.803 45.3281C116.803 45.3281 118.695 48.1855 118.226 53.5776" stroke="#8D2D92" stroke-miterlimit="10" stroke-linejoin="round"/>
<path d="M202.047 27.993C191.124 21.9067 181.281 21.434 174.134 25.5869C170.686 27.5906 150.971 38.8725 147.523 40.8769C147.579 40.844 147.637 40.8138 147.693 40.7823C140.207 45.0311 135.63 54.3026 135.791 67.485L135.797 67.9141L175.176 135.702C175.302 135.775 175.425 135.848 175.55 135.921C175.892 136.121 176.235 136.317 176.578 136.509C187.591 142.645 197.506 143.073 204.666 138.808C204.607 138.843 204.55 138.88 204.491 138.915C207.94 136.911 227.654 125.629 231.102 123.625C238.488 119.333 242.993 110.099 242.834 97.0161C242.517 71.2731 224.257 40.3699 202.047 27.993Z" fill="#8D2D92" fill-opacity="0.19" stroke="#8D2D92" stroke-miterlimit="10" stroke-linejoin="round"/>
<path d="M209.758 108.704L175.148 50.5505C156.299 40.0465 141.234 49.2436 141.502 71.0918C141.768 92.9408 157.267 119.168 176.118 129.673C194.967 140.177 210.032 130.98 209.764 109.131L209.758 108.704Z" fill="#8D2D92" fill-opacity="0.19" stroke="#8D2D92" stroke-miterlimit="10" stroke-linejoin="round"/>
<path d="M212.159 107.309C212.422 128.915 197.527 138.009 178.885 127.621C160.246 117.235 144.92 91.2979 144.656 69.6924C144.39 48.0862 159.287 38.9917 177.928 49.3797C196.568 59.7677 211.895 85.7032 212.159 107.309Z" fill="white" stroke="#8D2D92" stroke-miterlimit="10" stroke-linejoin="round"/>
<path d="M177.467 90.6809L177.516 94.8633C177.524 95.4876 177.969 96.236 178.507 96.5351C179.044 96.8341 179.472 96.5726 179.466 95.9496L179.415 91.7686C179.116 91.7458 178.789 91.6425 178.445 91.45C178.098 91.2576 177.768 90.9934 177.467 90.6809ZM178.049 59.1708C177.511 58.8717 177.079 59.1319 177.087 59.7582L177.4 85.2377C177.697 85.2605 178.027 85.3638 178.371 85.5563C178.717 85.7494 179.046 86.0129 179.347 86.3241L179.035 60.8439C179.027 60.2176 178.586 59.4699 178.049 59.1708Z" fill="#8D2D92"/>
<path d="M178.398 87.7984C178.059 87.6099 177.792 87.7729 177.797 88.1659C177.801 88.5548 178.077 89.0215 178.416 89.2106C178.752 89.397 179.023 89.2354 179.018 88.8465C179.013 88.4535 178.733 87.9855 178.398 87.7984ZM176.451 85.5137C176.077 85.8175 175.857 86.3586 175.867 87.0896C175.869 87.2894 175.889 87.4953 175.923 87.7025L172.887 87.9647C172.495 87.9989 172.358 88.4938 172.584 89.0772C172.737 89.4715 173.016 89.8014 173.305 89.9623C173.436 90.0354 173.574 90.0717 173.699 90.0636L176.769 89.7981C176.976 90.1186 177.211 90.417 177.466 90.6812C177.767 90.9937 178.097 91.2572 178.444 91.4504C178.788 91.6422 179.115 91.7461 179.413 91.7689C179.556 91.7796 179.694 91.7709 179.82 91.7461L179.005 90.238C178.829 90.2366 178.633 90.1883 178.426 90.0737C177.679 89.6559 177.066 88.6151 177.054 87.7521C177.05 87.4336 177.129 87.1881 177.263 87.0171L176.451 85.5137ZM191.784 86.4767C191.65 86.4022 191.515 86.364 191.391 86.3741L180.128 87.3424C179.9 86.9722 179.636 86.6262 179.346 86.3244C179.045 86.0126 178.716 85.7497 178.371 85.5566C178.025 85.3641 177.697 85.2616 177.399 85.2381C177.23 85.2253 177.072 85.2387 176.925 85.2763L177.737 86.7764C177.93 86.7603 178.149 86.8046 178.388 86.938C179.132 87.3531 179.749 88.3925 179.76 89.2589C179.763 89.6076 179.666 89.8725 179.5 90.0388L180.309 91.5349C180.714 91.2411 180.958 90.6846 180.947 89.9214C180.946 89.7618 180.93 89.6016 180.907 89.4406L192.202 88.473C192.594 88.4388 192.73 87.9439 192.505 87.3605C192.352 86.9662 192.071 86.6363 191.784 86.4767Z" fill="#8D2D92"/>
<path d="M178.828 56.9892L178.784 53.3533C178.777 52.8363 178.406 52.2127 177.96 51.9632C177.51 51.7131 177.153 51.9303 177.16 52.4487L177.204 56.0846C177.211 56.6063 177.578 57.228 178.028 57.4788C178.475 57.7275 178.835 57.5109 178.828 56.9892Z" fill="#8D2D92"/>
<path d="M192.563 69.3643L194.094 67.089C194.312 66.7651 194.175 66.1153 193.782 65.6419C193.654 65.485 193.514 65.3656 193.375 65.2898C193.095 65.1343 192.824 65.1504 192.677 65.3656L191.147 67.6429C190.93 67.9661 191.07 68.6153 191.461 69.092C191.589 69.249 191.729 69.367 191.866 69.4434C192.148 69.601 192.418 69.5836 192.563 69.3643Z" fill="#8D2D92"/>
<path d="M202.108 86.7723C202.245 86.8487 202.383 86.8863 202.51 86.8708L205.204 86.5664C205.589 86.5228 205.715 86.0232 205.487 85.4492C205.331 85.0636 205.056 84.7411 204.776 84.5848C204.638 84.5084 204.5 84.4708 204.372 84.4856L201.679 84.79C201.293 84.8343 201.168 85.3372 201.395 85.9066C201.551 86.2935 201.826 86.616 202.108 86.7723Z" fill="#8D2D92"/>
<path d="M209.111 104.68L205.974 102.931C205.523 102.681 205.166 102.898 205.173 103.42C205.18 103.937 205.546 104.563 205.996 104.814L209.133 106.561C209.579 106.81 209.939 106.591 209.933 106.072C209.927 105.551 209.557 104.929 209.111 104.68Z" fill="#8D2D92"/>
<path d="M202.881 117.206C202.753 117.051 202.613 116.933 202.476 116.856C202.195 116.699 201.924 116.715 201.776 116.933C201.558 117.258 201.699 117.909 202.09 118.386L204.828 121.714C204.958 121.871 205.098 121.991 205.237 122.069C205.518 122.224 205.787 122.208 205.934 121.991C206.151 121.664 206.012 121.015 205.62 120.538L202.881 117.206Z" fill="#8D2D92"/>
<path d="M193.23 123.791C193.076 123.405 192.802 123.085 192.522 122.929C192.384 122.853 192.247 122.816 192.119 122.829C191.734 122.874 191.607 123.374 191.837 123.949L193.444 127.971C193.599 128.358 193.874 128.679 194.154 128.834C194.292 128.912 194.431 128.949 194.558 128.936C194.94 128.89 195.068 128.39 194.837 127.812L193.23 123.791Z" fill="#8D2D92"/>
<path d="M178.787 119.53C178.338 119.279 177.981 119.497 177.987 120.018L178.032 123.655C178.037 124.175 178.405 124.798 178.855 125.048C179.302 125.297 179.658 125.079 179.652 124.558L179.608 120.922C179.602 120.4 179.234 119.778 178.787 119.53Z" fill="#8D2D92"/>
<path d="M164.945 107.56C164.664 107.404 164.394 107.421 164.248 107.64L162.719 109.914C162.499 110.239 162.641 110.891 163.032 111.366C163.16 111.522 163.3 111.64 163.436 111.716C163.716 111.871 163.987 111.856 164.134 111.638L165.664 109.364C165.884 109.039 165.741 108.388 165.35 107.912C165.223 107.754 165.082 107.636 164.945 107.56Z" fill="#8D2D92"/>
<path d="M154.704 90.2339C154.567 90.1568 154.428 90.1193 154.301 90.134L151.607 90.4391C151.222 90.4834 151.097 90.985 151.326 91.5603C151.479 91.9453 151.753 92.2638 152.034 92.42C152.171 92.4972 152.311 92.534 152.439 92.5193L155.133 92.2155C155.517 92.1706 155.645 91.673 155.415 91.0976C155.261 90.7114 154.985 90.3902 154.704 90.2339Z" fill="#8D2D92"/>
<path d="M151.64 73.5875C151.633 73.0671 151.266 72.4455 150.816 72.1947L147.68 70.4465C147.232 70.1984 146.872 70.4143 146.882 70.9367C146.886 71.453 147.255 72.076 147.703 72.3255L150.839 74.0737C151.289 74.3238 151.645 74.1052 151.64 73.5875Z" fill="#8D2D92"/>
<path d="M153.933 59.8008C154.061 59.9577 154.2 60.0764 154.339 60.1521C154.619 60.3077 154.888 60.2903 155.035 60.0723C155.255 59.7478 155.113 59.0966 154.722 58.6232L151.984 55.2911C151.855 55.1348 151.715 55.0168 151.578 54.9397C151.298 54.7834 151.027 54.8016 150.881 55.0202C150.661 55.342 150.803 55.9925 151.191 56.4673L153.933 59.8008Z" fill="#8D2D92"/>
<path d="M164.291 54.0782C164.428 54.1547 164.566 54.1916 164.692 54.1755C165.078 54.1319 165.205 53.6303 164.975 53.0589L163.368 49.0334C163.215 48.6492 162.942 48.3293 162.662 48.1737C162.525 48.0966 162.384 48.0597 162.258 48.0745C161.872 48.1154 161.745 48.6163 161.974 49.1917L163.581 53.2138C163.736 53.6001 164.011 53.922 164.291 54.0782Z" fill="#8D2D92"/>
<path d="M178.416 89.2086C178.077 89.0202 177.802 88.5534 177.797 88.1638C177.792 87.7709 178.06 87.6079 178.398 87.7964C178.734 87.9834 179.013 88.4515 179.018 88.8445C179.023 89.2334 178.752 89.395 178.416 89.2086ZM174.454 80.8914C174.378 80.8491 174.302 80.8377 174.242 80.8665C174.109 80.9276 174.097 81.1569 174.219 81.3822L176.452 85.513L177.264 87.0165C177.131 87.1875 177.051 87.4329 177.055 87.7514C177.067 88.6145 177.68 89.6552 178.427 90.073C178.634 90.1877 178.83 90.2359 179.006 90.2373L179.821 91.7454L194.504 118.911C194.57 119.029 194.661 119.125 194.748 119.174C194.824 119.216 194.903 119.23 194.963 119.199C195.096 119.139 195.105 118.905 194.986 118.684L180.309 91.5349L179.499 90.0388C179.665 89.8725 179.763 89.6076 179.76 89.2589C179.748 88.3925 179.132 87.3531 178.388 86.938C178.148 86.8046 177.93 86.7596 177.736 86.7764L176.924 85.2763L174.699 81.1576C174.634 81.0349 174.544 80.9417 174.454 80.8914Z" fill="#FB2143"/>
<path d="M215.468 112.313C215.78 137.814 198.198 148.546 176.198 136.286C154.197 124.027 136.11 93.4151 135.797 67.9148C135.485 42.4152 153.067 31.6811 175.067 43.9407C197.067 56.201 215.155 86.8125 215.468 112.313ZM209.764 109.134C209.496 87.2853 193.998 61.0581 175.148 50.5527C156.298 40.0487 141.233 49.2457 141.501 71.094C141.768 92.943 157.266 119.17 176.117 129.675C194.967 140.18 210.031 130.983 209.764 109.134Z" fill="#8D2D92" fill-opacity="0.19" stroke="#8D2D92" stroke-miterlimit="10" stroke-linejoin="round"/>
<path d="M69.2453 88.3486L1.17969 88.5525C1.18639 90.868 1.1931 93.1835 1.19913 95.4991C1.21322 100.256 4.18122 105.018 10.1776 108.785C22.8979 116.777 44.427 117.26 58.2645 109.866C65.5792 105.957 69.2808 100.63 69.2654 95.2952C69.2587 92.9804 69.252 90.6642 69.2453 88.3486Z" fill="#8D2D92" fill-opacity="0.19" stroke="#8D2D92" stroke-miterlimit="10" stroke-linejoin="round"/>
<path d="M58.2454 102.918C44.4079 110.312 22.8788 109.828 10.1585 101.838C-2.56177 93.8462 -1.65581 81.3741 12.1817 73.9802C26.0192 66.5863 47.5483 67.0698 60.2686 75.0612C72.9882 83.0519 72.0823 95.524 58.2454 102.918Z" fill="#8D2D92" fill-opacity="0.19" stroke="#8D2D92" stroke-miterlimit="10" stroke-linejoin="round"/>
<path d="M62.7369 82.6959C62.6491 82.0266 62.4177 81.1535 62.2507 80.499C61.9691 79.3926 61.4051 77.9709 60.9773 76.9114C60.7392 76.3247 60.3241 75.5863 60.0365 75.0231C60.0251 75.0016 58.8549 72.7867 56.8974 70.5603C55.2659 68.7062 53.8657 67.542 52.5943 66.561C51.9224 66.0426 50.9896 65.3975 50.2661 64.9529C49.3655 64.399 48.1336 63.711 47.1894 63.2362C44.8819 62.0754 42.3263 61.2459 41.4868 60.9737C40.6935 60.7161 40.2562 60.5747 39.7533 60.2984C39.0492 59.9114 38.6998 59.6097 38.1701 59.1523C39.0653 59.9805 38.8433 61.0877 37.5545 61.7763C36.0993 62.5542 33.8354 62.5026 32.4976 61.663C31.3864 60.9643 31.2637 59.941 32.0899 59.1684C31.4294 59.7807 30.913 60.1012 30.4537 60.3561C29.9963 60.6095 29.4753 60.7812 28.7537 61.0199C25.5068 62.0915 23.8169 62.923 22.2336 63.7505C22.2142 63.7606 20.1159 64.8959 18.7721 65.8756C18.0297 66.4174 17.0614 67.1712 16.3553 67.7593C15.906 68.1335 15.3541 68.684 14.9249 69.081C14.2094 69.7435 13.3538 70.7327 12.7509 71.4998C12.1072 72.3193 11.334 73.4774 10.7754 74.3578C10.7599 74.384 9.113 77.0033 8.17955 80.4749C7.82749 81.7886 7.56797 83.5904 7.39362 84.939C7.30242 85.6431 7.32522 86.594 7.29639 87.3035C7.30779 91.2049 9.74201 95.1111 14.6594 98.2004C25.093 104.755 42.7508 105.152 54.0998 99.0869C60.0995 95.8816 63.1352 91.5114 63.1225 87.1365C63.0655 85.8007 62.9113 84.0216 62.7369 82.6959Z" fill="white" stroke="#8D2D92" stroke-miterlimit="10" stroke-linejoin="round"/>
<path d="M53.9469 45.1507C42.5973 51.2154 24.9395 50.8184 14.5072 44.2642C9.92847 41.3873 7.50499 37.8031 7.18311 34.1732C7.24748 35.3675 7.35209 36.7402 7.52913 37.8098C7.72024 38.9679 8.0904 40.4995 8.50281 41.5979C8.95076 42.7922 9.58849 44.3815 10.2309 45.4839C10.7499 46.3758 11.5043 47.5292 12.0978 48.3742C12.4472 48.8704 12.9662 49.4947 13.3692 49.9474C14.8244 51.5796 19.2509 56.5452 28.7605 59.5286C29.3439 59.7117 29.9467 59.9008 30.5422 60.2274C31.2135 60.5949 31.583 60.9141 32.0946 61.356C32.2106 61.4633 32.3441 61.5652 32.4976 61.6618C33.8355 62.502 36.0993 62.553 37.5545 61.7751C38.211 61.1213 38.9768 60.5989 39.8117 60.1523C40.3005 59.9069 40.4018 59.8559 41.5123 59.4878C42.8675 59.0391 43.9519 58.6374 45.0288 58.1868C45.9482 57.8019 47.1385 57.2071 48.0297 56.7585C48.9947 56.2361 49.9851 55.6802 51.4913 54.6334C53.9758 52.9066 55.8044 50.9928 56.2128 50.5234C57.0048 49.6147 58.0274 48.3708 58.7108 47.3777C59.3109 46.5032 59.9775 45.2513 60.4784 44.3165C61.0209 43.3045 61.8726 40.983 62.0858 40.0308C62.3829 38.703 62.698 36.9146 62.8724 35.5653C62.9636 34.8612 62.9401 33.9097 62.9696 33.2002C62.9824 37.5751 59.9466 41.9453 53.9469 45.1507Z" fill="white" stroke="#8D2D92" stroke-miterlimit="10" stroke-linejoin="round"/>
<path d="M7.18282 34.1732C7.16739 33.8936 7.15398 33.6207 7.14258 33.3672C7.14392 33.6361 7.15868 33.905 7.18282 34.1732Z" fill="white" stroke="#8D2D92" stroke-miterlimit="10" stroke-linejoin="round"/>
<path d="M69.0656 25.0127L1 25.2166C1.00671 27.5307 1.01341 29.8442 1.01945 32.1584C1.03353 36.9156 4.00153 41.678 9.99789 45.4447C22.7182 53.4361 44.2473 53.9195 58.0848 46.5257C65.3995 42.6169 69.1011 37.2897 69.085 31.9546C69.079 29.6404 69.0723 27.3262 69.0656 25.0127Z" fill="#8D2D92" fill-opacity="0.19" stroke="#8D2D92" stroke-miterlimit="10" stroke-linejoin="round"/>
<path d="M58.0651 39.5826C44.2276 46.9765 22.6985 46.493 9.97818 38.5016C-2.74212 30.511 -1.83684 18.0381 12.0007 10.6443C25.8382 3.2504 47.3672 3.73389 60.0882 11.7252C72.8079 19.7159 71.9026 32.1881 58.0651 39.5826Z" fill="#8D2D92" fill-opacity="0.19" stroke="#8D2D92" stroke-miterlimit="10" stroke-linejoin="round"/>
<path d="M57.8224 88.8083C56.7528 88.8083 55.8622 87.966 55.814 86.887C55.7657 85.806 55.6389 84.367 55.5001 83.3061C55.4659 83.0473 55.2949 82.3794 55.2131 82.0582L55.1689 81.8858C54.9757 81.126 54.4399 79.8003 54.2106 79.2337C54.1476 79.0794 53.9303 78.6663 53.8009 78.4202L53.5501 77.9414L53.5507 77.9421C53.5507 77.9421 52.9432 76.8243 51.9507 75.5615C51.2641 74.6878 51.4156 73.4231 52.2894 72.7364C53.1618 72.0504 54.4279 72.2019 55.1139 73.075C56.3739 74.6784 57.1156 76.0772 57.1229 76.0906L57.3469 76.5191C57.6105 77.0187 57.8103 77.405 57.9384 77.7195C58.2442 78.4759 58.8088 79.8714 59.067 80.8887L59.1099 81.0577C59.2829 81.7316 59.4298 82.3237 59.4894 82.7844C59.6437 83.9653 59.7791 85.505 59.8334 86.7073C59.8831 87.8171 59.0241 88.7573 57.9142 88.8076C57.8827 88.8076 57.8525 88.8083 57.8224 88.8083Z" fill="white" stroke="#8D2D92" stroke-miterlimit="10" stroke-linejoin="round"/>
<path d="M49.6821 72.52C49.2449 72.52 48.8036 72.3778 48.4348 72.0855L48.0982 71.8219C47.219 71.1413 47.0588 69.8779 47.7401 68.9994C48.42 68.1203 49.6848 67.9614 50.5619 68.6413L50.9327 68.9317C51.8038 69.6217 51.9513 70.8865 51.2606 71.7576C50.8636 72.2592 50.2755 72.52 49.6821 72.52Z" fill="white" stroke="#8D2D92" stroke-miterlimit="10" stroke-linejoin="round"/>
<path d="M13.3037 83.4119C13.1307 83.4119 12.9543 83.3891 12.7799 83.3422C11.7063 83.0532 11.0713 81.9494 11.3603 80.8764C12.1328 78.003 13.47 75.7854 13.6202 75.542C14.2613 74.5321 14.9124 73.5906 15.3764 72.9998C16.0108 72.1931 16.733 71.3884 17.2621 70.8982C18.0769 70.1431 19.3503 70.192 20.1047 71.0068C20.8605 71.8216 20.8115 73.0943 19.9968 73.8501C19.6856 74.1384 19.1149 74.7567 18.5396 75.487C18.16 75.9698 17.582 76.8087 17.0321 77.6757C16.9986 77.7294 15.8814 79.5594 15.245 81.9226C15.0029 82.8198 14.1908 83.4119 13.3037 83.4119Z" fill="white" stroke="#8D2D92" stroke-miterlimit="10" stroke-linejoin="round"/>
</svg>
