<svg width="44" height="42" viewBox="0 0 44 42" fill="none" xmlns="http://www.w3.org/2000/svg">
<ellipse cx="21.9959" cy="21" rx="21.6985" ry="21" fill="#ED3F32" fill-opacity="0.08"/>
<path d="M28.1952 25V20C28.1952 16.93 26.5006 14.36 23.5455 13.68V13C23.5455 12.17 22.8532 11.5 21.9956 11.5C21.138 11.5 20.4457 12.17 20.4457 13V13.68C17.4802 14.36 15.796 16.92 15.796 20V25L13.7295 27V28H30.2617V27L28.1952 25ZM23.0289 25H20.9623V23H23.0289V25ZM23.0289 21H20.9623V17H23.0289V21ZM21.9956 31C23.1322 31 24.0621 30.1 24.0621 29H19.9291C19.9291 30.1 20.8487 31 21.9956 31Z" fill="#ED3F32"/>
</svg>
