<svg width="25" height="25" viewBox="0 0 25 25" fill="none" xmlns="http://www.w3.org/2000/svg">
<path d="M8.37695 2.84766V5.81909" stroke="white" stroke-width="1.5" stroke-miterlimit="10" stroke-linecap="round" stroke-linejoin="round"/>
<path d="M16.3008 2.84766V5.81909" stroke="white" stroke-width="1.5" stroke-miterlimit="10" stroke-linecap="round" stroke-linejoin="round"/>
<path d="M16.3008 4.3335C19.599 4.51178 21.2531 5.76969 21.2531 10.4249V16.5461C21.2531 20.6268 20.2627 22.6672 15.3103 22.6672H9.36742C4.41504 22.6672 3.42456 20.6268 3.42456 16.5461V10.4249C3.42456 5.76969 5.07866 4.52169 8.37694 4.3335H16.3008Z" fill="white"/>
<path d="M21.0055 18.2993H3.67212" stroke="#F48400" stroke-width="1.5" stroke-miterlimit="10" stroke-linecap="round" stroke-linejoin="round"/>
<path d="M12.3387 9.03809C11.1205 9.03809 10.0904 9.70171 10.0904 10.9893C10.0904 11.6034 10.3776 12.0689 10.8134 12.3661C10.2092 12.7227 9.86255 13.2971 9.86255 13.9707C9.86255 15.1988 10.8035 15.9615 12.3387 15.9615C13.8641 15.9615 14.8149 15.1988 14.8149 13.9707C14.8149 13.2971 14.4683 12.7128 13.8542 12.3661C14.2999 12.059 14.5772 11.6034 14.5772 10.9893C14.5772 9.70171 13.557 9.03809 12.3387 9.03809ZM12.3387 11.851C11.8237 11.851 11.4473 11.544 11.4473 11.0587C11.4473 10.5634 11.8237 10.2762 12.3387 10.2762C12.8538 10.2762 13.2302 10.5634 13.2302 11.0587C13.2302 11.544 12.8538 11.851 12.3387 11.851ZM12.3387 14.7333C11.685 14.7333 11.2096 14.4065 11.2096 13.8122C11.2096 13.2179 11.685 12.9009 12.3387 12.9009C12.9925 12.9009 13.4679 13.2278 13.4679 13.8122C13.4679 14.4065 12.9925 14.7333 12.3387 14.7333Z" fill="#F48400"/>
</svg>
