<svg width="628" height="628" viewBox="0 0 628 628" fill="none" xmlns="http://www.w3.org/2000/svg">
<rect width="628" height="628" fill="white"/>
<circle cx="314.5" cy="313.5" r="175.5" fill="#ED7507" fill-opacity="0.04"/>
<circle cx="314" cy="314" r="241.5" stroke="#ED7507" stroke-opacity="0.09" stroke-linecap="round" stroke-linejoin="round" stroke-dasharray="20 20"/>
<path d="M151.618 211.3H131.364V213.35H140.384V240H142.598V213.35H151.618V211.3ZM161.425 240.451C167.37 240.451 172.167 235.818 172.167 229.75C172.167 223.682 167.37 219.049 161.425 219.049C155.439 219.049 150.642 223.682 150.642 229.75C150.642 235.818 155.439 240.451 161.425 240.451ZM161.425 238.483C156.546 238.483 152.733 234.629 152.733 229.75C152.733 224.871 156.546 221.017 161.425 221.017C166.304 221.017 170.076 224.871 170.076 229.75C170.076 234.629 166.304 238.483 161.425 238.483ZM189.425 224.871C189.425 222.411 191.68 221.017 194.345 221.017C196.6 221.017 198.732 222.001 199.593 224.133L201.315 223.149C200.208 220.648 197.666 219.049 194.345 219.049C190.163 219.049 187.375 221.632 187.375 224.871C187.375 232.251 199.798 229.053 199.798 234.629C199.798 237.212 197.379 238.483 194.509 238.483C191.434 238.483 189.22 237.089 188.482 234.875L186.719 235.9C187.703 238.524 190.409 240.451 194.509 240.451C198.896 240.451 201.848 237.991 201.848 234.629C201.848 227.126 189.425 230.365 189.425 224.871ZM216.505 221.509V219.5H210.396V213.76L208.305 214.375V219.5H203.795V221.509H208.305V234.834C208.305 239.508 211.134 240.82 216.505 240V238.155C212.323 238.524 210.396 238.442 210.396 234.834V221.509H216.505ZM238.222 219.5V224.133C236.5 221.058 233.343 219.049 229.407 219.049C223.585 219.049 218.788 223.682 218.788 229.75C218.788 235.818 223.585 240.451 229.407 240.451C233.343 240.451 236.5 238.442 238.222 235.367V240H240.313V219.5H238.222ZM229.571 238.483C224.692 238.483 220.879 234.629 220.879 229.75C220.879 224.871 224.692 221.017 229.571 221.017C234.45 221.017 238.222 224.871 238.222 229.75C238.222 234.629 234.45 238.483 229.571 238.483ZM248.658 223.518V219.5H246.608V240H248.658V228.602C248.658 223.354 251.979 221.181 255.505 221.181V219.213C252.717 219.213 250.052 220.279 248.658 223.518ZM270.437 221.509V219.5H264.328V213.76L262.237 214.375V219.5H257.727V221.509H262.237V234.834C262.237 239.508 265.066 240.82 270.437 240V238.155C266.255 238.524 264.328 238.442 264.328 234.834V221.509H270.437ZM308.181 219.049C305.434 219.049 302.81 220.361 301.334 223.231C300.268 220.525 297.931 219.049 294.938 219.049C292.314 219.049 289.854 220.197 288.337 223.026V219.5H286.287V240H288.337V228.561C288.337 223.313 291.33 221.017 294.692 221.017C297.849 221.017 299.94 223.108 299.94 227.003V240H301.99V228.561C301.99 223.313 304.696 221.017 308.14 221.017C311.338 221.017 313.593 223.108 313.593 227.003V240H315.643V227.003C315.643 221.878 312.527 219.049 308.181 219.049ZM330.666 219.049C324.393 219.049 320.047 223.723 320.047 229.75C320.047 235.941 324.516 240.451 330.83 240.451C334.889 240.451 338.087 238.606 339.768 235.818L337.964 234.752C336.775 236.925 334.233 238.483 330.871 238.483C326.197 238.483 322.671 235.449 322.179 230.816H340.752C340.752 230.488 340.793 230.16 340.793 229.832C340.793 224.215 336.898 219.049 330.666 219.049ZM330.666 221.017C334.684 221.017 338.21 223.805 338.661 228.807H322.179C322.589 224.256 325.992 221.017 330.666 221.017ZM346.178 224.871C346.178 222.411 348.433 221.017 351.098 221.017C353.353 221.017 355.485 222.001 356.346 224.133L358.068 223.149C356.961 220.648 354.419 219.049 351.098 219.049C346.916 219.049 344.128 221.632 344.128 224.871C344.128 232.251 356.551 229.053 356.551 234.629C356.551 237.212 354.132 238.483 351.262 238.483C348.187 238.483 345.973 237.089 345.235 234.875L343.472 235.9C344.456 238.524 347.162 240.451 351.262 240.451C355.649 240.451 358.601 237.991 358.601 234.629C358.601 227.126 346.178 230.365 346.178 224.871ZM363.715 224.871C363.715 222.411 365.97 221.017 368.635 221.017C370.89 221.017 373.022 222.001 373.883 224.133L375.605 223.149C374.498 220.648 371.956 219.049 368.635 219.049C364.453 219.049 361.665 221.632 361.665 224.871C361.665 232.251 374.088 229.053 374.088 234.629C374.088 237.212 371.669 238.483 368.799 238.483C365.724 238.483 363.51 237.089 362.772 234.875L361.009 235.9C361.993 238.524 364.699 240.451 368.799 240.451C373.186 240.451 376.138 237.991 376.138 234.629C376.138 227.126 363.715 230.365 363.715 224.871ZM398.539 219.5V224.133C396.817 221.058 393.66 219.049 389.724 219.049C383.902 219.049 379.105 223.682 379.105 229.75C379.105 235.818 383.902 240.451 389.724 240.451C393.66 240.451 396.817 238.442 398.539 235.367V240H400.63V219.5H398.539ZM389.888 238.483C385.009 238.483 381.196 234.629 381.196 229.75C381.196 224.871 385.009 221.017 389.888 221.017C394.767 221.017 398.539 224.871 398.539 229.75C398.539 234.629 394.767 238.483 389.888 238.483ZM425.129 219.5V224.256C423.448 221.099 420.291 219.049 416.314 219.049C410.451 219.049 405.695 223.682 405.695 229.75C405.695 235.818 410.451 240.451 416.314 240.451C420.291 240.451 423.448 238.401 425.129 235.244V239.016C425.129 243.69 422.095 246.683 416.97 246.683C412.46 246.683 410.164 244.879 409.098 242.706L407.294 243.731C408.77 246.724 412.173 248.651 416.97 248.651C422.628 248.651 427.179 245.166 427.179 239.016V219.5H425.129ZM416.437 238.483C411.558 238.483 407.745 234.629 407.745 229.75C407.745 224.871 411.558 221.017 416.437 221.017C421.316 221.017 425.129 224.871 425.129 229.75C425.129 234.629 421.316 238.483 416.437 238.483ZM434.536 214.539C435.438 214.539 436.176 213.801 436.176 212.899C436.176 212.038 435.438 211.3 434.536 211.3C433.634 211.3 432.896 212.038 432.896 212.899C432.896 213.801 433.634 214.539 434.536 214.539ZM433.511 240H435.561V219.5H433.511V240ZM451.268 219.049C448.111 219.049 445.487 220.361 443.929 223.395V219.5H441.879V240H443.929V229.176C443.929 223.641 447.086 221.017 451.104 221.017C454.958 221.017 457.131 223.477 457.131 227.249V240H459.222V227.249C459.222 222.288 456.147 219.049 451.268 219.049ZM483.225 219.5V224.256C481.544 221.099 478.387 219.049 474.41 219.049C468.547 219.049 463.791 223.682 463.791 229.75C463.791 235.818 468.547 240.451 474.41 240.451C478.387 240.451 481.544 238.401 483.225 235.244V239.016C483.225 243.69 480.191 246.683 475.066 246.683C470.556 246.683 468.26 244.879 467.194 242.706L465.39 243.731C466.866 246.724 470.269 248.651 475.066 248.651C480.724 248.651 485.275 245.166 485.275 239.016V219.5H483.225ZM474.533 238.483C469.654 238.483 465.841 234.629 465.841 229.75C465.841 224.871 469.654 221.017 474.533 221.017C479.412 221.017 483.225 224.871 483.225 229.75C483.225 234.629 479.412 238.483 474.533 238.483ZM495.092 237.212H492.55L490.992 245.74H492.878L495.092 237.212ZM68.7473 308.871C68.7473 306.411 71.0023 305.017 73.6673 305.017C75.9223 305.017 78.0543 306.001 78.9153 308.133L80.6373 307.149C79.5303 304.648 76.9883 303.049 73.6673 303.049C69.4853 303.049 66.6973 305.632 66.6973 308.871C66.6973 316.251 79.1203 313.053 79.1203 318.629C79.1203 321.212 76.7013 322.483 73.8313 322.483C70.7563 322.483 68.5423 321.089 67.8043 318.875L66.0413 319.9C67.0253 322.524 69.7313 324.451 73.8313 324.451C78.2183 324.451 81.1703 321.991 81.1703 318.629C81.1703 311.126 68.7473 314.365 68.7473 308.871ZM94.756 303.049C88.483 303.049 84.137 307.723 84.137 313.75C84.137 319.941 88.606 324.451 94.92 324.451C98.979 324.451 102.177 322.606 103.858 319.818L102.054 318.752C100.865 320.925 98.323 322.483 94.961 322.483C90.287 322.483 86.761 319.449 86.269 314.816H104.842C104.842 314.488 104.883 314.16 104.883 313.832C104.883 308.215 100.988 303.049 94.756 303.049ZM94.756 305.017C98.774 305.017 102.3 307.805 102.751 312.807H86.269C86.679 308.256 90.082 305.017 94.756 305.017ZM109.675 324H111.725V294.07H109.675V324ZM127.268 303.049C120.995 303.049 116.649 307.723 116.649 313.75C116.649 319.941 121.118 324.451 127.432 324.451C131.491 324.451 134.689 322.606 136.37 319.818L134.566 318.752C133.377 320.925 130.835 322.483 127.473 322.483C122.799 322.483 119.273 319.449 118.781 314.816H137.354C137.354 314.488 137.395 314.16 137.395 313.832C137.395 308.215 133.5 303.049 127.268 303.049ZM127.268 305.017C131.286 305.017 134.812 307.805 135.263 312.807H118.781C119.191 308.256 122.594 305.017 127.268 305.017ZM151.575 324.451C155.593 324.451 159.037 322.401 160.677 319.244L158.955 318.219C157.602 320.761 154.896 322.483 151.575 322.483C146.614 322.483 142.883 318.629 142.883 313.75C142.883 308.871 146.614 305.017 151.575 305.017C154.855 305.017 157.643 306.698 158.832 309.281L160.513 308.297C159.037 305.099 155.593 303.049 151.575 303.049C145.384 303.049 140.792 307.682 140.792 313.75C140.792 319.818 145.384 324.451 151.575 324.451ZM175.665 305.509V303.5H169.556V297.76L167.465 298.375V303.5H162.955V305.509H167.465V318.834C167.465 323.508 170.294 324.82 175.665 324V322.155C171.483 322.524 169.556 322.442 169.556 318.834V305.509H175.665ZM209.554 303.5V308.133C207.832 305.058 204.675 303.049 200.739 303.049C194.917 303.049 190.12 307.682 190.12 313.75C190.12 319.818 194.917 324.451 200.739 324.451C204.675 324.451 207.832 322.442 209.554 319.367V324H211.645V303.5H209.554ZM200.903 322.483C196.024 322.483 192.211 318.629 192.211 313.75C192.211 308.871 196.024 305.017 200.903 305.017C205.782 305.017 209.554 308.871 209.554 313.75C209.554 318.629 205.782 322.483 200.903 322.483ZM238.26 324.451C242.278 324.451 245.722 322.401 247.362 319.244L245.64 318.219C244.287 320.761 241.581 322.483 238.26 322.483C233.299 322.483 229.568 318.629 229.568 313.75C229.568 308.871 233.299 305.017 238.26 305.017C241.54 305.017 244.328 306.698 245.517 309.281L247.198 308.297C245.722 305.099 242.278 303.049 238.26 303.049C232.069 303.049 227.477 307.682 227.477 313.75C227.477 319.818 232.069 324.451 238.26 324.451ZM261.042 324.451C266.987 324.451 271.784 319.818 271.784 313.75C271.784 307.682 266.987 303.049 261.042 303.049C255.056 303.049 250.259 307.682 250.259 313.75C250.259 319.818 255.056 324.451 261.042 324.451ZM261.042 322.483C256.163 322.483 252.35 318.629 252.35 313.75C252.35 308.871 256.163 305.017 261.042 305.017C265.921 305.017 269.693 308.871 269.693 313.75C269.693 318.629 265.921 322.483 261.042 322.483ZM286.107 303.049C282.95 303.049 280.326 304.361 278.768 307.395V303.5H276.718V324H278.768V313.176C278.768 307.641 281.925 305.017 285.943 305.017C289.797 305.017 291.97 307.477 291.97 311.249V324H294.061V311.249C294.061 306.288 290.986 303.049 286.107 303.049ZM310.356 305.509V303.5H304.247V297.76L302.156 298.375V303.5H297.646V305.509H302.156V318.834C302.156 323.508 304.985 324.82 310.356 324V322.155C306.174 322.524 304.247 322.442 304.247 318.834V305.509H310.356ZM332.074 303.5V308.133C330.352 305.058 327.195 303.049 323.259 303.049C317.437 303.049 312.64 307.682 312.64 313.75C312.64 319.818 317.437 324.451 323.259 324.451C327.195 324.451 330.352 322.442 332.074 319.367V324H334.165V303.5H332.074ZM323.423 322.483C318.544 322.483 314.731 318.629 314.731 313.75C314.731 308.871 318.544 305.017 323.423 305.017C328.302 305.017 332.074 308.871 332.074 313.75C332.074 318.629 328.302 322.483 323.423 322.483ZM349.849 324.451C353.867 324.451 357.311 322.401 358.951 319.244L357.229 318.219C355.876 320.761 353.17 322.483 349.849 322.483C344.888 322.483 341.157 318.629 341.157 313.75C341.157 308.871 344.888 305.017 349.849 305.017C353.129 305.017 355.917 306.698 357.106 309.281L358.787 308.297C357.311 305.099 353.867 303.049 349.849 303.049C343.658 303.049 339.066 307.682 339.066 313.75C339.066 319.818 343.658 324.451 349.849 324.451ZM373.938 305.509V303.5H367.829V297.76L365.738 298.375V303.5H361.228V305.509H365.738V318.834C365.738 323.508 368.567 324.82 373.938 324V322.155C369.756 322.524 367.829 322.442 367.829 318.834V305.509H373.938ZM399.464 296.817V294.849C394.093 294.439 391.264 297.35 391.264 302.393V303.5H387.738V305.509H391.264V324H393.355V305.509H399.464V303.5H393.355V302.393C393.355 298.416 395.282 296.489 399.464 296.817ZM404.69 307.518V303.5H402.64V324H404.69V312.602C404.69 307.354 408.011 305.181 411.537 305.181V303.213C408.749 303.213 406.084 304.279 404.69 307.518ZM423.841 324.451C429.786 324.451 434.583 319.818 434.583 313.75C434.583 307.682 429.786 303.049 423.841 303.049C417.855 303.049 413.058 307.682 413.058 313.75C413.058 319.818 417.855 324.451 423.841 324.451ZM423.841 322.483C418.962 322.483 415.149 318.629 415.149 313.75C415.149 308.871 418.962 305.017 423.841 305.017C428.72 305.017 432.492 308.871 432.492 313.75C432.492 318.629 428.72 322.483 423.841 322.483ZM461.41 303.049C458.663 303.049 456.039 304.361 454.563 307.231C453.497 304.525 451.16 303.049 448.167 303.049C445.543 303.049 443.083 304.197 441.566 307.026V303.5H439.516V324H441.566V312.561C441.566 307.313 444.559 305.017 447.921 305.017C451.078 305.017 453.169 307.108 453.169 311.003V324H455.219V312.561C455.219 307.313 457.925 305.017 461.369 305.017C464.567 305.017 466.822 307.108 466.822 311.003V324H468.872V311.003C468.872 305.878 465.756 303.049 461.41 303.049ZM500.607 303.5L493.473 321.745L485.191 303.5H482.977L492.407 324.369L491.956 325.476C490.685 328.469 488.594 330.519 485.847 330.273V332.2C489.373 332.487 492.407 329.822 493.965 325.886L502.821 303.5H500.607ZM515.09 324.451C521.035 324.451 525.832 319.818 525.832 313.75C525.832 307.682 521.035 303.049 515.09 303.049C509.104 303.049 504.307 307.682 504.307 313.75C504.307 319.818 509.104 324.451 515.09 324.451ZM515.09 322.483C510.211 322.483 506.398 318.629 506.398 313.75C506.398 308.871 510.211 305.017 515.09 305.017C519.969 305.017 523.741 308.871 523.741 313.75C523.741 318.629 519.969 322.483 515.09 322.483ZM545.525 303.5V314.324C545.525 319.859 542.368 322.483 538.35 322.483C534.496 322.483 532.323 320.023 532.323 316.251V303.5H530.232V316.251C530.232 321.212 533.307 324.451 538.186 324.451C541.343 324.451 543.967 323.139 545.525 320.105V324H547.575V303.5H545.525ZM555.958 307.518V303.5H553.908V324H555.958V312.602C555.958 307.354 559.279 305.181 562.805 305.181V303.213C560.017 303.213 557.352 304.279 555.958 307.518ZM205.793 413.574C211.041 413.574 215.633 410.991 218.093 406.932L212.435 403.652C211.205 405.866 208.704 407.178 205.793 407.178C200.709 407.178 197.429 403.775 197.429 398.65C197.429 393.525 200.709 390.122 205.793 390.122C208.704 390.122 211.164 391.434 212.435 393.648L218.093 390.368C215.592 386.309 211 383.726 205.793 383.726C197.142 383.726 190.869 390.204 190.869 398.65C190.869 407.096 197.142 413.574 205.793 413.574ZM231.002 413.574C237.029 413.574 241.867 408.859 241.867 402.75C241.867 396.641 237.029 391.926 231.002 391.926C224.975 391.926 220.137 396.641 220.137 402.75C220.137 408.859 224.975 413.574 231.002 413.574ZM231.002 407.588C228.337 407.588 226.287 405.661 226.287 402.75C226.287 399.839 228.337 397.912 231.002 397.912C233.667 397.912 235.717 399.839 235.717 402.75C235.717 405.661 233.667 407.588 231.002 407.588ZM257.359 391.926C254.653 391.926 252.603 392.91 251.496 394.427V392.5H245.346V413H251.496V401.807C251.496 398.896 253.054 397.584 255.309 397.584C257.277 397.584 258.876 398.773 258.876 401.315V413H265.026V400.413C265.026 394.878 261.5 391.926 257.359 391.926ZM281.262 398.404V392.5H277.039V386.76L270.889 388.605V392.5H267.609V398.404H270.889V405.661C270.889 411.401 273.226 413.82 281.262 413V407.424C278.556 407.588 277.039 407.424 277.039 405.661V398.404H281.262ZM299.227 392.5V394.427C297.874 392.869 295.865 391.926 293.118 391.926C287.747 391.926 283.319 396.641 283.319 402.75C283.319 408.859 287.747 413.574 293.118 413.574C295.865 413.574 297.874 412.631 299.227 411.073V413H305.377V392.5H299.227ZM294.348 407.752C291.519 407.752 289.469 405.825 289.469 402.75C289.469 399.675 291.519 397.748 294.348 397.748C297.177 397.748 299.227 399.675 299.227 402.75C299.227 405.825 297.177 407.752 294.348 407.752ZM319.729 413.574C323.747 413.574 327.232 411.483 328.995 408.285L323.624 405.21C322.968 406.645 321.451 407.506 319.647 407.506C316.982 407.506 315.014 405.579 315.014 402.75C315.014 399.921 316.982 397.994 319.647 397.994C321.451 397.994 322.927 398.855 323.624 400.29L328.995 397.174C327.232 394.017 323.706 391.926 319.729 391.926C313.497 391.926 308.864 396.641 308.864 402.75C308.864 408.859 313.497 413.574 319.729 413.574ZM343.483 398.404V392.5H339.26V386.76L333.11 388.605V392.5H329.83V398.404H333.11V405.661C333.11 411.401 335.447 413.82 343.483 413V407.424C340.777 407.588 339.26 407.424 339.26 405.661V398.404H343.483ZM352.587 398.486C352.587 397.748 353.243 397.338 354.309 397.338C355.662 397.338 356.482 398.076 357.056 399.142L362.304 396.313C360.582 393.402 357.63 391.926 354.309 391.926C350.045 391.926 346.273 394.181 346.273 398.65C346.273 405.743 356.359 404.554 356.359 406.809C356.359 407.629 355.621 408.08 354.145 408.08C352.341 408.08 351.193 407.219 350.66 405.661L345.33 408.695C346.929 412.016 350.045 413.574 354.145 413.574C358.573 413.574 362.673 411.565 362.673 406.85C362.673 399.265 352.587 400.823 352.587 398.486ZM382.958 406.686V384.3H376.398V413H393.208V406.686H382.958ZM398.968 390.696C400.977 390.696 402.658 389.015 402.658 387.006C402.658 384.997 400.977 383.316 398.968 383.316C396.959 383.316 395.278 384.997 395.278 387.006C395.278 389.015 396.959 390.696 398.968 390.696ZM395.893 413H402.043V392.5H395.893V413ZM412.165 398.486C412.165 397.748 412.821 397.338 413.887 397.338C415.24 397.338 416.06 398.076 416.634 399.142L421.882 396.313C420.16 393.402 417.208 391.926 413.887 391.926C409.623 391.926 405.851 394.181 405.851 398.65C405.851 405.743 415.937 404.554 415.937 406.809C415.937 407.629 415.199 408.08 413.723 408.08C411.919 408.08 410.771 407.219 410.238 405.661L404.908 408.695C406.507 412.016 409.623 413.574 413.723 413.574C418.151 413.574 422.251 411.565 422.251 406.85C422.251 399.265 412.165 400.823 412.165 398.486ZM436.734 398.404V392.5H432.511V386.76L426.361 388.605V392.5H423.081V398.404H426.361V405.661C426.361 411.401 428.698 413.82 436.734 413V407.424C434.028 407.588 432.511 407.424 432.511 405.661V398.404H436.734Z" fill="#053F5F"/>
<path d="M189.639 417.1H438.374V419.15H189.639V417.1Z" fill="#053F5F"/>
</svg>
