<svg width="42" height="32" viewBox="0 0 42 32" fill="none" xmlns="http://www.w3.org/2000/svg">
<path d="M22.7624 31.5165C22.6528 31.5463 21.988 31.7621 21.2611 32.0001C20.5342 31.7621 19.8694 31.5463 19.7598 31.5165C15.8185 30.475 16.6184 26.7106 16.6184 26.7106C16.6184 26.7106 16.8778 26.2307 17.1079 25.4198C17.1225 25.3677 17.1371 25.3156 17.1518 25.2636C17.1664 25.2226 17.1773 25.178 17.1883 25.1296C17.4111 24.248 17.5718 23.0428 17.3855 21.6665L21.2611 21.9046L25.1367 21.6665C25.0527 22.284 25.0381 22.868 25.0746 23.4037C25.1075 24.0621 25.2135 24.6461 25.334 25.1296C25.3596 25.2338 25.3851 25.3268 25.4144 25.4198C25.6445 26.2307 25.9038 26.7106 25.9038 26.7106C25.9038 26.7106 26.7038 30.475 22.7624 31.5165Z" fill="#B45E4D"/>
<path d="M25.0747 23.4037C24.4026 24.0137 21.9078 25.8959 17.1519 25.2636C17.1665 25.2226 17.1774 25.178 17.1884 25.1296C17.4112 24.248 17.5719 23.0428 17.3856 21.6665L21.2612 21.9046L25.1368 21.6665C25.0528 22.284 25.0382 22.868 25.0747 23.4037Z" fill="#934B3F"/>
<path d="M31.5766 14.686C32.0544 15.6472 31.3739 16.9763 30.057 17.6552C28.7402 18.334 27.2853 18.1053 26.8075 17.1441C26.3297 16.1829 27.0102 14.8538 28.3274 14.1749C29.6443 13.4964 31.0992 13.7252 31.5766 14.686Z" fill="#934B3F"/>
<path d="M9.97492 14.9388C9.51906 15.9107 10.2295 17.2238 11.5613 17.8715C12.8935 18.5191 14.3426 18.2565 14.7984 17.2845C15.2543 16.3125 14.5438 14.9994 13.212 14.3518C11.8802 13.7042 10.4308 13.9668 9.97492 14.9388Z" fill="#934B3F"/>
<path d="M21.0548 23.4424C25.5017 23.3903 29.0592 19.155 29.0008 13.9826C28.9424 8.81015 25.2901 4.65928 20.8433 4.71136C16.3964 4.76344 12.8389 8.99875 12.8973 14.1712C12.9557 19.3436 16.608 23.4945 21.0548 23.4424Z" fill="#B45E4D"/>
<path d="M20.7225 15.1104C20.7225 15.1104 20.0606 16.4658 20.7952 17.7499" stroke="#68352F" stroke-miterlimit="10" stroke-linecap="round"/>
<path d="M22.0869 11.8696C22.0869 11.8696 24.0813 10.5662 25.5114 11.966" stroke="#414042" stroke-miterlimit="10" stroke-linecap="round"/>
<path d="M15.7671 12.9369C15.7671 12.9369 17.4992 13.4786 19.086 12.5869" stroke="#414042" stroke-miterlimit="10" stroke-linecap="round"/>
<path d="M24.4306 13.7349C24.2224 13.7375 24.0851 13.489 24.0807 13.1018C24.0763 12.7145 24.2078 12.4631 24.4164 12.4605C24.6246 12.4579 24.7619 12.7063 24.7663 13.0936C24.7703 13.4808 24.6388 13.7323 24.4306 13.7349Z" fill="#2C324A"/>
<path d="M18.3269 14.6425C18.1198 14.6645 17.9605 14.4298 17.9215 14.0444C17.8824 13.6594 17.9909 13.3964 18.198 13.3745C18.4051 13.3525 18.564 13.5872 18.6031 13.9726C18.6425 14.3576 18.534 14.6206 18.3269 14.6425Z" fill="#2C324A"/>
<path d="M29.7863 9.01933C29.7863 9.01933 30.9881 13.1297 28.9754 14.9301C28.9754 14.9301 27.5143 14.6139 27.1454 12.3634C26.7764 10.1092 27.1454 9.46943 27.1454 9.46943C27.1454 9.46943 26.9043 9.5773 26.5171 9.6889V5.33301H30.2904C31.0575 7.09248 29.7863 9.01933 29.7863 9.01933Z" fill="#414042"/>
<path d="M14.2057 10.4602C14.2057 10.4602 15.2398 11.4296 16.7422 11.3463C18.2442 11.263 21.1011 10.8114 22.4307 9.83344C22.4307 9.83344 24.2038 10.8906 26.6172 10.2616C26.6172 10.2616 26.7662 12.3793 27.2334 12.6486C27.7006 12.9179 28.2426 8.60479 28.1685 8.45414C28.0947 8.30349 26.8389 7.60156 26.8389 7.60156C26.8389 7.60156 17.3888 7.77714 17.1517 7.82736C16.9146 7.87757 15.6343 8.60479 15.5602 8.62972C15.4864 8.65464 13.8857 9.05191 13.8857 9.05191L14.2057 10.4602Z" fill="#934B3F"/>
<path d="M12.1349 9.01933C12.1349 9.01933 10.9332 13.1297 12.9459 14.9301C12.9459 14.9301 14.407 14.6139 14.7759 12.3634C15.1448 10.1092 14.7759 9.46943 14.7759 9.46943C14.7759 9.46943 15.017 9.5773 15.4042 9.6889V5.33301H11.6309C10.8638 7.09248 12.1349 9.01933 12.1349 9.01933Z" fill="#2B2B2B"/>
<path d="M29.7878 9.01906C29.7878 9.01906 30.9896 13.1294 28.9769 14.9298C28.9769 14.9298 27.5158 14.6136 27.1469 12.3632C26.7925 10.202 27.1176 9.52495 27.1432 9.47287C27.1067 9.48775 26.8729 9.58447 26.5186 9.68862C25.5615 9.97133 23.7096 10.3024 22.3471 9.19017C22.3471 9.19017 22.1608 9.78905 18.6505 10.4958C15.1438 11.1989 14.5411 10.0457 14.5776 9.82253C14.5776 9.82253 13.69 10.2131 12.7476 10.042C12.3129 9.96389 11.8672 9.76674 11.4874 9.35756C10.1176 7.89196 10.5632 4.94215 13.4452 4.15355C13.4452 4.15355 13.3759 1.6836 15.9547 0.895004C18.5336 0.102685 20.4513 1.49389 20.4513 1.49389C20.4513 1.49389 21.3974 -0.206058 23.8265 0.0208504C23.8557 0.0208504 23.8886 0.0245689 23.9178 0.0282887C25.2912 0.180801 26.062 0.816888 26.4894 1.44553C26.9569 2.13742 27.0117 2.81814 27.0117 2.81814C27.0117 2.81814 29.2362 3.33891 30.1969 5.14302C30.2298 5.20626 30.2627 5.26949 30.2919 5.33273C31.0225 7.00664 29.9047 8.83307 29.7951 9.00418C29.7915 9.01534 29.7878 9.01906 29.7878 9.01906Z" fill="#414042"/>
<path d="M29.7951 9.00418C29.8536 8.84795 30.3796 7.31539 29.2837 5.58568C28.1258 3.76297 26.3323 3.97872 26.3323 3.97872C26.3323 3.97872 26.6172 1.66128 24.2831 1.19631C21.9489 0.727613 20.6376 2.98181 20.6376 2.98181C20.6376 2.98181 17.5985 1.2521 15.8817 2.28621C14.1612 3.32032 14.5703 5.23973 14.5703 5.23973C14.5703 5.23973 12.0207 4.84172 11.8161 6.95084C11.6152 9.05625 12.7476 10.042 12.7476 10.042C12.3129 9.96388 11.8672 9.76674 11.4874 9.35756C10.1176 7.89196 10.5632 4.94215 13.4452 4.15355C13.4452 4.15355 13.3759 1.6836 15.9547 0.895004C18.5336 0.102685 20.4513 1.49389 20.4513 1.49389C20.4513 1.49389 21.3974 -0.206058 23.8265 0.0208504C23.8557 0.0208504 23.8886 0.0245689 23.9178 0.0282887C25.2912 0.180801 26.062 0.816888 26.4894 1.44553C26.9569 2.13742 27.0117 2.81814 27.0117 2.81814C27.0117 2.81814 29.2362 3.33891 30.1969 5.14302C30.2298 5.20626 30.2627 5.26949 30.2919 5.33273C31.0225 7.00664 29.9047 8.83307 29.7951 9.00418Z" fill="#636363"/>
<path d="M37.3246 8.86139C37.055 8.82531 36.7485 8.7405 36.6444 8.31495C36.5874 8.08693 36.586 7.7633 36.6287 7.43113C36.6641 7.1566 36.7277 6.8858 36.8143 6.66224C36.9768 6.18462 37.2033 5.99417 37.5328 5.78846C37.8644 5.56788 38.2863 5.31604 38.6173 4.87562C38.9124 4.48876 39.1111 3.95683 39.1743 3.46582L39.186 3.2616C39.2127 2.72148 39.0235 2.28441 38.7053 2.06568C38.5994 1.99277 38.4755 1.94665 38.3477 1.92954C38.0924 1.89531 37.8221 1.97715 37.5956 2.16723C37.3191 2.40939 37.1174 2.85316 37.0692 3.22849L37.063 3.38956C37.0429 3.76898 37.2278 4.01449 37.3702 4.2533C37.4487 4.42552 37.5295 4.58324 37.5072 4.75696C37.4959 4.84326 37.4707 4.92844 37.4013 5.02181C37.1952 5.27364 36.7375 5.57978 36.3262 5.5251L36.2839 5.51915C35.862 5.43359 35.5168 4.97568 35.4313 4.18523C35.3959 3.90141 35.3962 3.56365 35.439 3.23147C35.5153 2.63927 35.7246 2.02067 36.072 1.56686C36.6265 0.847817 37.5634 0.517499 38.424 0.559161L38.6085 0.583711C39.3887 0.687865 40.0872 1.0896 40.5134 1.58769C40.9646 2.1185 41.099 2.75347 41.0683 3.43978L41.0336 3.93488C40.9649 4.46979 40.8068 5.02144 40.5733 5.48976C40.2786 6.0972 39.8709 6.57148 39.4432 6.8672C39.0154 7.16256 38.5676 7.27936 38.3261 7.58513C38.0989 7.89238 38.0639 8.38749 37.9437 8.65048C37.8246 8.89896 37.5938 8.89747 37.3246 8.86139ZM36.8837 11.6092C37.4725 11.6297 38.0189 11.0851 38.0993 10.4639C38.1442 10.1172 38.0679 9.81329 37.9094 9.58638C37.7019 9.294 37.5014 9.2821 37.1364 9.20398C36.9235 9.17571 36.6908 9.18874 36.4895 9.29401C36.1637 9.4707 35.9632 9.79655 35.8894 10.2567C35.8485 10.5744 35.9171 10.9367 36.0877 11.1799C36.2444 11.421 36.529 11.562 36.7847 11.5962L36.8837 11.6092Z" fill="#F15A29"/>
<path d="M3.67533 18.9747C3.45616 19.0149 3.19608 19.0264 3.01125 18.7207C2.9108 18.557 2.8308 18.3048 2.78295 18.0351C2.7435 17.8119 2.72706 17.5846 2.73985 17.3879C2.75007 16.9738 2.88047 16.7678 3.08722 16.5241C3.29214 16.2682 3.5599 15.9647 3.7104 15.5369C3.84628 15.1601 3.87111 14.6951 3.80061 14.2956L3.76007 14.1334C3.64866 13.7053 3.39443 13.4121 3.09271 13.3221C2.99225 13.292 2.88413 13.2875 2.78039 13.3065C2.57291 13.3444 2.38187 13.4769 2.25147 13.6826C2.09476 13.9418 2.04582 14.3391 2.09988 14.6441L2.13422 14.7714C2.21129 15.0723 2.41547 15.2174 2.58496 15.3676C2.68834 15.4822 2.78989 15.5845 2.81473 15.7259C2.82715 15.7962 2.82824 15.8687 2.79646 15.9595C2.69747 16.2079 2.41475 16.5632 2.08052 16.6246L2.04582 16.6309C1.69552 16.6711 1.31453 16.401 1.05446 15.8058C0.957292 15.5934 0.875469 15.3297 0.827617 15.0596C0.742507 14.5783 0.754555 14.0426 0.914913 13.6004C1.1717 12.8988 1.82263 12.4033 2.50424 12.2181L2.65401 12.1906C3.28813 12.0741 3.93139 12.2106 4.38579 12.4915C4.8676 12.7913 5.12767 13.2529 5.27122 13.7964L5.36511 14.1914C5.44218 14.6263 5.4535 15.0968 5.38556 15.5213C5.30411 16.0699 5.10174 16.5435 4.8402 16.8823C4.57866 17.2212 4.25758 17.4258 4.14397 17.7256C4.0417 18.0228 4.13558 18.4182 4.10563 18.6541C4.07494 18.8773 3.89413 18.9346 3.67533 18.9747ZM4.00261 21.2308C4.46725 21.0976 4.76056 20.5341 4.67144 20.0289C4.62176 19.7473 4.48771 19.5294 4.30872 19.3921C4.07531 19.2165 3.91604 19.2578 3.61213 19.2894C3.43899 19.3214 3.26074 19.3902 3.1296 19.5234C2.91847 19.7436 2.8414 20.049 2.89619 20.4266C2.94185 20.6851 3.08394 20.9503 3.27644 21.0969C3.45762 21.2453 3.71441 21.2832 3.92188 21.2453L4.00261 21.2308Z" fill="#F15A29"/>
</svg>
