<svg width="25" height="25" viewBox="0 0 25 25" fill="none" xmlns="http://www.w3.org/2000/svg">
<path d="M9.5161 22.6572H15.459C20.4113 22.6572 22.3923 20.6762 22.3923 15.7238V9.78099C22.3923 4.82861 20.4113 2.84766 15.459 2.84766H9.5161C4.56372 2.84766 2.58276 4.82861 2.58276 9.78099V15.7238C2.58276 20.6762 4.56372 22.6572 9.5161 22.6572Z" fill="white"/>
<path d="M2.58276 13.4456L8.52562 13.4258C9.26848 13.4258 10.1005 13.9904 10.3778 14.6837L11.507 17.5363C11.7645 18.1801 12.1706 18.1801 12.4281 17.5363L14.6963 11.7816C14.9142 11.2269 15.3203 11.2071 15.5976 11.7321L16.6277 13.6833C16.9348 14.2677 17.7271 14.7431 18.3809 14.7431H22.4022" stroke="#8D2D92" stroke-width="1.5" stroke-linecap="round" stroke-linejoin="round"/>
</svg>
