<svg width="27" height="32" viewBox="0 0 27 32" fill="none" xmlns="http://www.w3.org/2000/svg">
<path d="M24.702 23.9919L24.4897 26.7466L24.654 26.753L24.8662 23.9983L24.702 23.9919Z" fill="#407BFF"/>
<path d="M24.8823 21.6556L24.7729 23.0747L24.9372 23.0811L25.0465 21.662L24.8823 21.6556Z" fill="#407BFF"/>
<path d="M21.4196 32H2.13396C0.894124 32 -0.0645473 31.2786 0.0034004 30.3971L2.22478 1.60293C2.29289 0.721383 3.36295 0 4.60263 0H23.8883C25.1281 0 26.0868 0.721383 26.0188 1.60293L23.7975 30.3971C23.7295 31.2786 22.6595 32 21.4196 32Z" fill="#407BFF"/>
<path opacity="0.8" d="M20.2538 32H2.13396C0.894124 32 -0.0645473 31.2786 0.0034004 30.3971L2.22478 1.60293C2.29289 0.721383 3.36295 0 4.60263 0H22.7225C23.9623 0 24.921 0.721383 24.853 1.60293L22.6316 30.3971C22.5635 31.2786 21.4935 32 20.2538 32Z" fill="white"/>
<path d="M11.2733 5.21983H6.07C5.54649 5.21983 5.1416 4.91529 5.17039 4.54302C5.19918 4.17075 5.65096 3.86621 6.17447 3.86621H11.3778C11.9013 3.86621 12.3061 4.17086 12.2774 4.54302C12.2486 4.91518 11.7969 5.21983 11.2733 5.21983Z" fill="white"/>
<path d="M12.2773 4.54308C12.2253 5.21591 11.4162 5.76145 10.47 5.76145C9.52383 5.76145 8.79879 5.21603 8.85077 4.54308C8.9026 3.87025 9.71188 3.32471 10.6581 3.32471C11.6042 3.32482 12.3293 3.87025 12.2773 4.54308Z" fill="#407BFF"/>
<path d="M10.9392 9.54991H5.73601C5.2125 9.54991 4.80761 9.24537 4.83641 8.8731C4.8652 8.50082 5.31698 8.19629 5.84049 8.19629H11.0438C11.5673 8.19629 11.9722 8.50082 11.9434 8.8731C11.9145 9.24537 11.4627 9.54991 10.9392 9.54991Z" fill="white"/>
<path d="M9.09114 9.72295C9.78813 9.24072 9.83276 8.46944 9.1908 8.00024C8.54885 7.53104 7.46342 7.5416 6.76642 8.02382C6.06942 8.50605 6.0248 9.27733 6.66675 9.74653C7.30871 10.2157 8.39414 10.2052 9.09114 9.72295Z" fill="#407BFF"/>
<path opacity="0.3" d="M9.09114 9.72295C9.78813 9.24072 9.83276 8.46944 9.1908 8.00024C8.54885 7.53104 7.46342 7.5416 6.76642 8.02382C6.06942 8.50605 6.0248 9.27733 6.66675 9.74653C7.30871 10.2157 8.39414 10.2052 9.09114 9.72295Z" fill="#FAFAFA"/>
<path d="M5.06804 18.2096H10.2712C10.7947 18.2096 11.2465 17.905 11.2753 17.5328C11.3039 17.1605 10.8992 16.856 10.3757 16.856H5.17252C4.64901 16.856 4.19723 17.1605 4.16844 17.5328C4.13965 17.905 4.54453 18.2096 5.06804 18.2096Z" fill="white"/>
<path d="M7.04492 18.3838C7.74202 17.9016 7.78672 17.1303 7.14477 16.661C6.50281 16.1917 5.4173 16.2022 4.72021 16.6845C4.02311 17.1667 3.97841 17.938 4.62036 18.4073C5.26232 18.8766 6.34783 18.8661 7.04492 18.3838Z" fill="#407BFF"/>
<path opacity="0.7" d="M7.04492 18.3838C7.74202 17.9016 7.78672 17.1303 7.14477 16.661C6.50281 16.1917 5.4173 16.2022 4.72021 16.6845C4.02311 17.1667 3.97841 17.938 4.62036 18.4073C5.26232 18.8766 6.34783 18.8661 7.04492 18.3838Z" fill="#FAFAFA"/>
<path d="M9.93741 22.5397H4.73406C4.21055 22.5397 3.80566 22.2351 3.83445 21.8628C3.86324 21.4906 4.31502 21.186 4.83853 21.186H10.0417C10.5652 21.186 10.97 21.4906 10.9413 21.8628C10.9127 22.2351 10.4609 22.5397 9.93741 22.5397Z" fill="white"/>
<path d="M10.9413 21.8629C10.8895 22.5357 10.0802 23.0813 9.13407 23.0813C8.1879 23.0813 7.46285 22.5359 7.51484 21.8629C7.56683 21.1901 8.37594 20.6445 9.32211 20.6445C10.2683 20.6445 10.9932 21.1901 10.9413 21.8629Z" fill="#407BFF"/>
<path d="M5.40216 13.8795H10.6053C11.1289 13.8795 11.5806 13.575 11.6094 13.2027C11.6381 12.8304 11.2333 12.5259 10.7098 12.5259H5.50647C4.98296 12.5259 4.53118 12.8304 4.50239 13.2027C4.47393 13.575 4.87865 13.8795 5.40216 13.8795Z" fill="white"/>
<path d="M4.50263 13.2027C4.45064 13.8756 5.17569 14.4211 6.12186 14.4211C7.06802 14.4211 7.87715 13.8757 7.92914 13.2027C7.98096 12.5299 7.25607 11.9844 6.30991 11.9844C5.36374 11.9844 4.55462 12.5299 4.50263 13.2027Z" fill="#407BFF"/>
<path opacity="0.7" d="M4.50263 13.2027C4.45064 13.8756 5.17569 14.4211 6.12186 14.4211C7.06802 14.4211 7.87715 13.8757 7.92914 13.2027C7.98096 12.5299 7.25607 11.9844 6.30991 11.9844C5.36374 11.9844 4.55462 12.5299 4.50263 13.2027Z" fill="#FAFAFA"/>
<path d="M22.6722 4.33979H14.9595C14.7501 4.33979 14.5882 4.218 14.5997 4.06906C14.6112 3.92013 14.7919 3.79834 15.0013 3.79834H22.7139C22.9234 3.79834 23.0853 3.92013 23.0738 4.06906C23.0622 4.21788 22.8816 4.33979 22.6722 4.33979Z" fill="white"/>
<path d="M20.1025 5.28754H14.8863C14.6768 5.28754 14.5149 5.16575 14.5265 5.01682C14.538 4.86788 14.7186 4.74609 14.9281 4.74609H20.1442C20.3537 4.74609 20.5156 4.86788 20.504 5.01682C20.4925 5.16575 20.3119 5.28754 20.1025 5.28754Z" fill="white"/>
<path d="M20.3611 21.6596H13.6231C13.4136 21.6596 13.2518 21.5378 13.2633 21.3889C13.2748 21.24 13.4554 21.1182 13.6649 21.1182H20.4029C20.6123 21.1182 20.7742 21.24 20.7627 21.3889C20.7512 21.5378 20.5704 21.6596 20.3611 21.6596Z" fill="white"/>
<path d="M16.8798 22.6074H13.5503C13.3409 22.6074 13.179 22.4856 13.1905 22.3366C13.202 22.1877 13.3827 22.0659 13.5921 22.0659H16.9216C17.131 22.0659 17.2929 22.1877 17.2814 22.3366C17.2699 22.4855 17.089 22.6074 16.8798 22.6074Z" fill="white"/>
<path d="M22.3067 9.07617H14.5941C14.3846 9.07617 14.204 9.19796 14.1925 9.3469C14.181 9.49583 14.3428 9.61762 14.5523 9.61762H22.2649C22.4744 9.61762 22.655 9.49583 22.6665 9.3469C22.678 9.19796 22.5162 9.07617 22.3067 9.07617Z" fill="white"/>
<path d="M19.8835 8.12842H14.6673C14.4579 8.12842 14.2772 8.25021 14.2657 8.39914C14.2542 8.54807 14.4161 8.66986 14.6255 8.66986H19.8417C20.0511 8.66986 20.2318 8.54807 20.2433 8.39914C20.2548 8.25032 20.0929 8.12842 19.8835 8.12842Z" fill="white"/>
<path d="M18.2472 12.9999H14.2915C14.0821 12.9999 13.9202 12.8782 13.9317 12.7292C13.9432 12.5803 14.1239 12.4585 14.3333 12.4585H18.2889C18.4984 12.4585 18.6603 12.5803 18.6488 12.7292C18.6372 12.8782 18.4564 12.9999 18.2472 12.9999Z" fill="white"/>
<path d="M22.0038 12.9999H19.6739C19.4644 12.9999 19.3025 12.8782 19.3141 12.7292C19.3256 12.5803 19.5062 12.4585 19.7157 12.4585H22.0456C22.2551 12.4585 22.4169 12.5803 22.4054 12.7292C22.3939 12.8782 22.2133 12.9999 22.0038 12.9999Z" fill="white"/>
<path d="M19.4345 13.9472H14.2183C14.0089 13.9472 13.847 13.8254 13.8585 13.6765C13.87 13.5276 14.0506 13.4058 14.2601 13.4058H19.4763C19.6857 13.4058 19.8476 13.5276 19.8361 13.6765C19.8246 13.8253 19.6439 13.9472 19.4345 13.9472Z" fill="white"/>
<path d="M12.8967 26.4049H4.01644C3.72359 26.4049 3.49704 26.2344 3.513 26.0262C3.52912 25.8179 3.78183 25.6475 4.07485 25.6475H12.9551C13.248 25.6475 13.4745 25.8179 13.4584 26.0262C13.4424 26.2345 13.1897 26.4049 12.8967 26.4049Z" fill="white"/>
<path d="M20.8177 26.4049H15.3651C15.0722 26.4049 14.8457 26.2344 14.8616 26.0262C14.8778 25.8179 15.1305 25.6475 15.4235 25.6475H20.8761C21.1689 25.6475 21.3955 25.8179 21.3794 26.0262C21.3634 26.2345 21.1107 26.4049 20.8177 26.4049Z" fill="white"/>
<path d="M10.6753 27.7306H3.91424C3.62139 27.7306 3.39484 27.5601 3.41097 27.3519C3.42709 27.1436 3.6798 26.9731 3.97281 26.9731H10.7339C11.0267 26.9731 11.2533 27.1436 11.2373 27.3519C11.221 27.5601 10.9683 27.7306 10.6753 27.7306Z" fill="white"/>
<path d="M18.018 29.0558H3.81185C3.519 29.0558 3.29245 28.8853 3.30841 28.677C3.32453 28.4687 3.57724 28.2983 3.87026 28.2983H18.0764C18.3693 28.2983 18.5958 28.4688 18.5799 28.677C18.5637 28.8854 18.3109 29.0558 18.018 29.0558Z" fill="white"/>
<path d="M16.2092 17.7358H13.9261C13.7167 17.7358 13.536 17.8576 13.5245 18.0066C13.513 18.1555 13.6749 18.2773 13.8843 18.2773H16.1674C16.3768 18.2773 16.5575 18.1555 16.569 18.0066C16.5805 17.8577 16.4186 17.7358 16.2092 17.7358Z" fill="white"/>
<path d="M20.2831 17.7358H17.6361C17.4266 17.7358 17.246 17.8576 17.2345 18.0066C17.2229 18.1555 17.3848 18.2773 17.5943 18.2773H20.2414C20.4509 18.2773 20.6315 18.1555 20.643 18.0066C20.6544 17.8577 20.4925 17.7358 20.2831 17.7358Z" fill="white"/>
<path d="M19.215 16.7881H13.9989C13.7894 16.7881 13.6088 16.9099 13.5973 17.0588C13.5857 17.2077 13.7476 17.3295 13.9571 17.3295H19.1733C19.3827 17.3295 19.5633 17.2077 19.5748 17.0588C19.5864 16.9099 19.4245 16.7881 19.215 16.7881Z" fill="white"/>
</svg>
